<svg width="34" height="36" viewBox="0 0 34 36" fill="none" xmlns="http://www.w3.org/2000/svg">
<path fill-rule="evenodd" clip-rule="evenodd" d="M6.875 1.16683C7.99063 0.330103 9.32555 0.0834961 10.3333 0.0834961C11.0237 0.0834961 11.5833 0.64314 11.5833 1.3335C11.5833 2.02385 11.0237 2.5835 10.3333 2.5835C9.67445 2.5835 8.92603 2.75356 8.375 3.16683C7.88453 3.53468 7.41667 4.19043 7.41667 5.50016V13.0002C7.41667 13.9863 7.00425 14.8208 6.5064 15.468C6.0104 16.1128 5.37944 16.6395 4.80016 17.045C4.74079 17.0866 4.68151 17.1272 4.62246 17.1668C4.68151 17.2065 4.74079 17.2471 4.80016 17.2886C5.37944 17.6941 6.0104 18.2208 6.5064 18.8656C7.00425 19.5128 7.41667 20.3473 7.41667 21.3335V30.5002C7.41667 31.8099 7.88453 32.4656 8.375 32.8335C8.92603 33.2468 9.67445 33.4168 10.3333 33.4168C11.0237 33.4168 11.5833 33.9765 11.5833 34.6668C11.5833 35.3572 11.0237 35.9168 10.3333 35.9168C9.32555 35.9168 7.99063 35.6702 6.875 34.8335C5.6988 33.9513 4.91667 32.5238 4.91667 30.5002V21.3335C4.91667 21.0697 4.80825 20.7583 4.52484 20.3899C4.2396 20.0191 3.82889 19.6604 3.36651 19.3367C2.91053 19.0175 2.44652 18.7616 2.09202 18.5843C1.91636 18.4965 1.77143 18.4299 1.67288 18.3863C1.62369 18.3645 1.58632 18.3485 1.56275 18.3386L1.53808 18.3284L1.53576 18.3274C1.53576 18.3274 1.53576 18.3274 2 17.1668C1.53576 16.0062 1.53522 16.0064 1.53522 16.0064L1.53808 16.0053L1.56275 15.995C1.58632 15.9851 1.62369 15.9692 1.67288 15.9474C1.77143 15.9038 1.91636 15.8371 2.09202 15.7493C2.44652 15.5721 2.91053 15.3161 3.36651 14.997C3.82889 14.6733 4.2396 14.3146 4.52484 13.9438C4.80825 13.5753 4.91667 13.264 4.91667 13.0002V5.50016C4.91667 3.47657 5.6988 2.04898 6.875 1.16683ZM1.53522 16.0064C1.06162 16.1967 0.75 16.6563 0.75 17.1668C0.75 17.6778 1.06149 18.1375 1.53576 18.3274" fill="#479FDE"/>
<path fill-rule="evenodd" clip-rule="evenodd" d="M22.4167 1.3335C22.4167 0.64314 22.9763 0.0834961 23.6667 0.0834961C24.6744 0.0834961 26.0094 0.330103 27.125 1.16683C28.3012 2.04898 29.0833 3.47657 29.0833 5.50016V13.0002C29.0833 13.264 29.1917 13.5753 29.4752 13.9438C29.7604 14.3146 30.1711 14.6733 30.6335 14.997C31.0895 15.3161 31.5535 15.5721 31.908 15.7493C32.0836 15.8371 32.2286 15.9038 32.3271 15.9474C32.3763 15.9692 32.4137 15.9851 32.4372 15.995L32.4619 16.0053L32.4642 16.0062C32.4642 16.0062 32.4642 16.0062 32 17.1668C31.5358 18.3274 31.5351 18.3272 31.5351 18.3272L31.5326 18.3262L31.528 18.3243L31.5142 18.3187L31.4692 18.3C31.4317 18.2842 31.3795 18.2619 31.3148 18.2333C31.1855 18.176 31.0049 18.0929 30.7899 17.9854C30.4064 17.7936 29.9011 17.5182 29.3775 17.1668C29.3185 17.1272 29.2592 17.0866 29.1998 17.045C28.6206 16.6395 27.9896 16.1128 27.4936 15.468C26.9958 14.8208 26.5833 13.9863 26.5833 13.0002V5.50016C26.5833 4.19043 26.1155 3.53468 25.625 3.16683C25.074 2.75356 24.3256 2.5835 23.6667 2.5835C22.9763 2.5835 22.4167 2.02385 22.4167 1.3335ZM32.4642 18.3274L32.4619 18.3284L32.4372 18.3386C32.4137 18.3485 32.3763 18.3645 32.3271 18.3863C32.2286 18.4299 32.0836 18.4965 31.908 18.5843C31.5535 18.7616 31.0895 19.0175 30.6335 19.3367C30.1711 19.6604 29.7604 20.0191 29.4752 20.3899C29.1917 20.7583 29.0833 21.0697 29.0833 21.3335V30.5002C29.0833 32.5238 28.3012 33.9513 27.125 34.8335C26.0094 35.6702 24.6744 35.9168 23.6667 35.9168C22.9763 35.9168 22.4167 35.3572 22.4167 34.6668C22.4167 33.9765 22.9763 33.4168 23.6667 33.4168C24.3256 33.4168 25.074 33.2468 25.625 32.8335C26.1155 32.4656 26.5833 31.8099 26.5833 30.5002V21.3335C26.5833 20.3473 26.9958 19.5128 27.4936 18.8656C27.9896 18.2208 28.6206 17.6941 29.1998 17.2886C29.2592 17.2471 29.3185 17.2065 29.3775 17.1668M32.4642 18.3274L32.4658 18.3268C32.9394 18.1365 33.25 17.6773 33.25 17.1668C33.25 16.6561 32.9382 16.1963 32.4642 16.0062" fill="#479FDE"/>
</svg>
