<svg width="40" height="40" viewBox="0 0 40 40" fill="none" xmlns="http://www.w3.org/2000/svg">
<path fill-rule="evenodd" clip-rule="evenodd" d="M14.5834 26.6666C14.5834 25.9763 15.1431 25.4166 15.8334 25.4166H24.1667C24.8571 25.4166 25.4167 25.9763 25.4167 26.6666V34.1666C25.4167 34.857 24.8571 35.4166 24.1667 35.4166H15.8334C15.1431 35.4166 14.5834 34.857 14.5834 34.1666V26.6666ZM17.0834 27.9166V32.9166H22.9167V27.9166H17.0834Z" fill="#479FDE"/>
<path fill-rule="evenodd" clip-rule="evenodd" d="M5.83341 7.91663C5.6033 7.91663 5.41675 8.10317 5.41675 8.33329V25C5.41675 25.2301 5.6033 25.4166 5.83341 25.4166H34.1667C34.3969 25.4166 34.5834 25.2301 34.5834 25V8.33329C34.5834 8.10317 34.3969 7.91663 34.1667 7.91663H5.83341ZM2.91675 8.33329C2.91675 6.72246 4.22258 5.41663 5.83341 5.41663H34.1667C35.7776 5.41663 37.0834 6.72246 37.0834 8.33329V25C37.0834 26.6108 35.7776 27.9166 34.1667 27.9166H5.83341C4.22258 27.9166 2.91675 26.6108 2.91675 25V8.33329Z" fill="#479FDE"/>
<path fill-rule="evenodd" clip-rule="evenodd" d="M17.0834 22.5C17.0834 21.8096 17.6431 21.25 18.3334 21.25H21.6667C22.3571 21.25 22.9167 21.8096 22.9167 22.5C22.9167 23.1903 22.3571 23.75 21.6667 23.75H18.3334C17.6431 23.75 17.0834 23.1903 17.0834 22.5Z" fill="#479FDE"/>
<path fill-rule="evenodd" clip-rule="evenodd" d="M10.4167 34.1666C10.4167 33.4763 10.9764 32.9166 11.6667 32.9166H28.3334C29.0238 32.9166 29.5834 33.4763 29.5834 34.1666C29.5834 34.857 29.0238 35.4166 28.3334 35.4166H11.6667C10.9764 35.4166 10.4167 34.857 10.4167 34.1666Z" fill="#479FDE"/>
</svg>
