<svg width="30" height="24" viewBox="0 0 30 24" fill="none" xmlns="http://www.w3.org/2000/svg">
<path d="M0.374817 1.95801C0.374817 1.26765 0.934461 0.708008 1.62482 0.708008H28.2915C28.9819 0.708008 29.5415 1.26765 29.5415 1.95801C29.5415 2.64836 28.9819 3.20801 28.2915 3.20801H1.62482C0.934461 3.20801 0.374817 2.64836 0.374817 1.95801Z" fill="#18214D"/>
<path d="M0.374817 11.958C0.374817 11.2677 0.934461 10.708 1.62482 10.708H28.2915C28.9819 10.708 29.5415 11.2677 29.5415 11.958C29.5415 12.6484 28.9819 13.208 28.2915 13.208H1.62482C0.934461 13.208 0.374817 12.6484 0.374817 11.958Z" fill="#18214D"/>
<path d="M0.374817 21.958C0.374817 21.2677 0.934461 20.708 1.62482 20.708H28.2915C28.9819 20.708 29.5415 21.2677 29.5415 21.958C29.5415 22.6484 28.9819 23.208 28.2915 23.208H1.62482C0.934461 23.208 0.374817 22.6484 0.374817 21.958Z" fill="#18214D"/>
</svg>
