<svg width="56" height="56" viewBox="0 0 56 56" fill="none" xmlns="http://www.w3.org/2000/svg">
<path fill-rule="evenodd" clip-rule="evenodd" d="M28 0C20.5739 0 13.452 2.94999 8.20101 8.20101C2.94999 13.452 0 20.5739 0 28C0 35.4261 2.94999 42.548 8.20101 47.799C13.452 53.05 20.5739 56 28 56C35.4261 56 42.548 53.05 47.799 47.799C53.05 42.548 56 35.4261 56 28C56 20.5739 53.05 13.452 47.799 8.20101C42.548 2.94999 35.4261 0 28 0V0ZM27.7807 10.5L27.8542 11.6667L27.2708 11.7028H26.943L26.1403 11.8125L25.557 11.886L25.4112 10.7543L25.9945 10.6458L26.8333 10.5362H27.1985L27.7818 10.5H27.7807ZM29.057 10.5362L29.6403 10.6097L30.1875 10.6797H30.2237L30.8443 10.8255L31.3903 10.9352L31.136 12.1018L30.5877 11.956L30.0043 11.8463L29.4945 11.7763L28.9112 11.7028L29.057 10.5362ZM24.136 11.0472L24.5735 12.1403L24.0252 12.3597L23.1152 12.7237L23.0055 12.7972L22.4945 13.0527L21.9485 12.0307L22.4583 11.739L22.6042 11.704L22.6403 11.6667L23.5888 11.2653L24.1348 11.0472H24.136ZM32.5943 11.3388L33.1403 11.557L33.3235 11.6305V11.6667H33.3585L34.2335 12.1042L34.7445 12.3958L34.2347 13.4167L33.6875 13.1612L32.8125 12.7237L32.7028 12.6513L32.1568 12.432L32.5943 11.3388ZM20.8542 12.6513L21.5472 13.5987L21.1097 13.9265L20.6348 14.2917L20.2347 14.6568L19.7972 15.0208L19.0307 14.1458L19.4682 13.7807L19.8695 13.4167L19.9068 13.3805L20.3805 13.0153L20.8542 12.6513ZM28 12.7237C33.7902 12.7237 38.5 17.3973 38.5 23.1513C38.5 26.3002 36.8783 28.427 35.4013 30.625C34.7363 31.6155 34.1285 32.6387 33.614 33.7972L34.0153 34.6722L33.5055 34.9265L33.2138 35.0723L33.068 35.1435C32.732 36.2355 32.557 37.4477 32.557 38.899C32.5574 38.911 32.5574 38.9231 32.557 38.9352V43.638C32.557 43.7927 32.4955 43.9411 32.3861 44.0505C32.2767 44.1599 32.1284 44.2213 31.9737 44.2213H24.0263C23.8716 44.2213 23.7232 44.1599 23.6139 44.0505C23.5045 43.9411 23.443 43.7927 23.443 43.638V38.899C23.443 37.443 23.233 36.2017 22.8958 35.1073L22.8223 35.0712L21.875 34.5963H21.8015L21.7292 34.5263L21.2555 34.2347L21.8388 33.25L22.2763 33.5055C21.7863 32.4637 21.1727 31.5338 20.5625 30.625C19.0867 28.427 17.5 26.3002 17.5 23.1513C17.5 17.3973 22.2098 12.7237 28 12.7237ZM35.8388 13.125L36.2763 13.5263L36.8597 14.0362L36.8958 14.0723L37.1513 14.364L37.5515 14.7653L36.7138 15.568L36.3125 15.1667L36.0932 14.9112L35.5098 14.4013L35.0723 14L35.8388 13.125ZM28 13.8903C22.8363 13.8903 18.6667 18.032 18.6667 23.1513C18.6667 25.9082 20.048 27.7375 21.5472 29.9682C22.3685 31.1932 23.1653 32.5722 23.7347 34.2347L23.8805 34.307L23.807 34.4167C24.1803 35.5647 24.4358 36.8527 24.5 38.318H27.4167V31.9375C27.4167 31.7828 27.4781 31.6344 27.5875 31.525C27.6969 31.4156 27.8453 31.3542 28 31.3542C28.1547 31.3542 28.3031 31.4156 28.4125 31.525C28.5219 31.6344 28.5833 31.7828 28.5833 31.9375V38.318H31.5C31.5665 36.8177 31.8407 35.5122 32.2292 34.3432L32.193 34.2708L32.2653 34.2347C32.8347 32.5663 33.6303 31.1955 34.4528 29.9682C35.952 27.7387 37.3333 25.9082 37.3333 23.1525C37.3333 18.0332 33.1637 13.8915 28 13.8915V13.8903ZM18.1557 15.0932L19.068 15.8235L18.7028 16.2972L18.6305 16.4068H18.5943L18.0833 17.2083L17.7555 17.682L16.7708 17.0263L17.0987 16.5527L17.6458 15.75L17.682 15.7138L17.7917 15.568L18.1568 15.0943L18.1557 15.0932ZM27.9277 15.7138H28.0735C29.2875 15.7311 30.4764 16.0626 31.5242 16.676C32.5721 17.2894 33.4432 18.1637 34.0527 19.2138C34.6602 20.2657 34.9829 21.4578 34.989 22.6724C34.9952 23.8871 34.6845 25.0824 34.0877 26.1403C34.0783 26.1567 34.062 26.1963 34.0527 26.2138C34.0445 26.2255 34.0235 26.2022 34.0153 26.2138C32.9245 28.0782 31.0555 29.358 28.9112 29.6403C27.8533 29.7752 26.7786 29.6682 25.7681 29.3272C24.7576 28.9863 23.8377 28.4204 23.0778 27.6722C23.0627 27.6593 23.0557 27.6488 23.0417 27.6348C23.0323 27.6243 23.0137 27.6115 23.0055 27.5998C22.8772 27.4692 22.7932 27.335 22.6765 27.1973L23.7708 26.1042L27.4167 22.4583V15.75C27.5835 15.736 27.7573 15.7138 27.9277 15.7138ZM38.3542 15.75L38.682 16.2237L38.9013 16.5515L38.9375 16.5888L39.3027 17.2818L39.5943 17.7917L38.5723 18.3388L38.2807 17.8278L37.9167 17.1722L37.7347 16.8805L37.4057 16.4068L38.3542 15.75ZM26.25 15.932V17.2445C26.2488 17.2562 26.2605 17.2807 26.25 17.2807C24.6423 17.7637 23.2692 18.8475 22.6042 20.454C21.938 22.0617 22.1328 23.8233 22.932 25.3015L21.9847 26.25C20.8857 24.3857 20.657 22.0757 21.5098 20.0153C22.3615 17.9585 24.1582 16.4745 26.25 15.932ZM28.5833 17.0263V22.3487L32.1195 24.3903L33.2138 25.0472C33.9652 23.3532 33.9698 21.4223 33.0307 19.7972C32.0927 18.172 30.4243 17.2223 28.5833 17.0263ZM16.1875 18.2292L17.318 18.5943L17.0987 19.1403L16.8432 19.943L16.7708 20.1973L16.625 20.7807L15.4945 20.489L15.6403 19.943L15.7138 19.6513V19.614L16.0055 18.7763L16.1875 18.2292ZM40.068 18.9583V18.9607L40.25 19.5078L40.2862 19.5417V19.6152L40.5417 20.636V20.671L40.5778 20.7083V20.7445L40.6513 21.3278L39.5208 21.511L39.4112 20.9277V20.8903L39.1568 19.9068L38.9737 19.3585L40.068 18.9583ZM15.239 21.7292L16.4057 21.8388L16.3707 22.4222L16.3333 22.9682V24.0998L15.1667 24.1348V22.9332L15.2028 22.3125L15.239 21.7292ZM39.6667 22.568H40.8333V24.0252L40.7972 24.3903L40.7237 24.9375L39.557 24.8278L39.6305 24.2818L39.6667 23.9167V22.568ZM28.0723 23.443L24.3903 27.125C25.627 28.126 27.1705 28.6837 28.7653 28.4737C30.3602 28.2637 31.6948 27.3548 32.6305 26.068L28.0723 23.443ZM16.4792 25.1557L16.5888 25.739L16.625 25.9222L16.8443 26.8333L17.0263 27.3805L15.8958 27.6722L15.75 27.125L15.4945 26.2138V26.1765L15.4222 25.9583L15.3125 25.375L16.4792 25.1557ZM39.375 25.8848L40.5055 26.2138L40.3597 26.7598L40.25 27.1612V27.2335L39.9945 27.9277L39.7763 28.4737L38.682 28.0735L38.9013 27.5252L39.1557 26.8333L39.2292 26.4682L39.375 25.8848ZM17.4265 28.3278L17.7182 28.8388L18.0833 29.5307H18.1195L18.2653 29.7873L18.6305 30.2598L17.6458 30.9167L17.318 30.443L17.136 30.1875V30.1513H17.0987L16.6973 29.4222L16.4057 28.9112L17.4277 28.3278H17.4265ZM38.2445 28.9847L39.2292 29.6403L38.9013 30.1513L38.318 30.989H38.2807V31.0263L38.2083 31.1348L37.8432 31.5723L36.9332 30.8432L37.2972 30.4057L37.3333 30.3333H37.3695L37.9167 29.4945L38.2445 28.9847ZM19.2862 31.0987L19.6875 31.5362L19.9792 31.8278L20.5263 32.2653L20.9638 32.6667L20.1973 33.5417L19.7598 33.1765L19.1765 32.6667L19.1415 32.6305L18.8498 32.3388L18.4473 31.9013L19.2873 31.0987H19.2862ZM36.2028 31.6458L36.9693 32.5208L36.5318 32.9222L36.057 33.3223V33.3597H36.0208L35.5833 33.6875L35.1097 34.0153L34.4167 33.068L34.8903 32.739L35.3278 32.4473L35.7653 32.0472L36.2028 31.6458ZM24.6097 39.4847V40.7237H30.3333V41.8903H24.6097V43.057H31.3903V39.4847H28.0735C28.0128 39.4943 27.951 39.4943 27.8903 39.4847H24.6097ZM25.0833 45.5H30.9167C31.7053 45.4883 31.7053 46.6783 30.9167 46.6667H25.0833C24.2947 46.6783 24.2947 45.4883 25.0833 45.5Z" fill="#479FDE"/>
</svg>
