<svg width="56" height="56" viewBox="0 0 56 56" fill="none" xmlns="http://www.w3.org/2000/svg">
<path fill-rule="evenodd" clip-rule="evenodd" d="M28 0C20.5739 0 13.452 2.94999 8.20101 8.20101C2.94999 13.452 0 20.5739 0 28C0 35.4261 2.94999 42.548 8.20101 47.799C13.452 53.05 20.5739 56 28 56C35.4261 56 42.548 53.05 47.799 47.799C53.05 42.548 56 35.4261 56 28C56 20.5739 53.05 13.452 47.799 8.20101C42.548 2.94999 35.4261 0 28 0V0ZM18.0833 11.662H35.5833C35.738 11.662 35.8864 11.7235 35.9958 11.8329C36.1052 11.9423 36.1667 12.0906 36.1667 12.2453V20.9638L36.7792 20.9907L37.6133 21.0315L37.6728 21.0432L37.9995 21.0933L38.577 21.1797L38.3997 22.3347L37.8233 22.246L37.534 22.2005L36.7208 22.1597L36.1667 22.1352V23.3287H37.8782C38.0329 23.3287 38.1812 23.3901 38.2906 23.4995C38.4 23.6089 38.4615 23.7573 38.4615 23.912V24.7193C38.7147 24.8022 38.9597 24.906 39.1965 25.0262L39.7577 24.4615C39.8119 24.4066 39.8765 24.3631 39.9477 24.3334C40.0189 24.3037 40.0953 24.2884 40.1724 24.2884C40.2496 24.2884 40.3259 24.3037 40.3971 24.3334C40.4683 24.3631 40.5329 24.4066 40.5872 24.4615L42.0723 25.9607C42.181 26.07 42.242 26.2178 42.242 26.3719C42.242 26.526 42.181 26.6739 42.0723 26.7832L41.51 27.3502C41.6313 27.594 41.734 27.8437 41.818 28.1027H42.6113C42.766 28.1027 42.9144 28.1641 43.0238 28.2735C43.1332 28.3829 43.1947 28.5313 43.1947 28.686V30.807C43.1947 30.9617 43.1332 31.1101 43.0238 31.2195C42.9144 31.3289 42.766 31.3903 42.6113 31.3903H41.818C41.7346 31.6486 41.6316 31.9002 41.51 32.1428L42.0735 32.7098C42.1821 32.8191 42.2431 32.967 42.2431 33.1211C42.2431 33.2752 42.1821 33.423 42.0735 33.5323L40.5872 35.0315C40.5329 35.0862 40.4684 35.1296 40.3973 35.1592C40.3263 35.1888 40.25 35.204 40.173 35.204C40.096 35.204 40.0197 35.1888 39.9487 35.1592C39.8776 35.1296 39.8131 35.0862 39.7588 35.0315L39.1988 34.4692C38.9608 34.5893 38.7158 34.6908 38.4615 34.7748V35.5798C38.4615 35.7345 38.4 35.8829 38.2906 35.9923C38.1812 36.1017 38.0329 36.1632 37.8782 36.1632H36.1667V37.3602L36.7208 37.3333L37.534 37.2925L37.807 37.2517L38.3833 37.156L38.5583 38.311L37.9832 38.3973L37.6728 38.4452L37.6145 38.4568L36.7792 38.4977L36.1958 38.5268L36.1667 37.9435V43.75C36.1667 43.9047 36.1052 44.0531 35.9958 44.1625C35.8864 44.2719 35.738 44.3333 35.5833 44.3333H18.0833C17.9286 44.3333 17.7802 44.2719 17.6709 44.1625C17.5615 44.0531 17.5 43.9047 17.5 43.75V12.25C17.5 12.0953 17.5615 11.9469 17.6709 11.8375C17.7802 11.7281 17.9286 11.6667 18.0833 11.6667V11.662ZM41.8017 12.8088C42.21 12.866 42.6347 12.8473 43.0255 12.9978C43.442 13.097 43.7943 13.349 44.1712 13.5392L43.6135 14.5658L43.1877 14.3348C42.9875 14.2142 42.7699 14.1253 42.5425 14.0712C42.2462 14.0058 41.937 14.0058 41.6348 13.9662L41.72 13.1203C41.7573 13.0293 41.6932 12.81 41.8017 12.81V12.8088ZM18.6667 12.8333V16.3333H35V12.8333H18.6667ZM40.1928 13.3023L40.936 14.203L40.6397 14.448C40.4414 14.5934 40.2663 14.768 40.1205 14.966C39.9338 15.2355 39.7997 15.54 39.6352 15.8235L38.612 15.267C38.7707 14.9777 38.9235 14.6837 39.088 14.3967C39.2863 14.1388 39.4777 13.8693 39.7437 13.6768L40.1928 13.3035V13.3023ZM24.5 14H29.1667V15.1667H24.5V14ZM45.1792 14.8178C45.2282 14.9777 45.2795 15.1363 45.3297 15.2962C45.4557 15.6147 45.4627 15.9588 45.5 16.2948C45.4732 16.646 45.465 17.0088 45.3378 17.3425C45.2655 17.6773 45.0812 17.9655 44.9213 18.2642L44.0533 17.7917C43.89 17.7485 43.8865 17.6598 43.9868 17.5385C44.121 17.3273 44.2027 17.0905 44.2692 16.8502C44.3018 16.6203 44.345 16.3835 44.31 16.1502C44.3042 15.806 44.1548 15.4922 44.0662 15.1643L45.1792 14.8178ZM39.6433 16.5632L39.7577 16.9307C39.8113 17.1582 39.9093 17.367 40.0307 17.5665C40.2197 17.8488 40.4623 18.095 40.6723 18.3633L39.9537 18.956C39.7938 19.0703 39.7612 19.1357 39.69 19.0108C39.4298 18.676 39.1125 18.3797 38.9328 17.99C38.7217 17.6622 38.6552 17.2737 38.5292 16.9097L39.6433 16.5632ZM18.6667 17.5V37.3333H35V17.5H18.6667ZM43.4338 18.3202L43.7687 19.3982C43.7652 19.4938 43.554 19.4798 43.47 19.5323C43.0955 19.6408 42.7303 19.7948 42.3348 19.8065C41.979 19.8718 41.6232 19.7913 41.2685 19.7645L41.3875 18.6048C41.643 18.6188 41.8985 18.6865 42.1552 18.648C42.406 18.6457 42.6417 18.571 42.8773 18.4917L43.4338 18.3202ZM25.1102 19.8333C27.0363 19.8333 28.6102 21.4083 28.6102 23.3333C28.6084 23.9515 28.4431 24.5581 28.1311 25.0917C27.819 25.6253 27.3713 26.0668 26.8333 26.3713V26.4063H31.1722C32.0413 26.4063 32.676 27.1892 32.676 28.0478V29.1165C32.6753 30.1438 32.4057 31.1529 31.894 32.0437C31.3823 32.9344 30.6464 33.6757 29.7593 34.1938C27.9533 35.2438 25.7227 35.2438 23.9167 34.1938C23.0557 33.6899 22.337 32.9755 21.828 32.1175C21.319 31.2596 21.0365 30.2863 21.007 29.2892C21.0023 29.2591 21 29.2286 21 29.1982V29.1025C21 28.245 21.6335 27.4598 22.505 27.4598H23.3333V26.3398C22.8101 26.0311 22.3761 25.5916 22.074 25.0645C21.7719 24.5375 21.6121 23.9409 21.6102 23.3333C21.6102 21.4083 23.1852 19.8333 25.1102 19.8333ZM25.1102 21C23.8152 21 22.7768 22.0383 22.7768 23.3333C22.778 23.8758 23.0078 24.3483 23.3333 24.7532V23.8093C23.3333 22.8352 24.185 22.1667 25.0833 22.1667C25.1069 22.1691 25.1303 22.173 25.1533 22.1783C25.1922 22.1826 25.2305 22.1909 25.2677 22.2028C25.2708 22.2028 25.2739 22.2028 25.277 22.2028C25.2929 22.2091 25.3084 22.2162 25.3237 22.2238C25.3256 22.2238 25.3276 22.2238 25.3295 22.2238C25.3623 22.2399 25.3936 22.2591 25.4228 22.281C25.4252 22.281 25.4275 22.281 25.4298 22.281C25.4431 22.2909 25.456 22.3015 25.4683 22.3125C25.4691 22.3125 25.4699 22.3125 25.4707 22.3125C25.4788 22.3125 25.4858 22.3242 25.494 22.3242C25.7693 22.393 26.0575 22.4373 26.2687 22.6228C26.4553 22.7862 26.607 22.9962 26.7085 23.2377C26.7283 23.2808 26.7435 23.3275 26.7587 23.3742C26.7703 23.4115 26.7832 23.4477 26.7925 23.4862C26.8186 23.5935 26.8323 23.7035 26.8333 23.814V24.8057C27.1892 24.3915 27.4435 23.9027 27.4435 23.3333C27.4435 22.0383 26.4052 21 25.1102 21ZM39.8685 21.5483L40.3958 21.805L40.8952 22.0442L40.9453 22.071L41.4668 22.3872L41.9662 22.6905L41.3595 23.6892L40.8625 23.3858L40.3643 23.0848L39.8872 22.855L39.3633 22.6018L39.8697 21.5495L39.8685 21.5483ZM25.0787 23.3357C25.0553 23.3357 25.0285 23.352 25.004 23.352C24.7613 23.3975 24.5105 23.6203 24.5023 23.7977L24.5 23.8093V28.0408C24.5 28.1955 24.4385 28.3439 24.3291 28.4533C24.2197 28.5627 24.0714 28.6242 23.9167 28.6242H22.505C22.3545 28.6242 22.1667 28.7863 22.1667 29.1002V29.1258L22.155 29.085C22.1636 29.1233 22.1683 29.1624 22.169 29.2017C22.1843 30.0099 22.4071 30.8007 22.8161 31.498C23.2252 32.1953 23.8066 32.7757 24.5047 33.1835C25.9513 34.0247 27.7247 34.0247 29.1713 33.1835C29.8825 32.7684 30.4725 32.1744 30.8827 31.4604C31.2929 30.7465 31.5089 29.9376 31.5093 29.1142V28.0455C31.5093 27.7305 31.3203 27.5718 31.171 27.5718H26.25C26.0953 27.5718 25.9469 27.5104 25.8375 27.401C25.7281 27.2916 25.6667 27.1432 25.6667 26.9885V23.8117C25.6667 23.6133 25.3505 23.3357 25.0833 23.3357C25.0826 23.3357 25.0818 23.3357 25.081 23.3357C25.0802 23.3357 25.0794 23.3357 25.0787 23.3357ZM42.959 23.5865L43.351 24.0182L43.4828 24.1652L43.5202 24.206L43.9892 24.836L44.0207 24.8827L44.1163 25.0402L44.4197 25.5395L43.4222 26.1462L43.1188 25.6457L43.0325 25.5057L42.6195 24.9492L42.6078 24.9375L42.4877 24.8033L42.0957 24.3717L42.959 23.5865ZM36.1667 24.4965V27.4073C37.4488 27.4073 38.5 28.4597 38.5 29.7407C38.5 31.0228 37.4488 32.074 36.1667 32.074V34.9953H37.2948V34.3933C37.2946 34.2612 37.3393 34.1329 37.4216 34.0295C37.5038 33.926 37.6187 33.8536 37.7475 33.824C38.2025 33.7213 38.6377 33.5405 39.0332 33.2908C39.1455 33.2204 39.2785 33.1904 39.4102 33.2056C39.5419 33.2209 39.6644 33.2806 39.7577 33.3748L40.173 33.7925L40.838 33.1205L40.4168 32.6935C40.3246 32.6004 40.2664 32.4791 40.2516 32.3489C40.2368 32.2188 40.2662 32.0874 40.3352 31.976C40.5837 31.5759 40.7635 31.137 40.8672 30.6775C40.8965 30.5487 40.9687 30.4337 41.0719 30.3512C41.1751 30.2688 41.3032 30.2238 41.4353 30.2237H42.0268V29.2693H41.4318C41.2998 29.2689 41.1718 29.2236 41.0688 29.141C40.9658 29.0583 40.8939 28.9432 40.8648 28.8143C40.7626 28.3546 40.584 27.9153 40.3363 27.5147C40.2674 27.4033 40.238 27.2719 40.2528 27.1418C40.2676 27.0116 40.3258 26.8902 40.418 26.7972L40.838 26.3725L40.173 25.7005L39.7553 26.1205C39.6619 26.2141 39.5394 26.2732 39.408 26.288C39.2765 26.3028 39.144 26.2726 39.032 26.2022C38.6375 25.9526 38.2036 25.7716 37.7487 25.6667C37.6194 25.6375 37.504 25.5653 37.4213 25.4618C37.3386 25.3583 37.2936 25.2298 37.2937 25.0973V24.4953H36.1667V24.4965ZM45.003 26.7447L45.1488 27.3093L45.3157 27.9568L45.3273 28.0187L45.402 28.511L45.4907 29.0873L44.338 29.2623L44.2493 28.686L44.1793 28.2252L44.0183 27.6033L43.8725 27.0387L45.0042 26.7447H45.003ZM36.1667 28.5833V30.9167C36.8177 30.9167 37.3333 30.401 37.3333 29.75C37.3333 29.099 36.8177 28.5833 36.1667 28.5833ZM44.3357 30.254L45.4883 30.4313L45.3997 31.0077L45.3273 31.4813L45.3157 31.5408L45.1442 32.2058L44.9983 32.7717L43.8713 32.48L44.0148 31.9142L44.1782 31.2772L44.247 30.8327L44.3357 30.254ZM43.4128 33.3713L44.4103 33.9768L44.107 34.4762L44.0207 34.6197L43.9892 34.6663L43.5202 35.2963L43.4828 35.3372L43.3393 35.497L42.9473 35.9275L42.084 35.1435L42.476 34.7107L42.6102 34.5648L42.6195 34.5532L43.0348 33.9978L43.1118 33.8695L43.4128 33.3713ZM41.3455 35.8213L41.9522 36.8165L41.4528 37.1198L40.9453 37.429L40.8952 37.4582L40.3795 37.7067L39.8545 37.9598L39.3482 36.9075L39.8732 36.6543L40.3632 36.4175L40.8473 36.1258L41.3455 35.8202V35.8213ZM18.6667 38.5V43.1667H35V38.5H18.6667ZM26.8333 39.6667C27.4703 39.6667 28 40.1963 28 40.8333C28 41.4703 27.4703 42 26.8333 42C26.1963 42 25.6667 41.4703 25.6667 40.8333C25.6667 40.1963 26.1963 39.6667 26.8333 39.6667Z" fill="#479FDE"/>
</svg>
