<svg width="56" height="56" viewBox="0 0 56 56" fill="none" xmlns="http://www.w3.org/2000/svg">
<path fill-rule="evenodd" clip-rule="evenodd" d="M28 0C20.5739 0 13.452 2.94999 8.20101 8.20101C2.94999 13.452 0 20.5739 0 28C0 35.4261 2.94999 42.548 8.20101 47.799C13.452 53.05 20.5739 56 28 56C35.4261 56 42.548 53.05 47.799 47.799C53.05 42.548 56 35.4261 56 28C56 20.5739 53.05 13.452 47.799 8.20101C42.548 2.94999 35.4261 0 28 0V0ZM14.175 17.4977C14.214 17.4961 14.2531 17.4984 14.2917 17.5047H41.7083C41.863 17.5047 42.0114 17.5661 42.1208 17.6755C42.2302 17.7849 42.2917 17.9333 42.2917 18.088V35.0047H44.3333C44.488 35.0047 44.6364 35.0661 44.7458 35.1755C44.8552 35.2849 44.9167 35.4333 44.9167 35.588C44.9167 37.2318 43.435 38.5047 41.7083 38.5047H14.2917C12.565 38.5047 11.0833 37.2318 11.0833 35.588C11.077 35.4602 11.1129 35.3339 11.1854 35.2285C11.2579 35.1231 11.3631 35.0444 11.4847 35.0047C11.545 34.9951 11.6064 34.9951 11.6667 35.0047H13.7083V18.088C13.702 17.9602 13.7379 17.8339 13.8104 17.7285C13.8829 17.6231 13.9881 17.5444 14.1097 17.5047C14.1313 17.5011 14.1531 17.4988 14.175 17.4977ZM14.875 18.6713V35.0047H41.125V18.6713H14.875ZM26.3597 20.4213H29.6403V21.8062C29.897 21.8902 30.128 22.0138 30.3695 22.1352L30.9528 21.5518L31.3903 21.1505L31.7917 21.5518L33.2862 23.0452L33.6875 23.4477L33.2862 23.8852L32.7028 24.4685C32.823 24.71 32.949 24.9398 33.0318 25.1977H34.4167V28.4783H33.0307C32.949 28.735 32.8242 28.966 32.704 29.2075L33.2873 29.7908L33.6875 30.2283L33.2862 30.6297L31.7917 32.1242L31.3903 32.5255L30.9528 32.1242L30.3695 31.5408C30.128 31.661 29.8982 31.7858 29.6403 31.8687V33.2547H26.3597V31.8687C26.103 31.787 25.872 31.6622 25.6305 31.542L25.0472 32.1253L24.6097 32.5255L24.2083 32.1242L22.7138 30.6297L22.3125 30.2283L22.7138 29.7908L23.2972 29.2075C23.177 28.966 23.051 28.735 22.9682 28.4783H21.5833V25.1977H22.9693C23.051 24.941 23.1758 24.7088 23.296 24.4685L22.7127 23.8852L22.3125 23.4477L22.7138 23.0463L24.2083 21.5518L24.6097 21.1505L25.0472 21.5518L25.6305 22.1352C25.872 22.015 26.1018 21.8902 26.3597 21.8062V20.4213ZM27.5263 21.588V22.645L27.0515 22.7547C26.5985 22.8634 26.1673 23.0484 25.7763 23.3018L25.375 23.52L25.0472 23.2283L24.6458 22.827L23.989 23.4838L24.3903 23.8852L24.7193 24.2118L24.4627 24.6143C24.2142 25.011 24.0205 25.431 23.9167 25.8895L23.807 26.3643H22.75V27.3117H23.807L23.9167 27.7853C24.0193 28.2438 24.2153 28.6627 24.4638 29.0617L24.682 29.463L24.3903 29.7908L23.9902 30.1922L24.6458 30.8478L25.0472 30.4477L25.375 30.1187L25.7763 30.3753C26.173 30.6238 26.593 30.8175 27.0515 30.9213L27.5263 31.031V32.088H28.4737V31.031L28.9485 30.9213C29.4015 30.8125 29.8327 30.6275 30.2237 30.3742L30.625 30.156L30.9528 30.4477L31.3542 30.8478L32.011 30.1922L31.6097 29.7908L31.2807 29.463L31.5373 29.0617C31.7858 28.6638 31.9795 28.245 32.0833 27.7853L32.193 27.3117H33.25V26.3643H32.193L32.0833 25.8895C31.9746 25.4365 31.7896 25.0053 31.5362 24.6143L31.318 24.213L31.6097 23.8852L32.0098 23.4838L31.3542 22.827L30.9528 23.2283L30.625 23.5562L30.2237 23.3018C29.8328 23.048 29.4016 22.8626 28.9485 22.7535L28.4737 22.645V21.588H27.5263ZM28 23.9213C29.6042 23.9213 30.9167 25.2338 30.9167 26.838C30.9167 28.4422 29.6042 29.7547 28 29.7547C27.2272 29.7522 26.4868 29.4441 25.9403 28.8977C25.3939 28.3512 25.0858 27.6108 25.0833 26.838C25.0833 25.2338 26.3958 23.9213 28 23.9213ZM28 25.088C27.027 25.088 26.25 25.865 26.25 26.838C26.25 27.811 27.027 28.588 28 28.588C28.973 28.588 29.75 27.811 29.75 26.838C29.75 25.865 28.973 25.088 28 25.088ZM12.5417 36.1713C12.8345 36.8037 13.4085 37.338 14.2917 37.338H41.7083C42.5915 37.338 43.1655 36.8037 43.4583 36.1713H12.5417Z" fill="#479FDE"/>
</svg>
