<svg width="56" height="56" viewBox="0 0 56 56" fill="none" xmlns="http://www.w3.org/2000/svg">
<path fill-rule="evenodd" clip-rule="evenodd" d="M28 0C20.5739 0 13.452 2.94999 8.20101 8.20101C2.94999 13.452 0 20.5739 0 28C0 35.4261 2.94999 42.548 8.20101 47.799C13.452 53.05 20.5739 56 28 56C35.4261 56 42.548 53.05 47.799 47.799C53.05 42.548 56 35.4261 56 28C56 20.5739 53.05 13.452 47.799 8.20101C42.548 2.94999 35.4261 0 28 0V0ZM12.1333 11.6643C12.1724 11.6628 12.2114 11.6651 12.25 11.6713H43.75C43.9047 11.6713 44.0531 11.7328 44.1625 11.8422C44.2719 11.9516 44.3333 12.1 44.3333 12.2547V43.7547C44.3333 43.9094 44.2719 44.0577 44.1625 44.1671C44.0531 44.2765 43.9047 44.338 43.75 44.338H12.25C12.0953 44.338 11.9469 44.2765 11.8375 44.1671C11.7281 44.0577 11.6667 43.9094 11.6667 43.7547V12.2547C11.6603 12.1269 11.6962 12.0006 11.7687 11.8951C11.8412 11.7897 11.9464 11.7111 12.068 11.6713C12.0896 11.6678 12.1114 11.6654 12.1333 11.6643ZM12.8333 12.838V16.338H43.1667V12.838H12.8333ZM14.5833 14.0047C14.738 14.0047 14.8864 14.0661 14.9958 14.1755C15.1052 14.2849 15.1667 14.4333 15.1667 14.588C15.1667 14.7427 15.1052 14.8911 14.9958 15.0005C14.8864 15.1099 14.738 15.1713 14.5833 15.1713C14.4286 15.1713 14.2802 15.1099 14.1709 15.0005C14.0615 14.8911 14 14.7427 14 14.588C14 14.4333 14.0615 14.2849 14.1709 14.1755C14.2802 14.0661 14.4286 14.0047 14.5833 14.0047ZM16.9167 14.0047C17.0714 14.0047 17.2197 14.0661 17.3291 14.1755C17.4385 14.2849 17.5 14.4333 17.5 14.588C17.5 14.7427 17.4385 14.8911 17.3291 15.0005C17.2197 15.1099 17.0714 15.1713 16.9167 15.1713C16.762 15.1713 16.6136 15.1099 16.5042 15.0005C16.3948 14.8911 16.3333 14.7427 16.3333 14.588C16.3333 14.4333 16.3948 14.2849 16.5042 14.1755C16.6136 14.0661 16.762 14.0047 16.9167 14.0047ZM19.25 14.0047C19.4047 14.0047 19.5531 14.0661 19.6625 14.1755C19.7719 14.2849 19.8333 14.4333 19.8333 14.588C19.8333 14.7427 19.7719 14.8911 19.6625 15.0005C19.5531 15.1099 19.4047 15.1713 19.25 15.1713C19.0953 15.1713 18.9469 15.1099 18.8375 15.0005C18.7281 14.8911 18.6667 14.7427 18.6667 14.588C18.6667 14.4333 18.7281 14.2849 18.8375 14.1755C18.9469 14.0661 19.0953 14.0047 19.25 14.0047ZM12.8333 17.5047V43.1713H43.1667V17.5047H12.8333ZM32.0997 23.2972C32.2071 23.2946 32.3131 23.3218 32.4061 23.3757C32.4991 23.4296 32.5753 23.5081 32.6265 23.6026C32.6777 23.6971 32.7017 23.8038 32.6961 23.9111C32.6904 24.0184 32.6552 24.1221 32.5943 24.2107L24.4277 38.1757C24.3903 38.2444 24.3395 38.305 24.2784 38.3538C24.2173 38.4027 24.1471 38.4389 24.0718 38.4603C23.9965 38.4816 23.9177 38.4878 23.8401 38.4783C23.7624 38.4688 23.6874 38.444 23.6195 38.4051C23.5515 38.3663 23.492 38.3143 23.4444 38.2522C23.3968 38.1901 23.3621 38.1191 23.3423 38.0434C23.3225 37.9677 23.318 37.8888 23.3291 37.8114C23.3402 37.7339 23.3666 37.6594 23.4068 37.5923L31.5735 23.6273C31.6404 23.4914 31.7575 23.3868 31.9002 23.3357C31.9474 23.3177 31.9969 23.3059 32.0472 23.3007C32.0646 23.2987 32.0821 23.2975 32.0997 23.2972ZM21.5833 25.6713C21.7327 25.6713 21.8703 25.739 21.9847 25.8533C22.0389 25.9052 22.082 25.9675 22.1115 26.0364C22.141 26.1054 22.1562 26.1797 22.1562 26.2547C22.1562 26.3297 22.141 26.4039 22.1115 26.4729C22.082 26.5419 22.0389 26.6042 21.9847 26.656L17.7182 30.9213L21.9847 35.1867C22.0389 35.2385 22.082 35.3008 22.1115 35.3698C22.141 35.4388 22.1562 35.513 22.1562 35.588C22.1562 35.663 22.141 35.7372 22.1115 35.8062C22.082 35.8752 22.0389 35.9375 21.9847 35.9893C21.9328 36.0435 21.8705 36.0867 21.8016 36.1162C21.7326 36.1456 21.6583 36.1608 21.5833 36.1608C21.5083 36.1608 21.4341 36.1456 21.3651 36.1162C21.2961 36.0867 21.2338 36.0435 21.182 35.9893L16.6985 31.4685C16.6285 31.4393 16.5725 31.3798 16.5153 31.3227C16.4611 31.2708 16.418 31.2085 16.3885 31.1396C16.359 31.0706 16.3438 30.9963 16.3438 30.9213C16.3438 30.8463 16.359 30.7721 16.3885 30.7031C16.418 30.6341 16.4611 30.5718 16.5153 30.52C16.5737 30.4628 16.6273 30.4033 16.6973 30.3742L21.182 25.8533C21.2335 25.798 21.2955 25.7533 21.3644 25.7221C21.4333 25.6909 21.5077 25.6736 21.5833 25.6713ZM34.4167 25.6713C34.566 25.6713 34.7037 25.739 34.818 25.8533L39.3015 30.3742C39.3715 30.4033 39.4275 30.4628 39.4847 30.52C39.5389 30.5718 39.582 30.6341 39.6115 30.7031C39.641 30.7721 39.6562 30.8463 39.6562 30.9213C39.6562 30.9963 39.641 31.0706 39.6115 31.1396C39.582 31.2085 39.5389 31.2708 39.4847 31.3227C39.4263 31.3798 39.3727 31.4393 39.3015 31.4685L34.818 35.9893C34.7662 36.0435 34.7039 36.0867 34.6349 36.1162C34.5659 36.1456 34.4917 36.1608 34.4167 36.1608C34.3417 36.1608 34.2674 36.1456 34.1984 36.1162C34.1295 36.0867 34.0672 36.0435 34.0153 35.9893C33.9611 35.9375 33.918 35.8752 33.8885 35.8062C33.859 35.7372 33.8438 35.663 33.8438 35.588C33.8438 35.513 33.859 35.4388 33.8885 35.3698C33.918 35.3008 33.9611 35.2385 34.0153 35.1867L38.2818 30.9213L34.0153 26.656C33.9611 26.6042 33.918 26.5419 33.8885 26.4729C33.859 26.4039 33.8438 26.3297 33.8438 26.2547C33.8438 26.1797 33.859 26.1054 33.8885 26.0364C33.918 25.9675 33.9611 25.9052 34.0153 25.8533C34.0669 25.798 34.1289 25.7533 34.1978 25.7221C34.2666 25.6909 34.3411 25.6736 34.4167 25.6713Z" fill="#479FDE"/>
</svg>
