<svg width="56" height="56" viewBox="0 0 56 56" fill="none" xmlns="http://www.w3.org/2000/svg">
<path fill-rule="evenodd" clip-rule="evenodd" d="M28 0C20.5739 0 13.452 2.94999 8.20101 8.20101C2.94999 13.452 0 20.5739 0 28C0 35.4261 2.94999 42.548 8.20101 47.799C13.452 53.05 20.5739 56 28 56C35.4261 56 42.548 53.05 47.799 47.799C53.05 42.548 56 35.4261 56 28C56 20.5739 53.05 13.452 47.799 8.20101C42.548 2.94999 35.4261 0 28 0V0ZM24.8208 10.4977C24.8599 10.4961 24.8989 10.4984 24.9375 10.5047H31.0625C31.2172 10.5047 31.3656 10.5661 31.475 10.6755C31.5844 10.7849 31.6458 10.9333 31.6458 11.088V14.1143C32.9035 14.4445 34.0958 14.9543 35.2193 15.6077L37.3695 13.4575C37.4239 13.4012 37.4891 13.3565 37.5611 13.3259C37.6332 13.2953 37.7106 13.2796 37.7889 13.2796C37.8672 13.2796 37.9447 13.2953 38.0167 13.3259C38.0888 13.3565 38.1539 13.4012 38.2083 13.4575L42.5472 17.7963C42.6496 17.9046 42.7066 18.048 42.7066 18.1971C42.7066 18.3461 42.6496 18.4895 42.5472 18.5978L40.3958 20.7853C41.0364 21.8947 41.5268 23.0842 41.8542 24.3227H44.9167C45.0714 24.3227 45.2197 24.3841 45.3291 24.4935C45.4385 24.6029 45.5 24.7513 45.5 24.906V31.066C45.5 31.2207 45.4385 31.3691 45.3291 31.4785C45.2197 31.5879 45.0714 31.6493 44.9167 31.6493H41.8542C41.524 32.907 41.0492 34.1005 40.3958 35.2228L42.5472 37.3742C42.6499 37.4825 42.7072 37.6262 42.7072 37.7755C42.7072 37.9248 42.6499 38.0685 42.5472 38.1768L38.2083 42.5518C38.1539 42.6081 38.0888 42.6529 38.0167 42.6834C37.9447 42.714 37.8672 42.7297 37.7889 42.7297C37.7106 42.7297 37.6332 42.714 37.5611 42.6834C37.4891 42.6529 37.4239 42.6081 37.3695 42.5518L35.2193 40.3643C34.0935 41.0153 32.9047 41.531 31.6458 41.8577V44.9213C31.6458 45.076 31.5844 45.2244 31.475 45.3338C31.3656 45.4432 31.2172 45.5047 31.0625 45.5047H24.9375C24.7828 45.5047 24.6344 45.4432 24.525 45.3338C24.4156 45.2244 24.3542 45.076 24.3542 44.9213V41.8588C23.101 41.5243 21.8989 41.0216 20.7807 40.3643L18.6305 42.5518C18.5761 42.6081 18.5109 42.6529 18.4389 42.6834C18.3668 42.714 18.2894 42.7297 18.2111 42.7297C18.1328 42.7297 18.0553 42.714 17.9833 42.6834C17.9112 42.6529 17.8461 42.6081 17.7917 42.5518L13.4528 38.1768C13.3501 38.0685 13.2928 37.9248 13.2928 37.7755C13.2928 37.6262 13.3501 37.4825 13.4528 37.3742L15.6042 35.1867C14.9637 34.0777 14.4733 32.8886 14.1458 31.6505H11.0833C10.9286 31.6505 10.7802 31.589 10.6709 31.4796C10.5615 31.3702 10.5 31.2219 10.5 31.0672V24.906C10.5 24.7513 10.5615 24.6029 10.6709 24.4935C10.7802 24.3841 10.9286 24.3227 11.0833 24.3227H14.1458C14.4702 23.0717 14.9607 21.8699 15.6042 20.7492L13.4528 18.5978C13.3504 18.4895 13.2934 18.3461 13.2934 18.1971C13.2934 18.048 13.3504 17.9046 13.4528 17.7963L17.7917 13.4575C17.8461 13.4012 17.9112 13.3565 17.9833 13.3259C18.0553 13.2953 18.1328 13.2796 18.2111 13.2796C18.2894 13.2796 18.3668 13.2953 18.4389 13.3259C18.5109 13.3565 18.5761 13.4012 18.6305 13.4575L20.7818 15.6088C21.8996 14.9516 23.1013 14.4488 24.3542 14.1143V11.088C24.3478 10.9602 24.3837 10.8339 24.4562 10.7285C24.5287 10.6231 24.6339 10.5444 24.7555 10.5047C24.7771 10.5011 24.7989 10.4988 24.8208 10.4977ZM25.5208 11.6713V14.5122C25.5233 14.6496 25.4771 14.7835 25.3904 14.8903C25.3038 14.997 25.1822 15.0697 25.0472 15.0955C23.5958 15.4222 22.1888 15.9868 20.9265 16.7732C20.8186 16.8368 20.693 16.8641 20.5684 16.8508C20.4438 16.8376 20.3268 16.7846 20.2347 16.6997L18.2292 14.658L14.693 18.1953L16.6985 20.1997C16.7921 20.2946 16.8503 20.4188 16.8634 20.5515C16.8766 20.6841 16.8439 20.8173 16.7708 20.9288C15.9849 22.1988 15.4178 23.5917 15.0932 25.0495C15.0601 25.1778 14.9843 25.2911 14.8783 25.3706C14.7723 25.4501 14.6423 25.4912 14.5098 25.487H11.6667V30.4815H14.511C14.6435 30.4773 14.7734 30.5184 14.8794 30.5979C14.9855 30.6774 15.0613 30.7907 15.0943 30.919C15.4186 32.3763 15.9853 33.7689 16.7708 35.0385C16.8438 35.1501 16.8763 35.2834 16.8629 35.4161C16.8495 35.5487 16.7911 35.6728 16.6973 35.7677L14.693 37.7732L18.2292 41.2732L20.2347 39.2677C20.3299 39.1745 20.4542 39.1167 20.5869 39.1039C20.7196 39.0912 20.8526 39.1243 20.9638 39.1977C22.219 39.994 23.5995 40.573 25.0472 40.9103C25.1764 40.9349 25.2935 41.0025 25.3795 41.102C25.4654 41.2016 25.5153 41.3272 25.5208 41.4587V44.338H30.4792V41.4575C30.485 41.3263 30.5349 41.2009 30.6209 41.1016C30.7069 41.0023 30.8238 40.9349 30.9528 40.9103C32.4042 40.5837 33.8112 39.984 35.0735 39.1977C35.185 39.1384 35.3128 39.117 35.4375 39.1366C35.5623 39.1561 35.6773 39.2156 35.7653 39.3062L37.7708 41.3128L41.307 37.7755L39.3027 35.77C39.2089 35.6752 39.1505 35.5511 39.1371 35.4184C39.1237 35.2857 39.1562 35.1525 39.2292 35.0408C40.015 33.7712 40.5821 32.3787 40.9068 30.9213C40.9399 30.793 41.0157 30.6797 41.1217 30.6002C41.2277 30.5207 41.3577 30.4796 41.4902 30.4838H44.3333V25.4893H41.489C41.3565 25.4935 41.2266 25.4525 41.1206 25.373C41.0145 25.2934 40.9387 25.1802 40.9057 25.0518C40.5815 23.5941 40.0148 22.2012 39.2292 20.9312C39.1562 20.8195 39.1237 20.6863 39.1371 20.5536C39.1505 20.4209 39.2089 20.2968 39.3027 20.202L41.307 18.1977L37.7708 14.6603L35.7653 16.702C35.6705 16.7957 35.5464 16.8542 35.4137 16.8675C35.2811 16.8809 35.1478 16.8484 35.0362 16.7755C33.781 15.9788 32.4006 15.3994 30.9528 15.0617C30.8238 15.0371 30.7069 14.9697 30.6209 14.8704C30.5349 14.7711 30.485 14.6457 30.4792 14.5145V11.6713H25.5208ZM27.9358 18.6503C28.033 18.6448 28.1301 18.6636 28.2182 18.7052C30.0615 19.4122 32.6025 20.7468 36.1667 20.7468C36.3214 20.7468 36.4697 20.8083 36.5791 20.9177C36.6885 21.0271 36.75 21.1755 36.75 21.3302C36.75 31.2678 32.4532 35.9018 28.2917 38.3927C28.203 38.4439 28.1024 38.4708 28 38.4708C27.8976 38.4708 27.797 38.4439 27.7083 38.3927C23.5013 35.875 19.25 31.2935 19.25 21.3302C19.25 21.1755 19.3115 21.0271 19.4209 20.9177C19.5302 20.8083 19.6786 20.7468 19.8333 20.7468C22.5202 20.7468 25.7145 19.4705 27.7818 18.7052C27.793 18.693 27.8047 18.6813 27.8168 18.6702C27.8557 18.6595 27.8956 18.6528 27.9358 18.6503ZM28 19.8753C26.1053 20.5835 23.2307 21.6463 20.4528 21.8062C20.5928 30.821 24.2013 34.832 28 37.1922C31.7532 34.8565 35.4048 30.793 35.5472 21.8062C32.1685 21.6487 29.61 20.5135 28 19.8742V19.8753ZM30.0055 26.1812L30.807 27.0562L27.5987 30.0825L27.1985 30.4477L26.7972 30.0825L25.193 28.5518L25.9945 27.7118L27.1985 28.8785L30.0055 26.1812Z" fill="#479FDE"/>
</svg>
