<svg width="56" height="56" viewBox="0 0 56 56" fill="none" xmlns="http://www.w3.org/2000/svg">
<path d="M28 0C20.5739 0 13.452 2.94999 8.20101 8.20101C2.94999 13.452 0 20.5739 0 28C0 35.4261 2.94999 42.548 8.20101 47.799C13.452 53.05 20.5739 56 28 56C35.4261 56 42.548 53.05 47.799 47.799C53.05 42.548 56 35.4261 56 28C56 20.5739 53.05 13.452 47.799 8.20101C42.548 2.94999 35.4261 0 28 0V0ZM14.4013 14H41.4167C41.7223 14 42 14.2777 42 14.5833V23.4068H44.1152C44.1152 23.4068 45.5 23.3368 46.0098 23.3718C47.0283 23.3718 47.8333 24.248 47.8333 25.2677V26.1065C47.8333 27.1262 47.0283 28.0023 46.0098 28.0023H42V41.419C41.9942 41.5719 41.9309 41.7169 41.8227 41.8251C41.7146 41.9332 41.5695 41.9966 41.4167 42.0023H14.5833C14.4305 41.9966 14.2854 41.9332 14.1773 41.8251C14.0691 41.7169 14.0058 41.5719 14 41.419V14.5857C13.9965 14.4585 14.0335 14.3334 14.1056 14.2286C14.1777 14.1238 14.2813 14.0445 14.4013 14.0023V14ZM15.1667 15.169V18.669H40.8333V15.169H15.1667ZM16.9167 16.3357C17.0714 16.3357 17.2197 16.3971 17.3291 16.5065C17.4385 16.6159 17.5 16.7643 17.5 16.919C17.5 17.0737 17.4385 17.2221 17.3291 17.3315C17.2197 17.4409 17.0714 17.5023 16.9167 17.5023C16.762 17.5023 16.6136 17.4409 16.5042 17.3315C16.3948 17.2221 16.3333 17.0737 16.3333 16.919C16.3333 16.7643 16.3948 16.6159 16.5042 16.5065C16.6136 16.3971 16.762 16.3357 16.9167 16.3357ZM19.25 16.3357C19.4047 16.3357 19.5531 16.3971 19.6625 16.5065C19.7719 16.6159 19.8333 16.7643 19.8333 16.919C19.8333 17.0737 19.7719 17.2221 19.6625 17.3315C19.5531 17.4409 19.4047 17.5023 19.25 17.5023C19.0953 17.5023 18.9469 17.4409 18.8375 17.3315C18.7281 17.2221 18.6667 17.0737 18.6667 16.919C18.6667 16.7643 18.7281 16.6159 18.8375 16.5065C18.9469 16.3971 19.0953 16.3357 19.25 16.3357ZM21.5833 16.3357C21.738 16.3357 21.8864 16.3971 21.9958 16.5065C22.1052 16.6159 22.1667 16.7643 22.1667 16.919C22.1667 17.0737 22.1052 17.2221 21.9958 17.3315C21.8864 17.4409 21.738 17.5023 21.5833 17.5023C21.4286 17.5023 21.2802 17.4409 21.1709 17.3315C21.0615 17.2221 21 17.0737 21 16.919C21 16.7643 21.0615 16.6159 21.1709 16.5065C21.2802 16.3971 21.4286 16.3357 21.5833 16.3357ZM15.1667 19.8357V40.8333H40.8333V28H30.2237C29.792 28 29.8177 28.0502 29.4945 27.9638L25.9945 26.2138C25.6328 26.0132 25.6328 25.3937 25.9945 25.193L29.4945 23.443C29.7045 23.4313 29.946 23.408 30.2237 23.408H40.8333V19.8357H15.1667ZM44.6985 24.5385V26.8357H46.0098C46.3855 26.8357 46.6667 26.516 46.6667 26.1065V25.2677C46.6667 24.8593 46.3867 24.5385 46.0098 24.5385H44.6973H44.6985ZM30.807 24.5735V26.8333H43.5318V24.5723H30.8058L30.807 24.5735ZM29.6403 24.6458L27.5263 25.7028L29.6403 26.761V24.6458Z" fill="#479FDE"/>
</svg>
