<svg width="18" height="18" viewBox="0 0 18 18" fill="none" xmlns="http://www.w3.org/2000/svg">
<path d="M17.4435 14.7959L11.6507 8.99999L17.4435 3.20404C18.1725 2.47467 18.1725 1.27641 17.4435 0.547033C16.7145 -0.182344 15.5169 -0.182344 14.7879 0.547033L8.99511 6.34298L3.20231 0.547033C2.47332 -0.182344 1.27572 -0.182344 0.546737 0.547033C-0.182246 1.27641 -0.182246 2.47467 0.546737 3.20404L6.33954 8.99999L0.546737 14.7959C-0.182246 15.5253 -0.182246 16.7236 0.546737 17.453C1.27572 18.1823 2.47332 18.1823 3.20231 17.453L8.99511 11.657L14.7879 17.453C15.5169 18.1823 16.7145 18.1823 17.4435 17.453C18.1855 16.7236 18.1855 15.5383 17.4435 14.7959Z" fill="#479FDE"/>
</svg>
