<svg width="16" height="16" viewBox="0 0 16 16" fill="none" xmlns="http://www.w3.org/2000/svg">
<path d="M5.71617 6.23119C5.71617 6.23119 5.71617 6.23119 5.71617 6.23119L5.72433 6.2296C5.7216 6.23013 5.71888 6.23066 5.71617 6.23119ZM6.37411 6.30086L6.37382 6.29984L7.23409 4.57925C7.445 4.15751 7.43418 3.65892 7.20538 3.24675L6.20668 1.44775C5.95476 0.994043 5.47659 0.712505 4.95753 0.712505H2.88674C1.44924 0.712505 0.344814 2.06979 0.827268 3.49965C1.52414 5.56495 2.87891 8.86865 5.0051 10.9948C7.13126 13.121 10.4349 14.4758 12.5003 15.1726C13.9301 15.6551 15.2874 14.5506 15.2874 13.1132V11.042C15.2874 10.5233 15.0063 10.0453 14.5528 9.79327L12.7488 8.79029C12.3365 8.56106 11.8375 8.55013 11.4155 8.76115L9.69387 9.62139C9.56195 9.58331 9.37077 9.52062 9.1454 9.42458C8.69227 9.23148 8.11623 8.91013 7.60298 8.3969C7.08967 7.88359 6.76704 7.30621 6.57263 6.85147C6.47595 6.62533 6.41264 6.43338 6.37411 6.30086Z" fill="#18214D"/>
</svg>
