<svg width="40" height="40" viewBox="0 0 40 40" fill="none" xmlns="http://www.w3.org/2000/svg">
<path fill-rule="evenodd" clip-rule="evenodd" d="M19.2631 2.3235C19.702 2.00333 20.2974 2.00333 20.7364 2.3235L24.7839 5.27596L29.7937 5.26643C30.337 5.26539 30.8188 5.6154 30.9857 6.13242L32.5248 10.9001L36.5834 13.8371C37.0236 14.1556 37.2076 14.7219 37.0387 15.2383L35.4815 20L37.0387 24.7618C37.2076 25.2781 37.0236 25.8445 36.5834 26.163L32.5248 29.1L30.9857 33.8676C30.8188 34.3846 30.337 34.7347 29.7938 34.7336L24.7839 34.7241L20.7364 37.6766C20.2974 37.9967 19.702 37.9967 19.2631 37.6766L15.2156 34.7241L10.2057 34.7336C9.66238 34.7347 9.18064 34.3846 9.01374 33.8676L7.47465 29.1L3.41596 26.163C2.97583 25.8445 2.79182 25.2781 2.96069 24.7618L4.5179 20L2.96069 15.2383C2.79182 14.722 2.97583 14.1556 3.41596 13.8371L7.47465 10.9001L9.01374 6.13242C9.18064 5.6154 9.66239 5.26539 10.2057 5.26643L15.2156 5.27596L19.2631 2.3235ZM19.9997 4.8806L16.3586 7.53661C16.144 7.69314 15.8852 7.77724 15.6196 7.77674L11.1127 7.76816L9.72818 12.0571C9.64659 12.3099 9.4866 12.5301 9.27143 12.6858L5.62027 15.3279L7.02113 19.6115C7.10368 19.864 7.10368 20.1361 7.02113 20.3886L5.62027 24.6722L9.27143 27.3143C9.4866 27.47 9.64659 27.6902 9.72818 27.9429L11.1127 32.2319L15.6196 32.2234C15.8852 32.2229 16.144 32.307 16.3586 32.4635L19.9997 35.1195L23.6408 32.4635C23.8554 32.307 24.1142 32.2229 24.3798 32.2234L28.8867 32.2319L30.2712 27.9429C30.3528 27.6902 30.5128 27.47 30.728 27.3143L34.3791 24.6722L32.9783 20.3886C32.8957 20.1361 32.8957 19.864 32.9783 19.6115L34.3791 15.3279L30.728 12.6858C30.5128 12.5301 30.3528 12.3099 30.2712 12.0571L28.8867 7.76816L24.3798 7.77674C24.1142 7.77724 23.8554 7.69314 23.6408 7.53661L19.9997 4.8806Z" fill="#479FDE"/>
<path fill-rule="evenodd" clip-rule="evenodd" d="M27.5505 14.9495C28.0386 15.4376 28.0386 16.2291 27.5505 16.7173L19.2171 25.0506C18.729 25.5387 17.9375 25.5387 17.4494 25.0506L13.2827 20.8839C12.7945 20.3958 12.7945 19.6043 13.2827 19.1162C13.7709 18.628 14.5623 18.628 15.0505 19.1162L18.3333 22.3989L25.7827 14.9495C26.2709 14.4613 27.0623 14.4613 27.5505 14.9495Z" fill="#479FDE"/>
</svg>
