<svg width="40" height="40" viewBox="0 0 40 40" fill="none" xmlns="http://www.w3.org/2000/svg">
<path fill-rule="evenodd" clip-rule="evenodd" d="M2.08325 20C2.08325 10.1049 10.1048 2.08337 19.9999 2.08337C29.895 2.08337 37.9166 10.1049 37.9166 20C37.9166 29.8951 29.895 37.9167 19.9999 37.9167C10.1048 37.9167 2.08325 29.8951 2.08325 20ZM19.9999 4.58337C11.4855 4.58337 4.58325 11.4856 4.58325 20C4.58325 28.5144 11.4855 35.4167 19.9999 35.4167C28.5143 35.4167 35.4166 28.5144 35.4166 20C35.4166 11.4856 28.5143 4.58337 19.9999 4.58337Z" fill="#479FDE"/>
<path fill-rule="evenodd" clip-rule="evenodd" d="M20.0067 8.75004C20.6971 8.75011 21.2567 9.30981 21.2566 10.0002L21.2557 19.4897L27.9557 26.1897C28.4438 26.6778 28.4438 27.4693 27.9557 27.9574C27.4675 28.4456 26.6761 28.4456 26.1879 27.9574L19.1217 20.8913C18.8873 20.6568 18.7556 20.3388 18.7556 20.0073L18.7566 9.99992C18.7567 9.30956 19.3164 8.74997 20.0067 8.75004Z" fill="#479FDE"/>
</svg>
