<svg width="30" height="30" viewBox="0 0 30 30" fill="none" xmlns="http://www.w3.org/2000/svg">
<path fill-rule="evenodd" clip-rule="evenodd" d="M0.782865 0.783109C1.27102 0.294953 2.06248 0.294953 2.55063 0.783109L29.2173 27.4498C29.7055 27.9379 29.7055 28.7294 29.2173 29.2175C28.7291 29.7057 27.9377 29.7057 27.4495 29.2175L0.782865 2.55088C0.294709 2.06272 0.294709 1.27126 0.782865 0.783109Z" fill="#18214D"/>
<path fill-rule="evenodd" clip-rule="evenodd" d="M29.2173 0.783109C29.7055 1.27126 29.7055 2.06272 29.2173 2.55088L2.55063 29.2175C2.06248 29.7057 1.27102 29.7057 0.782865 29.2175C0.294709 28.7294 0.294709 27.9379 0.782865 27.4498L27.4495 0.783109C27.9377 0.294953 28.7291 0.294953 29.2173 0.783109Z" fill="#18214D"/>
</svg>
