<svg width="36" height="32" viewBox="0 0 36 32" fill="none" xmlns="http://www.w3.org/2000/svg">
<path d="M1.95092 15.649C2.12802 16.0235 2.57514 16.1834 2.94958 16.0063C3.32402 15.8292 3.484 15.3821 3.30689 15.0077L1.95092 15.649ZM2.20089 14.338L2.8994 14.0649L2.89939 14.0649L2.20089 14.338ZM18 5.02333L17.3774 5.44148C17.5167 5.6489 17.7501 5.77333 18 5.77333C18.2499 5.77333 18.4833 5.6489 18.6226 5.44148L18 5.02333ZM25.5757 25L25.0481 24.467L25.0481 24.467L25.5757 25ZM18 31L17.5869 31.626C17.8375 31.7913 18.1625 31.7913 18.4131 31.626L18 31ZM10.4242 25L10.9519 24.467L10.9519 24.467L10.4242 25ZM9.9523 23.4842C9.65711 23.1936 9.18225 23.1973 8.89167 23.4925C8.60109 23.7877 8.60483 24.2626 8.90002 24.5532L9.9523 23.4842ZM4.14068 20.4432C3.8454 20.7337 3.84153 21.2085 4.13202 21.5038C4.42251 21.7991 4.89737 21.803 5.19264 21.5125L4.14068 20.4432ZM13.9282 11.8663L14.4666 11.3442C14.3275 11.2008 14.1368 11.1187 13.937 11.1164C13.7372 11.114 13.5446 11.1915 13.4022 11.3317L13.9282 11.8663ZM19.3151 17.4216L18.7767 17.9437C18.9175 18.0889 19.1109 18.1711 19.3132 18.1716C19.5155 18.1721 19.7094 18.0909 19.8509 17.9464L19.3151 17.4216ZM27.9207 9.70713C28.2106 9.41121 28.2056 8.93636 27.9097 8.64652C27.6138 8.35669 27.1389 8.36162 26.8491 8.65754L27.9207 9.70713ZM3.30689 15.0077C3.15977 14.6966 3.02348 14.3822 2.8994 14.0649L1.50239 14.6111C1.63976 14.9624 1.78988 15.3085 1.95092 15.649L3.30689 15.0077ZM2.89939 14.0649C2.38644 12.7531 2.08333 11.3934 2.08333 10H0.583328C0.583328 11.6136 0.93462 13.1591 1.5024 14.6111L2.89939 14.0649ZM2.08333 10C2.08333 5.45072 5.81056 1.75 10.4242 1.75V0.25C4.99638 0.25 0.583328 4.60811 0.583328 10H2.08333ZM10.4242 1.75C13.3281 1.75 15.8833 3.21679 17.3774 5.44148L18.6226 4.60519C16.8594 1.97974 13.8446 0.25 10.4242 0.25V1.75ZM18.6226 5.44148C20.1167 3.21679 22.6719 1.75 25.5757 1.75V0.25C22.1554 0.25 19.1406 1.97974 17.3774 4.60519L18.6226 5.44148ZM25.5757 1.75C30.1894 1.75 33.9167 5.45072 33.9167 10H35.4167C35.4167 4.60811 31.0036 0.25 25.5757 0.25V1.75ZM33.9167 10C33.9167 13.0032 32.5069 15.8457 30.6541 18.3561C28.8031 20.8641 26.5819 22.9485 25.0481 24.467L26.1034 25.533C27.5999 24.0515 29.9241 21.8712 31.861 19.2468C33.7961 16.6249 35.4167 13.4674 35.4167 10H33.9167ZM25.0481 24.467C23.071 26.4243 20.5868 28.3941 17.5869 30.374L18.4131 31.626C21.4739 29.6059 24.0401 27.5757 26.1034 25.533L25.0481 24.467ZM18.4131 30.374C15.4132 28.3941 12.929 26.4243 10.9519 24.467L9.89658 25.533C11.9598 27.5757 14.5261 29.6059 17.5869 31.626L18.4131 30.374ZM10.9519 24.467C10.6464 24.1646 10.3058 23.8321 9.9523 23.4842L8.90002 24.5532C9.26103 24.9085 9.59194 25.2314 9.89662 25.533L10.9519 24.467ZM5.19264 21.5125L14.4541 12.401L13.4022 11.3317L4.14068 20.4432L5.19264 21.5125ZM13.3897 12.3884L18.7767 17.9437L19.8535 16.8995L14.4666 11.3442L13.3897 12.3884ZM19.8509 17.9464L27.9207 9.70713L26.8491 8.65754L18.7793 16.8968L19.8509 17.9464Z" fill="#479FDE"/>
</svg>
