<svg width="37" height="34" viewBox="0 0 37 34" fill="none" xmlns="http://www.w3.org/2000/svg">
<path d="M18.3205 6.20298C18.6296 6.47875 19.1037 6.45176 19.3795 6.1427C19.6553 5.83363 19.6283 5.35953 19.3192 5.08375L18.3205 6.20298ZM5.8817 2.56643L5.50671 1.91691L5.5067 1.91691L5.8817 2.56643ZM4.83309 22.4169L4.18357 22.7919L4.18357 22.7919L4.83309 22.4169ZM16.3319 32.8893C16.7356 32.9821 17.1381 32.7301 17.2309 32.3264C17.3237 31.9228 17.0717 31.5203 16.668 31.4274L16.3319 32.8893ZM14.215 11.5835L14.8646 11.9585L14.8646 11.9585L14.215 11.5835ZM15.2636 31.434L14.8886 32.0835L14.8886 32.0835L15.2636 31.434ZM32.979 22.4169L33.6285 22.7919L33.6285 22.7919L32.979 22.4169ZM31.9303 2.56643L31.5553 3.21595L31.5553 3.21595L31.9303 2.56643ZM19.3192 5.08375C14.9616 1.19551 9.57826 -0.433767 5.50671 1.91691L6.2567 3.21595C9.49632 1.34558 14.1615 2.49195 18.3205 6.20298L19.3192 5.08375ZM5.5067 1.91691C2.62345 3.58155 1.13751 6.8359 0.939488 10.5846C0.741015 14.3417 1.82056 18.699 4.18357 22.7919L5.48261 22.0419C3.24325 18.1632 2.25635 14.091 2.4374 10.6637C2.6189 7.22791 3.95845 4.54283 6.2567 3.21595L5.5067 1.91691ZM4.18357 22.7919C7.2834 28.1609 11.9006 31.8703 16.3319 32.8893L16.668 31.4274C12.7469 30.5258 8.43452 27.1547 5.48261 22.0419L4.18357 22.7919ZM13.5655 11.2085C11.2025 15.3014 10.123 19.6586 10.3214 23.4158C10.5195 27.1644 12.0054 30.4188 14.8886 32.0835L15.6386 30.7844C13.3404 29.4575 12.0008 26.7724 11.8194 23.3367C11.6383 19.9093 12.6252 15.8372 14.8646 11.9585L13.5655 11.2085ZM14.8886 32.0835C17.7719 33.7481 21.3332 33.4078 24.6787 31.7049C28.0317 29.9982 31.2654 26.8847 33.6285 22.7919L32.3294 22.0419C30.0901 25.9205 27.0569 28.8113 23.9982 30.3681C20.932 31.9288 17.9369 32.1113 15.6386 30.7844L14.8886 32.0835ZM33.6285 22.7919C35.9915 18.699 37.071 14.3417 36.8725 10.5846C36.6745 6.8359 35.1885 3.58155 32.3053 1.91691L31.5553 3.21595C33.8535 4.54284 35.1931 7.22791 35.3746 10.6637C35.5557 14.091 34.5688 18.1632 32.3294 22.0419L33.6285 22.7919ZM32.3053 1.91691C29.422 0.252266 25.8607 0.592588 22.5153 2.29543C19.1623 4.00212 15.9285 7.11567 13.5655 11.2085L14.8646 11.9585C17.1039 8.07985 20.137 5.18908 23.1957 3.63222C26.2619 2.07151 29.257 1.88906 31.5553 3.21595L32.3053 1.91691Z" fill="#479FDE"/>
</svg>
