<svg width="32" height="36" viewBox="0 0 32 36" fill="none" xmlns="http://www.w3.org/2000/svg">
<path fill-rule="evenodd" clip-rule="evenodd" d="M15.3669 0.255582C15.7581 0.0254832 16.2432 0.0254832 16.6344 0.255582L30.8011 8.58867C31.1829 8.81325 31.4173 9.22313 31.4173 9.66609V26.3328C31.4173 26.7758 31.1829 27.1857 30.8011 27.4103L16.6344 35.7438C16.2432 35.9739 15.7581 35.9739 15.3669 35.7438L1.2002 27.4103C0.818407 27.1857 0.583984 26.7758 0.583984 26.3328V9.66609C0.583984 9.22313 0.818417 8.81325 1.20022 8.58867L15.3669 0.255582ZM3.08398 10.381V25.6179L16.0007 33.2161L28.9173 25.6179V10.381L16.0007 2.78322L3.08398 10.381Z" fill="#479FDE"/>
<path fill-rule="evenodd" clip-rule="evenodd" d="M16.0007 15.083C16.691 15.083 17.2507 15.6427 17.2507 16.333V22.9997C17.2507 23.69 16.691 24.2497 16.0007 24.2497C15.3103 24.2497 14.7507 23.69 14.7507 22.9997V16.333C14.7507 15.6427 15.3103 15.083 16.0007 15.083Z" fill="#479FDE"/>
<path fill-rule="evenodd" clip-rule="evenodd" d="M22.6673 11.7497C23.3577 11.7497 23.9173 12.3093 23.9173 12.9997V22.9997C23.9173 23.69 23.3577 24.2497 22.6673 24.2497C21.977 24.2497 21.4173 23.69 21.4173 22.9997V12.9997C21.4173 12.3093 21.977 11.7497 22.6673 11.7497Z" fill="#479FDE"/>
<path fill-rule="evenodd" clip-rule="evenodd" d="M9.33398 18.4163C10.0243 18.4163 10.584 18.976 10.584 19.6663V22.9997C10.584 23.69 10.0243 24.2497 9.33398 24.2497C8.64363 24.2497 8.08398 23.69 8.08398 22.9997V19.6663C8.08398 18.976 8.64363 18.4163 9.33398 18.4163Z" fill="#479FDE"/>
</svg>
