<svg width="166" height="287" viewBox="0 0 166 287" fill="none" xmlns="http://www.w3.org/2000/svg">
<path d="M161.415 160.824C168.372 139.407 168.782 112.183 149.707 93.5566C130.517 74.8178 92.9455 83.3398 68.0975 69.6991C38.1249 53.2452 27.152 17.2129 -6.46523 7.82359C-42.3059 -2.18674 -93.7317 -4.65164 -111.315 19.5892C-131.06 46.8103 -118.277 69.5353 -118.651 102.544C-118.887 123.461 -167.722 175.953 -170.297 196.556C-173.927 225.59 -129.417 235.839 -103.345 259.123C-77.8443 281.898 -33.5967 271.23 2.50876 275.036C34.4023 278.398 72.6324 295.208 96.1649 280.154C121.062 264.226 100.936 227.487 113.903 203.772C123.825 185.627 155.102 180.257 161.415 160.824Z" fill="#F2FAFF"/>
</svg>
