<svg width="36" height="32" viewBox="0 0 36 32" fill="none" xmlns="http://www.w3.org/2000/svg">
<path fill-rule="evenodd" clip-rule="evenodd" d="M3.00001 6.58333C2.76989 6.58333 2.58334 6.76988 2.58334 7V28.6667C2.58334 28.8968 2.76989 29.0833 3.00001 29.0833H33C33.2301 29.0833 33.4167 28.8968 33.4167 28.6667V7C33.4167 6.76988 33.2301 6.58333 33 6.58333H3.00001ZM0.0833435 7C0.0833435 5.38917 1.38918 4.08333 3.00001 4.08333H33C34.6108 4.08333 35.9167 5.38917 35.9167 7V28.6667C35.9167 30.2775 34.6108 31.5833 33 31.5833H3.00001C1.38918 31.5833 0.0833435 30.2775 0.0833435 28.6667V7Z" fill="#479FDE"/>
<path fill-rule="evenodd" clip-rule="evenodd" d="M9.66668 0.75C10.357 0.75 10.9167 1.30964 10.9167 2V8.66667C10.9167 9.35702 10.357 9.91667 9.66668 9.91667C8.97632 9.91667 8.41668 9.35702 8.41668 8.66667V2C8.41668 1.30964 8.97632 0.75 9.66668 0.75Z" fill="#479FDE"/>
<path fill-rule="evenodd" clip-rule="evenodd" d="M8.41668 16.1667C8.41668 15.4763 8.97632 14.9167 9.66668 14.9167H18.8333C19.5237 14.9167 20.0833 15.4763 20.0833 16.1667C20.0833 16.857 19.5237 17.4167 18.8333 17.4167H9.66668C8.97632 17.4167 8.41668 16.857 8.41668 16.1667Z" fill="#479FDE"/>
<path fill-rule="evenodd" clip-rule="evenodd" d="M8.41668 22.8333C8.41668 22.143 8.97632 21.5833 9.66668 21.5833H26.3333C27.0237 21.5833 27.5833 22.143 27.5833 22.8333C27.5833 23.5237 27.0237 24.0833 26.3333 24.0833H9.66668C8.97632 24.0833 8.41668 23.5237 8.41668 22.8333Z" fill="#479FDE"/>
<path fill-rule="evenodd" clip-rule="evenodd" d="M26.3333 0.75C27.0237 0.75 27.5833 1.30964 27.5833 2V8.66667C27.5833 9.35702 27.0237 9.91667 26.3333 9.91667C25.643 9.91667 25.0833 9.35702 25.0833 8.66667V2C25.0833 1.30964 25.643 0.75 26.3333 0.75Z" fill="#479FDE"/>
</svg>
