<svg width="198" height="161" viewBox="0 0 198 161" fill="none" xmlns="http://www.w3.org/2000/svg">
<path d="M45.5997 106.073C46.4392 103.585 45.2695 101.187 42.7819 100.347C40.2943 99.5075 37.8956 100.677 37.0561 103.165C36.2166 105.652 37.4085 108.059 39.8739 108.891C42.3318 109.745 44.7455 108.531 45.5997 106.073Z" fill="#BD00FF"/>
<path d="M59.9846 63.4516C60.8463 60.9715 59.7063 58.5581 57.2337 57.6742C54.7314 56.805 52.318 57.9449 51.4638 60.4028C50.602 62.8829 51.7345 65.3186 54.1924 66.1728C56.665 67.0567 59.1156 65.8798 59.9846 63.4516Z" fill="#BD00FF"/>
<path d="M65.8265 17.847C65.0167 20.3199 66.2308 22.7336 68.7259 23.5509C71.1987 24.3607 73.6199 23.1243 74.4297 20.6515C75.247 18.1564 74.0179 15.7871 71.5228 14.9698C69.0353 14.1303 66.6438 15.3519 65.8265 17.847Z" fill="#BD00FF"/>
<path d="M74.1563 91.9101C74.9736 89.4151 73.7742 87.0311 71.2791 86.2138C68.7916 85.3743 66.4076 86.5737 65.5681 89.0613C64.7286 91.5488 65.9502 93.9403 68.4378 94.7798C70.9106 95.5896 73.3243 94.3755 74.1563 91.9101Z" fill="#BD00FF"/>
<path d="M82.5186 51.9567C84.9834 52.9369 87.4854 51.901 88.4579 49.5326C89.4307 47.0899 88.4023 44.5657 86.0263 43.6155C83.5615 42.6352 81.067 43.6489 80.1167 46.0249C79.1068 48.5044 80.1426 51.0064 82.5186 51.9567Z" fill="#BD00FF"/>
<path d="M94.4469 3.48391C93.5408 5.949 94.6139 8.41406 97.0568 9.31271C99.5219 10.2188 101.994 9.12355 102.908 6.71037C103.814 4.24527 102.719 1.77272 100.298 0.881569C97.7884 -0.0395618 95.3456 1.04102 94.4469 3.48391Z" fill="#BD00FF"/>
<path d="M102.695 77.7908C103.535 75.3032 102.358 72.9267 99.8775 72.065C97.3899 71.2255 94.9912 72.3952 94.1517 74.8828C93.3122 77.3704 94.5041 79.7766 96.9695 80.6086C99.4349 81.4406 101.863 80.2562 102.695 77.7908Z" fill="#BD00FF"/>
<path d="M108.5 32.2978C107.712 34.7781 108.956 37.1771 111.459 37.9722C113.939 38.7598 116.338 37.5159 117.133 35.0134C117.921 32.533 116.692 30.1637 114.167 29.3612C111.672 28.5439 109.302 29.773 108.5 32.2978Z" fill="#BD00FF"/>
<path d="M131.191 63.806C132.097 61.3409 131.002 58.8683 128.581 57.9772C126.094 57.0636 123.651 58.1441 122.76 60.5648C121.853 63.0299 122.949 65.5025 125.362 66.4158C127.797 67.3367 130.277 66.2192 131.191 63.806Z" fill="#BD00FF"/>
<path d="M137.114 17.9567C136.23 20.4293 137.355 22.8872 139.806 23.7636C142.278 24.6475 144.744 23.5003 145.612 21.0722C146.496 18.5996 145.364 16.1639 142.914 15.2875C140.426 14.3739 137.991 15.5064 137.114 17.9567Z" fill="#BD00FF"/>
<path d="M151.195 46.6815C150.408 49.1619 151.629 51.5534 154.132 52.3485C156.612 53.1361 159.011 51.8922 159.799 49.4119C160.586 46.9315 159.357 44.5622 156.862 43.7449C154.382 42.9573 151.99 44.179 151.195 46.6815Z" fill="#BD00FF"/>
<path d="M-5.36652 17.4483C-6.22824 19.9284 -5.08824 22.3419 -2.63786 23.2183C-0.15777 24.08 2.27786 22.9475 3.13208 20.4896C3.9938 18.0095 2.85381 15.5961 0.381213 14.7122C-2.07667 13.858 -4.49009 14.998 -5.36652 17.4483Z" fill="#BD00FF"/>
<path d="M2.89578 91.7107C3.7575 89.2306 2.58779 86.8319 0.107702 85.9702C-2.37239 85.1085 -4.7933 86.2707 -5.64753 88.7286C-6.50925 91.2087 -5.32483 93.6371 -2.86695 94.4913C-0.401574 95.3233 2.04905 94.1464 2.89578 91.7107Z" fill="#BD00FF"/>
<path d="M17.302 49.0227C18.1637 46.5426 16.994 44.1439 14.514 43.2822C12.0339 42.4205 9.61294 43.5827 8.75872 46.0406C7.897 48.5207 9.08142 50.9491 11.5393 51.8033C14.0047 52.6353 16.4553 51.4584 17.302 49.0227Z" fill="#BD00FF"/>
<path d="M23.2122 3.21901C22.3061 5.68411 23.4014 8.15667 25.8146 9.07002C28.2797 9.97616 30.7522 8.88087 31.6656 6.46769C32.5939 4.01008 31.4764 1.53003 29.0557 0.638883C26.5537 -0.304458 24.1331 0.783615 23.2122 3.21901Z" fill="#BD00FF"/>
<path d="M17.0455 120.237C17.9072 117.757 16.7153 115.35 14.2574 114.496C11.7773 113.634 9.35643 114.797 8.52441 117.262C7.6627 119.742 8.84711 122.171 11.305 123.025C13.7407 123.872 16.1913 122.695 17.0455 120.237Z" fill="#BD00FF"/>
<path d="M31.4063 77.6812C32.3346 75.2236 31.2171 72.7435 28.7964 71.8524C26.3091 70.9387 23.8663 72.0193 22.9529 74.4325C22.0468 76.8976 23.1421 79.3701 25.5553 80.2835C28.0129 81.2118 30.4929 80.0943 31.4063 77.6812Z" fill="#BD00FF"/>
<path d="M37.3151 31.8771C36.4534 34.3571 37.6081 36.8003 40.066 37.6545C42.5461 38.5162 44.9892 37.3615 45.8434 34.9036C46.7051 32.4235 45.5429 30.0026 43.0851 29.1484C40.5903 28.257 38.1768 29.397 37.3151 31.8771Z" fill="#BD00FF"/>
</svg>
