<svg width="48" height="113" viewBox="0 0 48 113" fill="none" xmlns="http://www.w3.org/2000/svg">
<path d="M9.43218 36.2045L26.1271 15.3332C23.0042 17.6095 20.1612 20.2335 17.6471 23.1311L15.1772 26.2189C12.9026 29.308 10.967 32.6579 9.43218 36.2045Z" fill="#00D1FF"/>
<path d="M5.488 51.7548L40.4303 8.07133C39.3654 8.40789 38.3282 8.7873 37.2935 9.18939L5.8898 48.449C5.72477 49.5467 5.58245 50.6419 5.488 51.7548Z" fill="#00D1FF"/>
<path d="M5.60121 61.8583C5.61255 61.9604 5.62516 62.0738 5.63651 62.1759L50.6313 5.93815C50.5292 5.9495 50.4158 5.96211 50.3137 5.97346C49.5765 6.05542 48.853 6.15881 48.141 6.26094L5.4158 59.6742C5.46247 60.4039 5.5205 61.1324 5.60121 61.8583Z" fill="#00D1FF"/>
<path d="M7.3697 70.6406L59.2589 5.77083C58.5418 5.72425 57.8147 5.69027 57.1013 5.67771L6.80496 68.5562C6.97388 69.2493 7.16675 69.9513 7.3697 70.6406Z" fill="#00D1FF"/>
<path d="M10.0994 77.836L66.8781 6.85354C66.2417 6.70612 65.5964 6.58266 64.9524 6.47053L9.30278 76.0414C9.56496 76.6438 9.82712 77.2462 10.0994 77.836Z" fill="#00D1FF"/>
<path d="M13.6063 84.0711L73.7422 8.89178C73.1675 8.68008 72.5814 8.46966 71.9966 8.27057L12.6169 82.5047C12.9395 83.0315 13.2622 83.5582 13.6063 84.0711Z" fill="#00D1FF"/>
<path d="M17.7474 89.5133L79.96 11.7377C79.4344 11.4516 78.9102 11.1769 78.3758 10.9148L16.5967 88.1485C16.9697 88.6123 17.3529 89.0634 17.7474 89.5133Z" fill="#00D1FF"/>
<path d="M22.4535 94.2489L85.6036 15.3011C85.1298 14.9634 84.6559 14.6256 84.1719 14.3005L21.1628 93.0719C21.5851 93.4613 22.0199 93.8607 22.4535 94.2489Z" fill="#00D1FF"/>
<path d="M27.7151 98.292L90.7141 19.5332C90.2907 19.1325 89.8558 18.733 89.4223 18.3449L26.2721 97.2927C26.746 97.6304 27.2198 97.9681 27.7151 98.292Z" fill="#00D1FF"/>
<path d="M33.508 101.655L95.267 24.4466C94.8939 23.9829 94.5108 23.5317 94.1163 23.0818L31.925 100.844C32.4493 101.118 32.9736 101.393 33.508 101.655Z" fill="#00D1FF"/>
<path d="M39.8975 104.286L99.2269 30.1147C98.9042 29.5879 98.5815 29.0611 98.2375 28.5482L38.142 103.677C38.728 103.888 39.3128 104.087 39.8975 104.286Z" fill="#00D1FF"/>
<path d="M46.9519 106.086L102.541 36.5904C102.29 35.9868 102.017 35.3856 101.744 34.7958L45.0262 105.703C45.6626 105.85 46.3079 105.974 46.9519 106.086Z" fill="#00D1FF"/>
<path d="M54.8232 106.864L105.029 44.099C104.859 43.3945 104.666 42.6926 104.463 42.0032L52.6543 106.772C53.3714 106.819 54.0985 106.853 54.8232 106.864Z" fill="#00D1FF"/>
</svg>
