<svg width="192" height="225" viewBox="0 0 192 225" fill="none" xmlns="http://www.w3.org/2000/svg">
<path d="M-38.9197 52.3733L-1.32645 4.96228C-8.35818 10.1332 -14.76 16.0941 -20.4211 22.6762L-25.9829 29.6905C-31.1048 36.7076 -35.4635 44.3172 -38.9197 52.3733Z" fill="#00D1FF"/>
<path d="M-47.8028 87.6947L30.8797 -11.5363C28.4819 -10.7717 26.1464 -9.90971 23.8167 -8.99622L-46.8977 80.1857C-47.2694 82.6792 -47.59 85.1669 -47.8028 87.6947Z" fill="#00D1FF"/>
<path d="M-47.55 110.645C-47.5244 110.876 -47.4961 111.134 -47.4705 111.366L53.848 -16.3832C53.6181 -16.3574 53.3627 -16.3288 53.1329 -16.303C51.4728 -16.1167 49.844 -15.8817 48.2407 -15.6497L-47.9672 105.684C-47.8622 107.341 -47.7316 108.996 -47.55 110.645Z" fill="#00D1FF"/>
<path d="M-43.569 130.594L73.2744 -16.7638C71.6597 -16.8696 70.0224 -16.9467 68.4163 -16.9751L-44.8403 125.859C-44.46 127.434 -44.0258 129.028 -43.569 130.594Z" fill="#00D1FF"/>
<path d="M-37.4247 146.937L90.4288 -14.3058C88.9957 -14.6406 87.5428 -14.9209 86.0928 -15.1755L-39.2181 142.861C-38.6278 144.229 -38.0376 145.598 -37.4247 146.937Z" fill="#00D1FF"/>
<path d="M-29.5304 161.101L105.883 -9.67563C104.589 -10.1564 103.269 -10.6343 101.952 -11.0865L-31.758 157.543C-31.0316 158.74 -30.3051 159.936 -29.5304 161.101Z" fill="#00D1FF"/>
<path d="M-20.2067 173.461L119.884 -3.21416C118.7 -3.86385 117.52 -4.48779 116.317 -5.08308L-22.7975 170.361C-21.9575 171.414 -21.0949 172.439 -20.2067 173.461Z" fill="#00D1FF"/>
<path d="M-9.60997 184.217L132.592 4.87944C131.525 4.11237 130.458 3.34529 129.368 2.60684L-12.5158 181.543C-11.5652 182.428 -10.5861 183.335 -9.60997 184.217Z" fill="#00D1FF"/>
<path d="M2.23402 193.4L144.095 14.4925C143.142 13.5822 142.163 12.6749 141.187 11.7933L-1.01507 191.131C0.0519006 191.898 1.11881 192.665 2.23402 193.4Z" fill="#00D1FF"/>
<path d="M15.2784 201.039L154.347 25.6528C153.507 24.5995 152.645 23.5747 151.756 22.5528L11.7143 199.196C12.8947 199.82 14.0752 200.444 15.2784 201.039Z" fill="#00D1FF"/>
<path d="M29.6658 207.014L163.263 38.528C162.536 37.3314 161.81 36.1349 161.035 34.9699L25.713 205.632C27.0325 206.11 28.3491 206.562 29.6658 207.014Z" fill="#00D1FF"/>
<path d="M45.5514 211.101L170.726 53.2361C170.161 51.865 169.546 50.4995 168.933 49.1598L41.2154 210.231C42.6485 210.566 44.1013 210.846 45.5514 211.101Z" fill="#00D1FF"/>
<path d="M63.2758 212.868L176.328 70.2911C175.945 68.6909 175.511 67.0964 175.054 65.5306L58.3922 212.659C60.0069 212.765 61.6441 212.842 63.2758 212.868Z" fill="#00D1FF"/>
<path d="M78.3017 212.199C80.0639 212.002 81.7948 211.755 83.4974 211.486L179.41 90.5249C179.294 88.7643 179.152 87.0066 178.959 85.2547C178.942 85.1001 178.928 84.9713 178.911 84.8167L77.8675 212.248C77.9923 212.208 78.1484 212.217 78.3017 212.199Z" fill="#00D1FF"/>
<path d="M107.984 204.695L178.244 116.086C178.641 113.589 178.959 111.076 179.198 108.545L100.901 207.289C103.296 206.499 105.657 205.634 107.984 204.695Z" fill="#00D1FF"/>
<path d="M169.995 144.241L133.378 190.421C149.337 178.51 161.982 162.564 169.995 144.241Z" fill="#00D1FF"/>
</svg>
