<svg width="64" height="188" viewBox="0 0 64 188" fill="none" xmlns="http://www.w3.org/2000/svg">
<path opacity="0.5" d="M14.3743 52.3317C20.3455 40.7029 34.607 36.1183 46.236 42.0892L169.111 105.18C180.74 111.151 185.325 125.412 179.354 137.04C173.382 148.669 159.121 153.254 147.492 147.283L24.6165 84.1925C12.9929 78.2199 8.40847 63.9588 14.3743 52.3317Z" fill="url(#paint0_linear_301_1104)"/>
<path opacity="0.5" d="M62.2202 29.2993C65.0624 23.7644 71.85 21.5824 77.3797 24.426L133.046 53.0068C138.581 55.8486 140.763 62.6358 137.919 68.1653C135.077 73.7002 128.289 75.8822 122.76 73.0386L67.0931 44.4578C61.5652 41.6196 59.3834 34.8325 62.2202 29.2993Z" fill="url(#paint1_linear_301_1104)"/>
<path opacity="0.5" d="M24.2436 110.468C27.0855 104.933 33.8727 102.751 39.4021 105.595L95.0658 134.177C100.601 137.019 102.783 143.806 99.9388 149.335C97.0968 154.87 90.3097 157.052 84.7803 154.208L29.1165 125.627C23.5817 122.785 21.3999 115.997 24.2436 110.468Z" fill="url(#paint2_linear_301_1104)"/>
<defs>
<linearGradient id="paint0_linear_301_1104" x1="14.3767" y1="52.3304" x2="179.355" y2="137.045" gradientUnits="userSpaceOnUse">
<stop stop-color="#15FFF1"/>
<stop offset="1" stop-color="white" stop-opacity="0"/>
</linearGradient>
<linearGradient id="paint1_linear_301_1104" x1="62.2228" y1="29.2984" x2="137.923" y2="68.1714" gradientUnits="userSpaceOnUse">
<stop stop-color="#15FFF1"/>
<stop offset="1" stop-opacity="0"/>
</linearGradient>
<linearGradient id="paint2_linear_301_1104" x1="24.2435" y1="110.465" x2="99.9429" y2="149.334" gradientUnits="userSpaceOnUse">
<stop stop-color="#15FFF1"/>
<stop offset="1" stop-opacity="0"/>
</linearGradient>
</defs>
</svg>
