<svg width="36" height="36" viewBox="0 0 36 36" fill="none" xmlns="http://www.w3.org/2000/svg">
<path d="M1.21491 11.3564C1.45241 11.0775 1.80032 10.9167 2.16667 10.9167H33.8333C34.1997 10.9167 34.5476 11.0775 34.7851 11.3564C35.0226 11.6353 35.1258 12.0044 35.0673 12.3661L31.5673 34.0327C31.4695 34.6383 30.9467 35.0834 30.3333 35.0834H5.66667C5.05326 35.0834 4.53048 34.6383 4.43266 34.0327L0.932663 12.3661C0.87424 12.0044 0.977415 11.6353 1.21491 11.3564ZM3.63479 13.4167L6.73095 32.5834H29.2691L32.3652 13.4167H3.63479Z" fill="#479FDE"/>
<path d="M7.58333 12.1667C7.58333 6.05816 12.1469 0.916748 18 0.916748C23.8531 0.916748 28.4167 6.05816 28.4167 12.1667C28.4167 12.8571 27.857 13.4167 27.1667 13.4167C26.4763 13.4167 25.9167 12.8571 25.9167 12.1667C25.9167 7.22966 22.2721 3.41675 18 3.41675C13.7279 3.41675 10.0833 7.22966 10.0833 12.1667C10.0833 12.8571 9.52369 13.4167 8.83333 13.4167C8.14298 13.4167 7.58333 12.8571 7.58333 12.1667Z" fill="#479FDE"/>
<path d="M12.1667 21.3334C13.0871 21.3334 13.8333 20.5872 13.8333 19.6667C13.8333 18.7463 13.0871 18.0001 12.1667 18.0001C11.2462 18.0001 10.5 18.7463 10.5 19.6667C10.5 20.5872 11.2462 21.3334 12.1667 21.3334Z" fill="#479FDE"/>
<path d="M14.0352 24.7995C13.6506 24.231 12.8786 24.0787 12.3066 24.46C11.7322 24.843 11.577 25.619 11.9599 26.1935L13 25.5001C11.9599 26.1935 11.9599 26.1935 11.9599 26.1935L11.9613 26.1954L11.9628 26.1977L11.9662 26.2028L11.9752 26.2159L12.0008 26.2526C12.0215 26.2815 12.0491 26.3195 12.0838 26.3651C12.1532 26.4561 12.2513 26.5783 12.3782 26.7212C12.6313 27.0059 13.0045 27.3784 13.5 27.7501C14.4948 28.4962 16.0015 29.2501 18 29.2501C19.9985 29.2501 21.5052 28.4962 22.5 27.7501C22.9955 27.3784 23.3687 27.0059 23.6218 26.7212C23.7487 26.5783 23.8468 26.4561 23.9162 26.3651C23.9509 26.3195 23.9785 26.2815 23.9992 26.2526L24.0248 26.2159L24.0338 26.2028L24.0372 26.1977L24.0387 26.1954C24.0387 26.1954 24.0401 26.1935 23 25.5001L24.0401 26.1935C24.423 25.619 24.2678 24.843 23.6934 24.46C23.1214 24.0787 22.3494 24.231 21.9648 24.7995L21.9638 24.801L21.9622 24.8034L21.9648 24.7995L21.9605 24.8058L21.9622 24.8034C21.9567 24.811 21.9449 24.8272 21.9276 24.8499C21.8928 24.8956 21.8346 24.9687 21.7532 25.0602C21.5896 25.2443 21.3378 25.4967 21 25.7501C20.3281 26.254 19.3348 26.7501 18 26.7501C16.6652 26.7501 15.6719 26.254 15 25.7501C14.6622 25.4967 14.4104 25.2443 14.2468 25.0602C14.1654 24.9687 14.1072 24.8956 14.0724 24.8499C14.0551 24.8272 14.0437 24.8114 14.0382 24.8038L14.0352 24.7995Z" fill="#479FDE"/>
<path d="M23.8333 21.3334C24.7538 21.3334 25.5 20.5872 25.5 19.6667C25.5 18.7463 24.7538 18.0001 23.8333 18.0001C22.9129 18.0001 22.1667 18.7463 22.1667 19.6667C22.1667 20.5872 22.9129 21.3334 23.8333 21.3334Z" fill="#479FDE"/>
</svg>
