<svg width="18" height="22" viewBox="0 0 18 22" fill="none" xmlns="http://www.w3.org/2000/svg">
<path d="M0.75 8.5C0.75 3.94364 4.44364 0.25 9 0.25C13.5564 0.25 17.25 3.94364 17.25 8.5C17.25 12.0158 15.2365 15.3116 13.3326 17.6599C12.3691 18.8482 11.4074 19.8257 10.6868 20.5062C10.3261 20.8469 10.0246 21.1143 9.81192 21.2976C9.70554 21.3893 9.62129 21.46 9.56285 21.5085C9.53363 21.5327 9.51085 21.5513 9.49498 21.5643L9.4764 21.5793L9.4711 21.5836L9.46947 21.5849C9.46947 21.5849 9.46852 21.5857 9 21C8.53148 21.5857 8.53109 21.5853 8.53109 21.5853L8.5289 21.5836L8.5236 21.5793L8.50502 21.5643C8.48915 21.5513 8.46637 21.5327 8.43715 21.5085C8.37871 21.46 8.29446 21.3893 8.18808 21.2976C7.9754 21.1143 7.67389 20.8469 7.31316 20.5062C6.59262 19.8257 5.63093 18.8482 4.66743 17.6599C2.76347 15.3116 0.75 12.0158 0.75 8.5ZM9 21L8.53109 21.5853C8.805 21.8045 9.19461 21.8048 9.46852 21.5857L9 21ZM9 20.0155C9.17878 19.8581 9.40175 19.6567 9.65691 19.4157C10.3426 18.7681 11.2559 17.8393 12.1674 16.7151C14.0135 14.4384 15.75 11.4842 15.75 8.5C15.75 4.77206 12.7279 1.75 9 1.75C5.27206 1.75 2.25 4.77206 2.25 8.5C2.25 11.4842 3.98653 14.4384 5.83257 16.7151C6.74407 17.8393 7.65738 18.7681 8.34309 19.4157C8.59825 19.6567 8.82122 19.8581 9 20.0155Z" fill="white"/>
<path d="M5.25 8.5C5.25 6.42894 6.92894 4.75 9 4.75C11.0711 4.75 12.75 6.42894 12.75 8.5C12.75 10.5711 11.0711 12.25 9 12.25C6.92894 12.25 5.25 10.5711 5.25 8.5ZM9 6.25C7.75736 6.25 6.75 7.25736 6.75 8.5C6.75 9.74264 7.75736 10.75 9 10.75C10.2426 10.75 11.25 9.74264 11.25 8.5C11.25 7.25736 10.2426 6.25 9 6.25Z" fill="white"/>
</svg>
