<svg width="36" height="32" viewBox="0 0 36 32" fill="none" xmlns="http://www.w3.org/2000/svg">
<path fill-rule="evenodd" clip-rule="evenodd" d="M29.9472 3.80916C29.1503 2.7165 28.1933 1.86838 27.0638 1.31478C25.7893 0.690085 24.3729 0.478625 22.8579 0.630827C20.4123 0.876519 18.704 2.24029 17.7282 4.24222C16.8948 5.95218 16.6041 8.09416 16.7036 10.3869C14.4294 11.2678 12.4227 10.7907 10.6441 9.65531C8.60942 8.35637 6.91745 6.20605 5.7273 4.26612C5.46523 3.83896 4.97339 3.6096 4.47772 3.68342C3.98204 3.75723 3.57837 4.11994 3.45213 4.60492C2.61925 7.80483 1.72701 11.9386 3.49528 16.5321C4.508 19.1628 6.637 21.3503 9.69582 23.1549C6.65566 24.5184 4.24623 24.9258 2.40069 24.574C1.79729 24.4591 1.19976 24.7995 0.991046 25.3772C0.782334 25.9549 1.0243 26.5987 1.56187 26.8959C1.59986 26.9169 1.6437 26.9413 1.69321 26.9688C2.69147 27.5244 5.99479 29.363 10.0931 30.4921C14.3621 31.6682 19.7664 32.1496 24.3456 29.2885C32.8373 23.9829 32.7804 14.9913 32.7533 10.7097C32.7526 10.5956 32.7519 10.4849 32.7514 10.3776C32.8694 10.1725 33.0158 9.95999 33.2047 9.69049C33.2137 9.67772 33.2227 9.66484 33.2318 9.65184C33.4759 9.30396 33.7768 8.875 34.0534 8.35116C34.6511 7.21916 35.0833 5.75143 35.0833 3.45328C35.0833 2.9567 34.7894 2.50722 34.3345 2.30813C33.8796 2.10905 33.3499 2.19814 32.9852 2.53509C31.8138 3.61716 30.8275 3.93555 29.9472 3.80916ZM25.9635 3.55963C25.167 3.16925 24.2295 3.00562 23.1078 3.11831C21.5984 3.26995 20.6055 4.04499 19.9755 5.33758C19.3103 6.70233 19.049 8.67254 19.2521 11.0667C19.2952 11.5746 19.0256 12.0578 18.5707 12.2878C15.0537 14.0664 11.8618 13.3987 9.29888 11.7625C7.71626 10.7522 6.36092 9.37072 5.25606 7.9656C4.83704 10.3459 4.77615 12.9006 5.82838 15.634C6.74381 18.012 9.01021 20.1898 12.9708 22.0566C13.3971 22.2575 13.6741 22.6811 13.6874 23.1521C13.7006 23.6232 13.4478 24.0617 13.0335 24.2862C10.876 25.4556 8.84908 26.298 6.96875 26.7661C8.09257 27.2339 9.37747 27.7018 10.7571 28.0819C14.7761 29.1892 19.3264 29.4767 23.0209 27.1684C30.2969 22.6223 30.2682 14.9769 30.252 10.6422C30.2512 10.445 30.2505 10.2547 30.2505 10.0718C30.2505 9.88545 30.2922 9.70147 30.3724 9.53331C30.6088 9.03823 30.9044 8.61657 31.15 8.26629L31.159 8.25342C31.4175 7.88474 31.6404 7.56687 31.8426 7.18385C32.0168 6.85397 32.1864 6.45435 32.3193 5.9315C31.209 6.38407 30.041 6.47685 28.838 6.11748C28.5557 6.03313 28.3122 5.85174 28.1506 5.60533C27.4974 4.60938 26.7626 3.95127 25.9635 3.55963Z" fill="#479FDE"/>
</svg>
