<svg width="36" height="36" viewBox="0 0 36 36" fill="none" xmlns="http://www.w3.org/2000/svg">
<path fill-rule="evenodd" clip-rule="evenodd" d="M0.083374 7.99992C0.083374 7.30956 0.643018 6.74992 1.33337 6.74992H34.6667C35.3571 6.74992 35.9167 7.30956 35.9167 7.99992V14.6666C35.9167 15.1057 35.6863 15.5125 35.3098 15.7385L34.1444 16.4377C31.9012 17.7836 29.0989 17.7836 26.8557 16.4377L26.3334 16.1243L25.8111 16.4377C23.5679 17.7836 20.7655 17.7836 18.5223 16.4377L18 16.1243L17.4777 16.4377C15.2346 17.7836 12.4322 17.7836 10.189 16.4377C10.189 16.4377 10.189 16.4377 10.189 16.4377L9.66671 16.1243L9.14442 16.4377C9.14441 16.4377 9.14442 16.4377 9.14442 16.4377C6.90124 17.7836 4.09888 17.7836 1.85571 16.4377C1.8557 16.4377 1.85571 16.4377 1.85571 16.4377L0.690265 15.7385C0.313752 15.5126 0.083374 15.1057 0.083374 14.6666V7.99992ZM2.58337 9.24992V13.9588L3.14193 14.294C4.59338 15.1649 6.40669 15.1649 7.85816 14.294L9.02359 13.5947C9.41944 13.3572 9.91397 13.3572 10.3098 13.5947L11.4752 14.294C12.9267 15.1649 14.74 15.1649 16.1915 14.294L17.3569 13.5947C17.7528 13.3572 18.2473 13.3572 18.6432 13.5947L19.8086 14.294C21.2601 15.1649 23.0734 15.1649 24.5248 14.294L25.6903 13.5947C26.0861 13.3572 26.5806 13.3572 26.9765 13.5947L28.1419 14.294C29.5934 15.1649 31.4067 15.1649 32.8582 14.294L33.4167 13.9588V9.24992H2.58337Z" fill="#479FDE"/>
<path fill-rule="evenodd" clip-rule="evenodd" d="M31.3334 15.0833C32.0237 15.0833 32.5834 15.6429 32.5834 16.3333V34.6666C32.5834 35.3569 32.0237 35.9166 31.3334 35.9166H4.66671C3.97635 35.9166 3.41671 35.3569 3.41671 34.6666V16.7407C3.41671 16.0503 3.97635 15.4907 4.66671 15.4907C5.35706 15.4907 5.91671 16.0503 5.91671 16.7407V33.4166H30.0834V16.3333C30.0834 15.6429 30.643 15.0833 31.3334 15.0833Z" fill="#479FDE"/>
<path fill-rule="evenodd" clip-rule="evenodd" d="M3.41671 1.33325C3.41671 0.642896 3.97635 0.083252 4.66671 0.083252H31.3334C32.0237 0.083252 32.5834 0.642896 32.5834 1.33325V7.99992C32.5834 8.69028 32.0237 9.24992 31.3334 9.24992C30.643 9.24992 30.0834 8.69028 30.0834 7.99992V2.58325H5.91671V7.85175C5.91671 8.54211 5.35706 9.10175 4.66671 9.10175C3.97635 9.10175 3.41671 8.54211 3.41671 7.85175V1.33325Z" fill="#479FDE"/>
<path fill-rule="evenodd" clip-rule="evenodd" d="M12.5834 24.6666C12.5834 23.9762 13.143 23.4166 13.8334 23.4166H22.1667C22.8571 23.4166 23.4167 23.9762 23.4167 24.6666V34.6666C23.4167 35.3569 22.8571 35.9166 22.1667 35.9166H13.8334C13.143 35.9166 12.5834 35.3569 12.5834 34.6666V24.6666ZM15.0834 25.9166V33.4166H20.9167V25.9166H15.0834Z" fill="#479FDE"/>
</svg>
