<svg width="36" height="34" viewBox="0 0 36 34" fill="none" xmlns="http://www.w3.org/2000/svg">
<path fill-rule="evenodd" clip-rule="evenodd" d="M17.357 0.928134C17.7528 0.690622 18.2474 0.690622 18.6432 0.928134L35.3099 10.9281C35.7917 11.2172 36.0214 11.7922 35.8714 12.3337C35.7214 12.8751 35.2286 13.25 34.6668 13.25H1.33342C0.771571 13.25 0.278756 12.8751 0.128779 12.3337C-0.0211984 11.7922 0.208519 11.2172 0.690303 10.9281L17.357 0.928134ZM5.84632 10.75H30.1539L18.0001 3.45774L5.84632 10.75Z" fill="#479FDE"/>
<path fill-rule="evenodd" clip-rule="evenodd" d="M0.083313 32C0.083313 31.3096 0.642957 30.75 1.33331 30.75H34.6666C35.357 30.75 35.9166 31.3096 35.9166 32C35.9166 32.6904 35.357 33.25 34.6666 33.25H1.33331C0.642957 33.25 0.083313 32.6904 0.083313 32Z" fill="#479FDE"/>
<path fill-rule="evenodd" clip-rule="evenodd" d="M5.49998 10.75C6.19034 10.75 6.74998 11.3096 6.74998 12V32C6.74998 32.6904 6.19034 33.25 5.49998 33.25C4.80962 33.25 4.24998 32.6904 4.24998 32V12C4.24998 11.3096 4.80962 10.75 5.49998 10.75Z" fill="#479FDE"/>
<path fill-rule="evenodd" clip-rule="evenodd" d="M13.8333 10.75C14.5237 10.75 15.0833 11.3096 15.0833 12V32C15.0833 32.6904 14.5237 33.25 13.8333 33.25C13.143 33.25 12.5833 32.6904 12.5833 32V12C12.5833 11.3096 13.143 10.75 13.8333 10.75Z" fill="#479FDE"/>
<path fill-rule="evenodd" clip-rule="evenodd" d="M22.1666 10.75C22.857 10.75 23.4166 11.3096 23.4166 12V32C23.4166 32.6904 22.857 33.25 22.1666 33.25C21.4763 33.25 20.9166 32.6904 20.9166 32V12C20.9166 11.3096 21.4763 10.75 22.1666 10.75Z" fill="#479FDE"/>
<path fill-rule="evenodd" clip-rule="evenodd" d="M30.5 10.75C31.1903 10.75 31.75 11.3096 31.75 12V32C31.75 32.6904 31.1903 33.25 30.5 33.25C29.8096 33.25 29.25 32.6904 29.25 32V12C29.25 11.3096 29.8096 10.75 30.5 10.75Z" fill="#479FDE"/>
</svg>
