<svg width="200" height="163" viewBox="0 0 200 163" fill="none" xmlns="http://www.w3.org/2000/svg">
<path opacity="0.5" d="M192.398 158.998C192.398 160.987 194.01 162.599 195.998 162.599C197.987 162.599 199.599 160.987 199.599 158.998C199.599 157.01 197.987 155.398 195.998 155.398C194.01 155.398 192.398 157.01 192.398 158.998Z" fill="#18214D"/>
<path opacity="0.5" d="M164.97 158.998C164.97 160.987 166.582 162.599 168.57 162.599C170.559 162.599 172.171 160.987 172.171 158.998C172.171 157.01 170.559 155.398 168.57 155.398C166.582 155.398 164.97 157.01 164.97 158.998Z" fill="#18214D"/>
<path opacity="0.5" d="M137.542 158.998C137.542 160.987 139.154 162.599 141.142 162.599C143.131 162.599 144.743 160.987 144.743 158.998C144.743 157.01 143.131 155.398 141.142 155.398C139.154 155.398 137.542 157.01 137.542 158.998Z" fill="#18214D"/>
<path opacity="0.5" d="M110.114 158.998C110.114 160.987 111.726 162.599 113.714 162.599C115.703 162.599 117.315 160.987 117.315 158.998C117.315 157.01 115.703 155.398 113.714 155.398C111.726 155.398 110.114 157.01 110.114 158.998Z" fill="#18214D"/>
<path opacity="0.5" d="M82.6855 158.998C82.6855 160.987 84.2974 162.599 86.2859 162.599C88.2744 162.599 89.8864 160.987 89.8864 158.998C89.8864 157.01 88.2744 155.398 86.2859 155.398C84.2974 155.398 82.6855 157.01 82.6855 158.998Z" fill="#18214D"/>
<path opacity="0.5" d="M55.2573 158.998C55.2573 160.987 56.8693 162.599 58.8578 162.599C60.8463 162.599 62.4582 160.987 62.4582 158.998C62.4582 157.01 60.8463 155.398 58.8578 155.398C56.8693 155.398 55.2573 157.01 55.2573 158.998Z" fill="#18214D"/>
<path opacity="0.5" d="M27.8293 158.998C27.8293 160.987 29.4412 162.599 31.4296 162.599C33.4181 162.599 35.0302 160.987 35.0302 158.998C35.0302 157.01 33.4181 155.398 31.4296 155.398C29.4412 155.398 27.8293 157.01 27.8293 158.998Z" fill="#18214D"/>
<path opacity="0.5" d="M0.401098 158.998C0.401098 157.016 2.01921 155.398 4.00148 155.398C5.98375 155.398 7.60199 157.016 7.60199 158.998C7.60199 160.981 5.98375 162.599 4.00148 162.599C1.99899 162.599 0.401098 160.981 0.401098 158.998Z" fill="#18214D"/>
<path opacity="0.5" d="M192.398 128.051C192.398 126.068 194.016 124.45 195.998 124.45C197.981 124.45 199.599 126.068 199.599 128.051C199.599 130.033 197.981 131.651 195.998 131.651C194.016 131.631 192.398 130.033 192.398 128.051Z" fill="#18214D"/>
<path opacity="0.5" d="M164.97 128.051C164.97 126.068 166.588 124.45 168.57 124.45C170.553 124.45 172.171 126.068 172.171 128.051C172.171 130.033 170.553 131.651 168.57 131.651C166.568 131.631 164.97 130.033 164.97 128.051Z" fill="#18214D"/>
<path opacity="0.5" d="M137.542 128.051C137.542 126.068 139.16 124.45 141.142 124.45C143.124 124.45 144.743 126.068 144.743 128.051C144.743 130.033 143.124 131.651 141.142 131.651C139.16 131.631 137.542 130.033 137.542 128.051Z" fill="#18214D"/>
<path opacity="0.5" d="M110.114 128.051C110.114 126.068 111.732 124.45 113.714 124.45C115.696 124.45 117.315 126.068 117.315 128.051C117.315 130.033 115.696 131.651 113.714 131.651C111.712 131.631 110.114 130.033 110.114 128.051Z" fill="#18214D"/>
<path opacity="0.5" d="M82.6855 128.051C82.6855 126.068 84.3036 124.45 86.2859 124.45C88.2682 124.45 89.8864 126.068 89.8864 128.051C89.8864 130.033 88.2682 131.651 86.2859 131.651C84.3036 131.631 82.6855 130.033 82.6855 128.051Z" fill="#18214D"/>
<path opacity="0.5" d="M55.2573 128.051C55.2573 126.068 56.8755 124.45 58.8578 124.45C60.8401 124.45 62.4582 126.068 62.4582 128.051C62.4582 130.033 60.8401 131.651 58.8578 131.651C56.8755 131.651 55.2573 130.033 55.2573 128.051Z" fill="#18214D"/>
<path opacity="0.5" d="M27.8293 128.051C27.8293 126.068 29.4474 124.45 31.4296 124.45C33.4119 124.45 35.0302 126.068 35.0302 128.051C35.0302 130.033 33.4119 131.651 31.4296 131.651C29.4474 131.651 27.8293 130.033 27.8293 128.051Z" fill="#18214D"/>
<path opacity="0.5" d="M0.401098 128.051C0.401098 126.068 2.01921 124.45 4.00148 124.45C5.98375 124.45 7.60199 126.068 7.60199 128.051C7.60199 130.033 5.98375 131.651 4.00148 131.651C1.99899 131.631 0.401098 130.033 0.401098 128.051Z" fill="#18214D"/>
<path opacity="0.5" d="M192.398 97.0829C192.398 99.0714 194.01 100.683 195.998 100.683C197.987 100.683 199.599 99.0714 199.599 97.0829C199.599 95.0945 197.987 93.4825 195.998 93.4825C194.01 93.4825 192.398 95.0945 192.398 97.0829Z" fill="#18214D"/>
<path opacity="0.5" d="M164.97 97.0829C164.97 99.0714 166.582 100.683 168.57 100.683C170.559 100.683 172.171 99.0714 172.171 97.0829C172.171 95.0945 170.559 93.4825 168.57 93.4825C166.582 93.4825 164.97 95.0945 164.97 97.0829Z" fill="#18214D"/>
<path opacity="0.5" d="M137.542 97.0829C137.542 99.0714 139.154 100.683 141.142 100.683C143.131 100.683 144.743 99.0714 144.743 97.0829C144.743 95.0945 143.131 93.4825 141.142 93.4825C139.154 93.4825 137.542 95.0945 137.542 97.0829Z" fill="#18214D"/>
<path opacity="0.5" d="M110.114 97.0829C110.114 99.0714 111.726 100.683 113.714 100.683C115.703 100.683 117.315 99.0714 117.315 97.0829C117.315 95.0945 115.703 93.4825 113.714 93.4825C111.726 93.4825 110.114 95.0945 110.114 97.0829Z" fill="#18214D"/>
<path opacity="0.5" d="M82.6855 97.0829C82.6855 99.0714 84.2974 100.683 86.2859 100.683C88.2744 100.683 89.8864 99.0714 89.8864 97.0829C89.8864 95.0945 88.2744 93.4825 86.2859 93.4825C84.2974 93.4825 82.6855 95.0945 82.6855 97.0829Z" fill="#18214D"/>
<path opacity="0.5" d="M55.2573 97.0829C55.2573 99.0714 56.8693 100.683 58.8578 100.683C60.8463 100.683 62.4582 99.0714 62.4582 97.0829C62.4582 95.0945 60.8463 93.4825 58.8578 93.4825C56.8693 93.4825 55.2573 95.0945 55.2573 97.0829Z" fill="#18214D"/>
<path opacity="0.5" d="M27.8293 97.0829C27.8293 99.0714 29.4412 100.683 31.4296 100.683C33.4181 100.683 35.0302 99.0714 35.0302 97.0829C35.0302 95.0945 33.4181 93.4825 31.4296 93.4825C29.4412 93.4825 27.8293 95.0945 27.8293 97.0829Z" fill="#18214D"/>
<path opacity="0.5" d="M0.401098 97.0829C0.401098 95.1007 2.01921 93.4825 4.00148 93.4825C5.98375 93.4825 7.60199 95.1007 7.60199 97.0829C7.60199 99.0652 5.98375 100.683 4.00148 100.683C1.99899 100.683 0.401098 99.0652 0.401098 97.0829Z" fill="#18214D"/>
<path opacity="0.5" d="M192.398 66.115C192.398 68.1034 194.01 69.7155 195.998 69.7155C197.987 69.7155 199.599 68.1034 199.599 66.115C199.599 64.1265 197.987 62.5146 195.998 62.5146C194.01 62.5146 192.398 64.1265 192.398 66.115Z" fill="#18214D"/>
<path opacity="0.5" d="M164.97 66.115C164.97 68.1034 166.582 69.7155 168.57 69.7155C170.559 69.7155 172.171 68.1034 172.171 66.115C172.171 64.1265 170.559 62.5146 168.57 62.5146C166.582 62.5146 164.97 64.1265 164.97 66.115Z" fill="#18214D"/>
<path opacity="0.5" d="M137.542 66.115C137.542 68.1034 139.154 69.7155 141.142 69.7155C143.131 69.7155 144.743 68.1034 144.743 66.115C144.743 64.1265 143.131 62.5146 141.142 62.5146C139.154 62.5146 137.542 64.1265 137.542 66.115Z" fill="#18214D"/>
<path opacity="0.5" d="M110.114 66.115C110.114 68.1034 111.726 69.7155 113.714 69.7155C115.703 69.7155 117.315 68.1034 117.315 66.115C117.315 64.1265 115.703 62.5146 113.714 62.5146C111.726 62.5146 110.114 64.1265 110.114 66.115Z" fill="#18214D"/>
<path opacity="0.5" d="M82.6855 66.115C82.6855 68.1034 84.2974 69.7155 86.2859 69.7155C88.2744 69.7155 89.8864 68.1034 89.8864 66.115C89.8864 64.1265 88.2744 62.5146 86.2859 62.5146C84.2974 62.5146 82.6855 64.1265 82.6855 66.115Z" fill="#18214D"/>
<path opacity="0.5" d="M55.2573 66.115C55.2573 68.1034 56.8693 69.7155 58.8578 69.7155C60.8463 69.7155 62.4582 68.1034 62.4582 66.115C62.4582 64.1265 60.8463 62.5146 58.8578 62.5146C56.8693 62.5146 55.2573 64.1265 55.2573 66.115Z" fill="#18214D"/>
<path opacity="0.5" d="M27.8293 66.115C27.8293 68.1034 29.4412 69.7155 31.4296 69.7155C33.4181 69.7155 35.0302 68.1034 35.0302 66.115C35.0302 64.1265 33.4181 62.5146 31.4296 62.5146C29.4412 62.5146 27.8293 64.1265 27.8293 66.115Z" fill="#18214D"/>
<path opacity="0.5" d="M0.401098 66.115C0.401098 64.1327 2.01921 62.5146 4.00148 62.5146C5.98375 62.5146 7.60199 64.1327 7.60199 66.115C7.60199 68.0972 5.98375 69.7155 4.00148 69.7155C1.99899 69.7155 0.401098 68.1175 0.401098 66.115Z" fill="#18214D"/>
<path opacity="0.5" d="M192.398 35.1673C192.398 37.1558 194.01 38.7677 195.998 38.7677C197.987 38.7677 199.599 37.1558 199.599 35.1673C199.599 33.1789 197.987 31.5668 195.998 31.5668C194.01 31.5668 192.398 33.1789 192.398 35.1673Z" fill="#18214D"/>
<path opacity="0.5" d="M164.97 35.1673C164.97 37.1558 166.582 38.7677 168.57 38.7677C170.559 38.7677 172.171 37.1558 172.171 35.1673C172.171 33.1789 170.559 31.5668 168.57 31.5668C166.582 31.5668 164.97 33.1789 164.97 35.1673Z" fill="#18214D"/>
<path opacity="0.5" d="M137.542 35.1673C137.542 37.1558 139.154 38.7677 141.142 38.7677C143.131 38.7677 144.743 37.1558 144.743 35.1673C144.743 33.1789 143.131 31.5668 141.142 31.5668C139.154 31.5668 137.542 33.1789 137.542 35.1673Z" fill="#18214D"/>
<path opacity="0.5" d="M110.114 35.1673C110.114 37.1558 111.726 38.7677 113.714 38.7677C115.703 38.7677 117.315 37.1558 117.315 35.1673C117.315 33.1789 115.703 31.5668 113.714 31.5668C111.726 31.5668 110.114 33.1789 110.114 35.1673Z" fill="#18214D"/>
<path opacity="0.5" d="M82.6855 35.1673C82.6855 37.1558 84.2974 38.7677 86.2859 38.7677C88.2744 38.7677 89.8864 37.1558 89.8864 35.1673C89.8864 33.1789 88.2744 31.5668 86.2859 31.5668C84.2974 31.5668 82.6855 33.1789 82.6855 35.1673Z" fill="#18214D"/>
<path opacity="0.5" d="M55.2573 35.1673C55.2573 37.1558 56.8693 38.7677 58.8578 38.7677C60.8463 38.7677 62.4582 37.1558 62.4582 35.1673C62.4582 33.1789 60.8463 31.5668 58.8578 31.5668C56.8693 31.5668 55.2573 33.1789 55.2573 35.1673Z" fill="#18214D"/>
<path opacity="0.5" d="M27.8293 35.1673C27.8293 37.1558 29.4412 38.7677 31.4296 38.7677C33.4181 38.7677 35.0302 37.1558 35.0302 35.1673C35.0302 33.1789 33.4181 31.5668 31.4296 31.5668C29.4412 31.5668 27.8293 33.1789 27.8293 35.1673Z" fill="#18214D"/>
<path opacity="0.5" d="M0.401098 35.1673C0.401098 33.1851 2.01921 31.5668 4.00148 31.5668C5.98375 31.5668 7.60199 33.1851 7.60199 35.1673C7.60199 37.1496 5.98375 38.7677 4.00148 38.7677C1.99899 38.7677 0.401098 37.1496 0.401098 35.1673Z" fill="#18214D"/>
<path opacity="0.5" d="M192.398 4.19945C192.398 6.18792 194.01 7.79983 195.998 7.79983C197.987 7.79983 199.599 6.18792 199.599 4.19945C199.599 2.21097 197.987 0.598938 195.998 0.598938C194.01 0.598938 192.398 2.21097 192.398 4.19945Z" fill="#18214D"/>
<path opacity="0.5" d="M164.97 4.19945C164.97 6.18792 166.582 7.79983 168.57 7.79983C170.559 7.79983 172.171 6.18792 172.171 4.19945C172.171 2.21097 170.559 0.598938 168.57 0.598938C166.582 0.598938 164.97 2.21097 164.97 4.19945Z" fill="#18214D"/>
<path opacity="0.5" d="M137.542 4.19945C137.542 6.18792 139.154 7.79983 141.142 7.79983C143.131 7.79983 144.743 6.18792 144.743 4.19945C144.743 2.21097 143.131 0.598938 141.142 0.598938C139.154 0.598938 137.542 2.21097 137.542 4.19945Z" fill="#18214D"/>
<path opacity="0.5" d="M110.114 4.19945C110.114 6.18792 111.726 7.79983 113.714 7.79983C115.703 7.79983 117.315 6.18792 117.315 4.19945C117.315 2.21097 115.703 0.598938 113.714 0.598938C111.726 0.598938 110.114 2.21097 110.114 4.19945Z" fill="#18214D"/>
<path opacity="0.5" d="M82.6855 4.19945C82.6855 6.18792 84.2974 7.79983 86.2859 7.79983C88.2744 7.79983 89.8864 6.18792 89.8864 4.19945C89.8864 2.21097 88.2744 0.598938 86.2859 0.598938C84.2974 0.598938 82.6855 2.21097 82.6855 4.19945Z" fill="#18214D"/>
<path opacity="0.5" d="M55.2573 4.19945C55.2573 6.18792 56.8693 7.79983 58.8578 7.79983C60.8463 7.79983 62.4582 6.18792 62.4582 4.19945C62.4582 2.21097 60.8463 0.598938 58.8578 0.598938C56.8693 0.598938 55.2573 2.21097 55.2573 4.19945Z" fill="#18214D"/>
<path opacity="0.5" d="M27.8293 4.19945C27.8293 6.18792 29.4412 7.79983 31.4296 7.79983C33.4181 7.79983 35.0302 6.18792 35.0302 4.19945C35.0302 2.21097 33.4181 0.598938 31.4296 0.598938C29.4412 0.598938 27.8293 2.21097 27.8293 4.19945Z" fill="#18214D"/>
<path opacity="0.5" d="M0.401098 4.19945C0.401098 2.21718 2.01921 0.598938 4.00148 0.598938C5.98375 0.598938 7.60199 2.21718 7.60199 4.19945C7.60199 6.18171 5.98375 7.79983 4.00148 7.79983C1.99899 7.79983 0.401098 6.18171 0.401098 4.19945Z" fill="#18214D"/>
</svg>
