<svg width="72" height="72" viewBox="0 0 72 72" fill="none" xmlns="http://www.w3.org/2000/svg">
<path d="M48.0323 10.4985C48.4248 10.9003 48.6445 11.4398 48.6445 12.0015C48.6445 12.5632 48.4248 13.1027 48.0323 13.5045L26.1038 36L48.0323 58.491C48.4248 58.8928 48.6445 59.4323 48.6445 59.994C48.6445 60.5557 48.4248 61.0952 48.0323 61.497C47.8415 61.693 47.6134 61.8487 47.3614 61.955C47.1095 62.0614 46.8388 62.1162 46.5653 62.1162C46.2918 62.1162 46.0211 62.0614 45.7691 61.955C45.5172 61.8487 45.2891 61.693 45.0983 61.497L21.7793 37.5705C21.3697 37.1503 21.1405 36.5868 21.1405 36C21.1405 35.4132 21.3697 34.8497 21.7793 34.4295L45.0983 10.503C45.2891 10.3071 45.5172 10.1513 45.7691 10.045C46.0211 9.93864 46.2918 9.88385 46.5653 9.88385C46.8388 9.88385 47.1095 9.93864 47.3614 10.045C47.6134 10.1513 47.8415 10.3071 48.0323 10.503V10.4985Z" fill="white"/>
</svg>
