<svg width="72" height="72" viewBox="0 0 72 72" fill="none" xmlns="http://www.w3.org/2000/svg">
<path d="M23.9677 10.4985C23.5752 10.9003 23.3555 11.4398 23.3555 12.0015C23.3555 12.5632 23.5752 13.1027 23.9677 13.5045L45.8962 36L23.9677 58.491C23.5752 58.8928 23.3555 59.4323 23.3555 59.994C23.3555 60.5557 23.5752 61.0952 23.9677 61.497C24.1585 61.693 24.3866 61.8487 24.6386 61.955C24.8905 62.0614 25.1612 62.1162 25.4347 62.1162C25.7082 62.1162 25.9789 62.0614 26.2309 61.955C26.4828 61.8487 26.7109 61.693 26.9017 61.497L50.2207 37.5705C50.6303 37.1503 50.8595 36.5868 50.8595 36C50.8595 35.4132 50.6303 34.8497 50.2207 34.4295L26.9017 10.503C26.7109 10.3071 26.4828 10.1513 26.2309 10.045C25.9789 9.93864 25.7082 9.88385 25.4347 9.88385C25.1612 9.88385 24.8905 9.93864 24.6386 10.045C24.3866 10.1513 24.1585 10.3071 23.9677 10.503V10.4985Z" fill="white"/>
</svg>
