<svg width="40" height="40" viewBox="0 0 40 40" fill="none" xmlns="http://www.w3.org/2000/svg">
<path fill-rule="evenodd" clip-rule="evenodd" d="M21.9118 22.8924C21.6985 22.935 21.4777 22.9213 21.2713 22.8525L16.2713 21.1859C15.6164 20.9675 15.2624 20.2596 15.4807 19.6047C15.699 18.9498 16.4069 18.5958 17.0619 18.8141L21.7476 20.3761L21.964 20.3331C22.3099 20.2646 22.8057 20.1667 23.4057 20.0493C24.6056 19.8145 26.2236 19.5014 27.8946 19.1881C29.5642 18.875 31.2925 18.5607 32.7111 18.3243C34.07 18.0978 35.2875 17.9167 35.8333 17.9167C36.4445 17.9167 37.0877 18.0695 37.5939 18.5124C38.1219 18.9745 38.3333 19.6052 38.3333 20.2083C38.3333 21.3194 37.6465 22.4546 36.7171 23.3839C35.8313 24.2697 33.886 25.9973 31.5043 27.5129C29.1575 29.0063 26.1987 30.4167 23.3333 30.4167C20.6216 30.4167 18.3787 29.7355 16.4796 29.1025C16.2962 29.0414 16.1174 28.9813 15.9429 28.9227C14.2428 28.3517 12.9475 27.9167 11.6666 27.9167H3.33416L3.33331 25.4167H11.6666C13.3844 25.4167 15.0883 25.9933 16.7019 26.5394C16.8926 26.604 17.0821 26.6681 17.2702 26.7308C19.1212 27.3478 21.0449 27.9167 23.3333 27.9167C25.4678 27.9167 27.9257 26.827 30.1622 25.4038C32.3638 24.0027 34.1686 22.3969 34.9494 21.6161C35.2955 21.27 35.5277 20.9506 35.6678 20.6878C35.7251 20.5803 35.763 20.4902 35.7878 20.4175C35.4527 20.4294 34.5068 20.5595 33.1221 20.7903C31.7282 21.0226 30.019 21.3333 28.3553 21.6453C26.6929 21.957 25.0817 22.2688 23.8858 22.5028C23.2879 22.6198 22.7941 22.7172 22.4499 22.7854L21.9118 22.8924ZM36.0101 20.4358C36.0101 20.4358 36.009 20.4354 36.0071 20.4346L36.0101 20.4358ZM3.33331 25.4167C2.64295 25.4167 2.08325 25.9763 2.08325 26.6667C2.08325 27.357 2.64381 27.9167 3.33416 27.9167L3.33331 25.4167Z" fill="#479FDE"/>
<path fill-rule="evenodd" clip-rule="evenodd" d="M7.49509 15.0436C6.14966 15.8125 4.98652 16.7812 4.21714 17.5505C3.72898 18.0387 2.93752 18.0387 2.44937 17.5505C1.96121 17.0624 1.96121 16.2709 2.44937 15.7828C3.34665 14.8855 4.68351 13.7709 6.25475 12.873C7.81567 11.9811 9.70088 11.25 11.6666 11.25C12.6686 11.25 13.9166 11.4936 15.1818 11.8417C16.4683 12.1956 17.8569 12.6816 19.1702 13.2177C20.4823 13.7532 21.7426 14.3482 22.7687 14.9267C23.2814 15.2157 23.7509 15.5092 24.1454 15.7978C24.5238 16.0746 24.9004 16.395 25.1666 16.75C25.8072 17.6042 25.7515 18.5523 25.4737 19.2931C25.2129 19.9886 24.7318 20.5997 24.2973 21.0633C23.8479 21.5426 23.3652 21.9506 23.0044 22.2336C22.8218 22.3768 22.6653 22.492 22.5526 22.5726C22.4962 22.613 22.4505 22.6449 22.4177 22.6674L22.3784 22.6943L22.3665 22.7024L22.3625 22.705L22.3611 22.706C22.3608 22.7062 22.36 22.7067 21.6666 21.6667L22.3611 22.706C21.7867 23.0889 21.0095 22.9345 20.6265 22.36C20.2438 21.786 20.3986 21.0105 20.9721 20.6273C20.9719 20.6275 20.9723 20.6272 20.9721 20.6273L20.9762 20.6246L20.9991 20.6089C21.0206 20.5941 21.0543 20.5706 21.0979 20.5394C21.1855 20.4767 21.3121 20.3836 21.4616 20.2664C21.7648 20.0286 22.1415 19.7074 22.4734 19.3534C22.8201 18.9836 23.0421 18.6573 23.1329 18.4153C23.1672 18.3238 23.1714 18.2738 23.1717 18.2571C23.1704 18.2552 23.1687 18.2528 23.1666 18.25C23.1203 18.1883 22.9761 18.04 22.6692 17.8155C22.3785 17.6028 21.9984 17.3624 21.541 17.1045C20.6271 16.5893 19.4655 16.0384 18.2255 15.5323C16.9867 15.0267 15.693 14.5752 14.5186 14.2521C13.3228 13.9231 12.3312 13.75 11.6666 13.75C10.299 13.75 8.85083 14.2689 7.49509 15.0436Z" fill="#479FDE"/>
</svg>
