<svg width="29" height="20" viewBox="0 0 29 20" fill="none" xmlns="http://www.w3.org/2000/svg">
<path fill-rule="evenodd" clip-rule="evenodd" d="M0 10C0 9.73483 0.105357 9.48047 0.292893 9.29294C0.48043 9.1054 0.734784 9.00004 1 9.00004H24.586L18.292 2.70804C18.1042 2.52027 17.9987 2.26559 17.9987 2.00004C17.9987 1.73449 18.1042 1.47982 18.292 1.29204C18.4798 1.10427 18.7344 0.998779 19 0.998779C19.2656 0.998779 19.5202 1.10427 19.708 1.29204L27.708 9.29204C27.8011 9.38493 27.875 9.49529 27.9254 9.61678C27.9758 9.73827 28.0018 9.86851 28.0018 10C28.0018 10.1316 27.9758 10.2618 27.9254 10.3833C27.875 10.5048 27.8011 10.6152 27.708 10.708L19.708 18.708C19.5202 18.8958 19.2656 19.0013 19 19.0013C18.7344 19.0013 18.4798 18.8958 18.292 18.708C18.1042 18.5203 17.9987 18.2656 17.9987 18C17.9987 17.7345 18.1042 17.4798 18.292 17.292L24.586 11H1C0.734784 11 0.48043 10.8947 0.292893 10.7071C0.105357 10.5196 0 10.2653 0 10Z" fill="#151515"/>
</svg>
