<svg width="22" height="14" viewBox="0 0 22 14" fill="none" xmlns="http://www.w3.org/2000/svg">
    <path fill-rule="evenodd" clip-rule="evenodd"
          d="M0.500612 6.99997C0.500612 6.80106 0.57963 6.61029 0.720282 6.46964C0.860935 6.32899 1.0517 6.24997 1.25061 6.24997H18.9401L14.2196 1.53097C14.1499 1.46124 14.0946 1.37846 14.0568 1.28735C14.0191 1.19624 13.9997 1.09859 13.9997 0.999971C13.9997 0.901355 14.0191 0.803705 14.0568 0.712596C14.0946 0.621487 14.1499 0.538703 14.2196 0.468971C14.2893 0.399239 14.3721 0.343925 14.4632 0.306186C14.5543 0.268447 14.652 0.249023 14.7506 0.249023C14.8492 0.249023 14.9469 0.268447 15.038 0.306186C15.1291 0.343925 15.2119 0.399239 15.2816 0.468971L21.2816 6.46897C21.3515 6.53864 21.4069 6.6214 21.4447 6.71252C21.4825 6.80364 21.502 6.90132 21.502 6.99997C21.502 7.09862 21.4825 7.1963 21.4447 7.28742C21.4069 7.37854 21.3515 7.4613 21.2816 7.53097L15.2816 13.531C15.2119 13.6007 15.1291 13.656 15.038 13.6938C14.9469 13.7315 14.8492 13.7509 14.7506 13.7509C14.652 13.7509 14.5543 13.7315 14.4632 13.6938C14.3721 13.656 14.2893 13.6007 14.2196 13.531C14.1499 13.4612 14.0946 13.3785 14.0568 13.2873C14.0191 13.1962 13.9997 13.0986 13.9997 13C13.9997 12.9014 14.0191 12.8037 14.0568 12.7126C14.0946 12.6215 14.1499 12.5387 14.2196 12.469L18.9401 7.74997H1.25061C1.0517 7.74997 0.860935 7.67095 0.720282 7.5303C0.57963 7.38965 0.500612 7.19888 0.500612 6.99997Z"
          fill="white"/>
</svg>
