<svg width="29" height="20" viewBox="0 0 29 20" fill="none" xmlns="http://www.w3.org/2000/svg">
<path fill-rule="evenodd" clip-rule="evenodd" d="M29 10C29 9.73483 28.8946 9.48047 28.7071 9.29294C28.5196 9.1054 28.2652 9.00004 28 9.00004H4.414L10.708 2.70804C10.8958 2.52027 11.0013 2.26559 11.0013 2.00004C11.0013 1.73449 10.8958 1.47982 10.708 1.29204C10.5202 1.10427 10.2656 0.998779 10 0.998779C9.73445 0.998779 9.47977 1.10427 9.292 1.29204L1.292 9.29204C1.19887 9.38493 1.12499 9.49529 1.07458 9.61678C1.02416 9.73827 0.998213 9.86851 0.998213 10C0.998213 10.1316 1.02416 10.2618 1.07458 10.3833C1.12499 10.5048 1.19887 10.6152 1.292 10.708L9.292 18.708C9.47977 18.8958 9.73445 19.0013 10 19.0013C10.2656 19.0013 10.5202 18.8958 10.708 18.708C10.8958 18.5203 11.0013 18.2656 11.0013 18C11.0013 17.7345 10.8958 17.4798 10.708 17.292L4.414 11H28C28.2652 11 28.5196 10.8947 28.7071 10.7071C28.8946 10.5196 29 10.2653 29 10Z" fill="#000"/>
</svg>
