<svg width="182" height="287" viewBox="0 0 182 287" fill="none" xmlns="http://www.w3.org/2000/svg">
<path d="M333.241 160.733C340.215 139.262 340.626 111.968 321.502 93.2938C302.264 74.5071 264.596 83.0509 239.685 69.3753C209.635 52.8793 198.634 16.7548 164.931 7.34145C128.999 -2.69447 77.4413 -5.16569 59.8132 19.1372C40.0179 46.4279 52.8329 69.211 52.4586 102.304C52.2214 123.275 3.26215 175.901 0.679857 196.556C-2.95933 225.665 41.6645 235.94 67.8034 259.284C93.3693 282.117 137.73 271.422 173.928 275.237C205.903 278.608 244.231 295.461 267.824 280.368C292.785 264.399 272.607 227.567 285.607 203.791C295.554 185.6 326.911 180.216 333.241 160.733Z" fill="#F2FAFF"/>
</svg>
