<svg width="167" height="270" viewBox="0 0 167 270" fill="none" xmlns="http://www.w3.org/2000/svg">
<path d="M157.121 177.842C166.85 160.904 172.058 137.868 159.191 118.651C146.247 99.3186 112.833 99.845 94.1757 83.8298C71.6706 64.5116 68.7889 31.9661 41.9287 17.9942C13.2919 3.09812 -29.9215 -8.17529 -49.1749 9.2628C-70.7952 28.8447 -64.0019 50.4172 -70.2118 78.37C-74.147 96.0837 -124.972 131.924 -130.837 148.953C-139.102 172.951 -103.148 189.597 -85.1737 214.018C-67.5929 237.903 -28.1282 236.747 1.84092 246.423C28.314 254.971 57.765 276.066 80.4286 267.488C104.407 258.412 93.881 223.633 109.123 205.817C120.784 192.186 148.293 193.211 157.121 177.842Z" fill="#F2FAFF"/>
</svg>
