<svg width="166" height="280" viewBox="0 0 166 280" fill="none" xmlns="http://www.w3.org/2000/svg">
<path d="M161.837 8.36313C145.776 -0.336016 124.12 -4.66621 106.456 7.81079C88.686 20.363 89.959 51.5872 75.4237 69.4027C57.8906 90.8924 27.5337 94.3469 15.1002 119.783C1.84438 146.901 -7.68431 187.561 9.06713 205.152C27.878 224.906 47.8856 218.051 74.1616 223.203C90.8127 226.468 125.505 273.143 141.561 278.227C164.188 285.392 178.909 251.393 201.317 234.02C223.235 217.026 221.232 180.161 229.577 151.919C236.949 126.972 255.981 98.9474 247.432 77.9616C238.388 55.7586 206.121 66.4109 189.11 52.5791C176.095 41.9964 176.411 16.2568 161.837 8.36313Z" fill="#F2FAFF"/>
</svg>
