<svg width="277" height="209" viewBox="0 0 277 209" fill="none" xmlns="http://www.w3.org/2000/svg">
<g clip-path="url(#clip0_1110_1517)">
<path d="M101.758 55.628C113.723 47.9137 130.202 50.911 141.859 59.0847C145.664 61.7886 149.158 64.9033 152.278 68.3724C154.098 70.3667 155.823 72.4602 157.474 74.6259C157.88 75.1572 158.285 75.6939 158.682 76.2358C158.953 76.6022 159.222 76.9711 159.489 77.3426C162.836 81.9902 165.904 86.8796 168.908 91.7245C176.406 103.819 184.1 116.274 195.525 124.765C197.879 126.514 201.162 128.089 203.574 126.419C205.667 124.969 205.756 121.919 205.28 119.42C203.51 110.16 197.122 102.486 190.337 95.9358C183.552 89.3853 176.041 83.3797 170.914 75.4644C165.787 67.5492 163.444 56.9821 167.935 48.6921C171.805 41.5483 180.132 37.5411 188.26 37.3545C196.387 37.1696 204.283 40.3258 211.159 44.6597C218.034 48.9954 224.08 54.4967 230.389 59.6191C234.193 62.7095 239.503 65.7759 243.648 63.1594C247.149 60.9482 247.422 55.6399 245.336 52.0658C243.249 48.4918 239.525 46.2456 235.955 44.1509C224.87 37.6451 213.785 31.1399 202.7 24.6353C199.299 22.6414 195.825 20.5837 193.314 17.5433C190.803 14.5047 189.409 10.2339 190.793 6.54398C192.159 2.90764 195.972 0.59861 199.831 0.116732C203.686 -0.364035 207.575 0.70409 211.182 2.15091C224.699 7.57414 256.525 43.0537 265.007 49.1197C270.459 53.0156 276.185 57.9478 276.736 64.6209C277.423 72.9284 269.149 79.8226 260.845 80.6285C252.541 81.4367 244.493 77.8295 237.074 74.0158C229.654 70.2022 222.082 65.9973 213.755 65.4679C205.427 64.9386 196.083 69.3861 194.109 77.4856C192.393 84.5334 196.757 91.8059 202.442 96.3153C206.892 99.8461 212.114 102.197 217.159 104.841C218.56 105.573 219.946 106.33 221.298 107.139C224.759 109.215 227.994 111.645 230.951 114.39C234.056 117.267 236.842 120.469 239.263 123.94C241.195 126.706 242.881 129.635 244.301 132.695C244.517 133.162 244.727 133.636 244.931 134.117C245.124 134.576 245.311 135.041 245.489 135.511C247.804 141.605 248.706 148.433 245.748 154.122C242.798 159.795 236.407 163.154 230.026 163.62C226.335 163.84 222.636 163.352 219.128 162.182C216.549 161.345 214.052 160.273 211.669 158.979C200.621 153.054 191.874 143.66 183.886 134.002C175.9 124.345 168.38 114.176 158.899 105.978C149.419 97.7788 137.538 91.5796 124.999 91.6737C112.46 91.7661 99.5332 99.3992 95.9719 111.41C90.7809 102.474 87.2707 92.2868 87.7341 81.9659C88.1976 71.645 93.0694 61.2312 101.758 55.628Z" fill="#3F3D56"/>
<path d="M150.406 89.0183C151.167 89.0183 151.784 88.4021 151.784 87.642C151.784 86.8818 151.167 86.2656 150.406 86.2656C149.645 86.2656 149.028 86.8818 149.028 87.642C149.028 88.4021 149.645 89.0183 150.406 89.0183Z" fill="#479FDE"/>
<path d="M98.4886 90.9861C99.6649 90.9861 100.618 90.0334 100.618 88.8582C100.618 87.6829 99.6649 86.7302 98.4886 86.7302C97.3122 86.7302 96.3586 87.6829 96.3586 88.8582C96.3586 90.0334 97.3122 90.9861 98.4886 90.9861Z" fill="#FF6584"/>
<path d="M252.435 72.1577C252.87 72.1577 253.222 71.8057 253.222 71.3715C253.222 70.9372 252.87 70.5852 252.435 70.5852C252.001 70.5852 251.648 70.9372 251.648 71.3715C251.648 71.8057 252.001 72.1577 252.435 72.1577Z" fill="#FF6584"/>
<path d="M236.512 29.9004C236.947 29.9004 237.299 29.5484 237.299 29.1141C237.299 28.6799 236.947 28.3279 236.512 28.3279C236.077 28.3279 235.725 28.6799 235.725 29.1141C235.725 29.5484 236.077 29.9004 236.512 29.9004Z" fill="#FF6584"/>
<path d="M216.262 106.672C216.486 106.028 216.787 105.413 217.159 104.841C218.56 105.573 219.946 106.33 221.298 107.139C224.759 109.215 227.994 111.645 230.951 114.39C229.761 116.006 228.03 117.142 226.073 117.592C224.116 118.042 222.063 117.775 220.285 116.842C218.508 115.908 217.124 114.368 216.386 112.502C215.648 110.636 215.604 108.568 216.262 106.672L216.262 106.672Z" fill="#FF6584"/>
<path d="M115.895 81.0843C116.339 81.0843 116.7 80.7243 116.7 80.2802C116.7 79.8361 116.339 79.4761 115.895 79.4761C115.45 79.4761 115.09 79.8361 115.09 80.2802C115.09 80.7243 115.45 81.0843 115.895 81.0843Z" fill="#F0F0F0"/>
<path d="M214.505 21.5897C214.95 21.5897 215.31 21.2297 215.31 20.7856C215.31 20.3415 214.95 19.9814 214.505 19.9814C214.061 19.9814 213.7 20.3415 213.7 20.7856C213.7 21.2297 214.061 21.5897 214.505 21.5897Z" fill="#F0F0F0"/>
<path d="M207.258 7.26621C207.703 7.26621 208.063 6.90619 208.063 6.46208C208.063 6.01798 207.703 5.65796 207.258 5.65796C206.814 5.65796 206.454 6.01798 206.454 6.46208C206.454 6.90619 206.814 7.26621 207.258 7.26621Z" fill="#F0F0F0"/>
<path d="M264.251 60.6581C264.695 60.6581 265.056 60.298 265.056 59.8539C265.056 59.4098 264.695 59.0498 264.251 59.0498C263.806 59.0498 263.446 59.4098 263.446 59.8539C263.446 60.298 263.806 60.6581 264.251 60.6581Z" fill="#F0F0F0"/>
<path d="M221.972 61.8133C222.417 61.8133 222.777 61.4533 222.777 61.0092C222.777 60.5651 222.417 60.2051 221.972 60.2051C221.528 60.2051 221.167 60.5651 221.167 61.0092C221.167 61.4533 221.528 61.8133 221.972 61.8133Z" fill="#F0F0F0"/>
<path d="M199.537 138.512C199.982 138.512 200.342 138.152 200.342 137.707C200.342 137.263 199.982 136.903 199.537 136.903C199.093 136.903 198.732 137.263 198.732 137.707C198.732 138.152 199.093 138.512 199.537 138.512Z" fill="#F0F0F0"/>
<path d="M174.245 63.0809C174.689 63.0809 175.05 62.7209 175.05 62.2768C175.05 61.8327 174.689 61.4727 174.245 61.4727C173.8 61.4727 173.44 61.8327 173.44 62.2768C173.44 62.7209 173.8 63.0809 174.245 63.0809Z" fill="#F0F0F0"/>
<path d="M173.115 47.8756C173.559 47.8756 173.92 47.5156 173.92 47.0715C173.92 46.6273 173.559 46.2673 173.115 46.2673C172.67 46.2673 172.31 46.6273 172.31 47.0715C172.31 47.5156 172.67 47.8756 173.115 47.8756Z" fill="#F0F0F0"/>
<path d="M217.237 141.128C218.564 137.29 220.785 133.822 223.717 131.011C224.104 130.641 224.502 130.283 224.911 129.938C228.964 126.512 233.976 124.418 239.263 123.94C241.195 126.706 242.881 129.635 244.301 132.695C244.517 133.162 244.727 133.636 244.931 134.117C245.124 134.576 245.311 135.041 245.489 135.511C247.804 141.605 248.706 148.433 245.748 154.122C242.798 159.795 236.407 163.154 230.026 163.62C226.335 163.84 222.636 163.352 219.128 162.182C217.229 158.815 216.112 155.065 215.861 151.208C215.83 150.723 215.814 150.237 215.809 149.749C215.789 146.815 216.272 143.899 217.237 141.128V141.128Z" fill="#479FDE"/>
<path d="M206.584 136.033C207.877 132.311 212.713 130.12 220.205 129.861C221.704 129.809 223.353 130.432 224.911 129.938C232.472 127.542 239.332 129.108 244.931 134.117C245.124 134.576 245.311 135.041 245.489 135.511C245.414 135.483 245.339 135.457 245.264 135.431C237.698 132.808 230.187 131.276 223.717 131.011C222.521 130.963 221.095 130.272 220.244 130.996C213.404 136.811 208.779 134.374 207.657 136.405C206.019 139.37 208.925 143.991 214.184 148.441C214.704 148.881 215.246 149.317 215.809 149.749C215.814 150.237 215.83 150.723 215.861 151.208C215.013 150.582 214.209 149.948 213.45 149.307C207.73 144.467 205.292 139.752 206.584 136.033Z" fill="#E4E4E4"/>
<path d="M234.922 162.391C235.367 162.391 235.727 162.031 235.727 161.587C235.727 161.143 235.367 160.783 234.922 160.783C234.478 160.783 234.117 161.143 234.117 161.587C234.117 162.031 234.478 162.391 234.922 162.391Z" fill="#F0F0F0"/>
<path d="M220.682 152.049C221.127 152.049 221.487 151.689 221.487 151.245C221.487 150.8 221.127 150.44 220.682 150.44C220.238 150.44 219.877 150.8 219.877 151.245C219.877 151.689 220.238 152.049 220.682 152.049Z" fill="#F0F0F0"/>
<path d="M231.577 154.234C235.9 154.234 239.404 150.733 239.404 146.414C239.404 142.096 235.9 138.595 231.577 138.595C227.254 138.595 223.75 142.096 223.75 146.414C223.75 150.733 227.254 154.234 231.577 154.234Z" fill="#F0F0F0"/>
<path opacity="0.3" d="M108.604 59.9675C110.434 60.0534 114.218 60.9612 118.319 62.1347C122.417 63.3095 126.862 64.7427 131.251 66.1603C138.933 68.6398 146.615 71.1185 154.297 73.5965C155.353 73.9366 156.412 74.2798 157.474 74.6259C157.88 75.1573 158.285 75.6939 158.682 76.2359C157.748 75.9062 156.811 75.5873 155.877 75.2834C151.885 73.9873 148.421 73.1325 144.547 71.9534C138.584 70.1403 132.294 67.7592 126.194 65.5419C120.094 63.3228 113.095 60.9342 108.604 59.9675Z" fill="#F0F0F0"/>
<path opacity="0.3" d="M245.2 44.2255L262.479 72.8836L246.174 43.6555C246.155 43.5627 246.115 43.4757 246.055 43.4019C245.996 43.328 245.92 43.2693 245.833 43.2307C245.747 43.1921 245.652 43.1747 245.557 43.1799C245.463 43.1851 245.371 43.2127 245.289 43.2606C245.207 43.3084 245.138 43.3751 245.087 43.455C245.036 43.535 245.005 43.6259 244.996 43.7202C244.987 43.8145 245.001 43.9096 245.037 43.9974C245.072 44.0853 245.128 44.1635 245.2 44.2255V44.2255Z" fill="#F0F0F0"/>
<path d="M236.772 128.801C237.217 128.801 237.577 128.441 237.577 127.997C237.577 127.553 237.217 127.193 236.772 127.193C236.328 127.193 235.968 127.553 235.968 127.997C235.968 128.441 236.328 128.801 236.772 128.801Z" fill="#F0F0F0"/>
<path d="M95.5988 126.147C98.4486 126.147 100.759 123.839 100.759 120.992C100.759 118.145 98.4486 115.837 95.5988 115.837C92.7491 115.837 90.439 118.145 90.439 120.992C90.439 123.839 92.7491 126.147 95.5988 126.147Z" fill="#479FDE"/>
<path d="M92.5418 118.162C92.0216 118.02 91.5388 117.765 91.1277 117.416C90.7165 117.068 90.3868 116.633 90.162 116.143C89.9371 115.654 89.8224 115.12 89.8261 114.582C89.8297 114.043 89.9516 113.511 90.1831 113.024L80.8401 103.835L87.5033 102.414L95.3541 111.359C96.1467 111.802 96.7492 112.519 97.0475 113.376C97.3458 114.233 97.3191 115.17 96.9724 116.008C96.6258 116.847 95.9833 117.529 95.1667 117.926C94.3501 118.323 93.4162 118.407 92.5418 118.162L92.5418 118.162Z" fill="#A0616A"/>
<path d="M47.8695 46.6428L53.08 50.0739L59.1789 51.5013C59.1789 51.5013 64.016 86.0399 66.393 88.1116C68.7699 90.1833 66.7671 90.3797 67.4112 93.2374C68.0553 96.0951 69.546 101.941 69.546 101.941C55.0671 110.908 42.1322 112.003 31.0964 103.415C30.9241 102.849 30.9506 102.241 31.1715 101.693C31.3923 101.144 31.7943 100.687 32.3107 100.397C34.1766 99.2393 30.1294 94.7026 31.6568 93.794C33.1843 92.8854 30.4851 86.0894 30.4851 86.0894L30.9561 71.4944L29.6448 69.2558L31.4921 54.8859L36.2542 52.7716L37.8847 47.9429L47.8695 46.6428Z" fill="#479FDE"/>
<path d="M50.1272 47.8542L58.7188 50.7126C58.7188 50.7126 68.2228 49.71 68.6079 63.8447C68.993 77.9793 67.2218 85.5642 67.2218 85.5642C67.2218 85.5642 86.9916 125.284 65.5764 113.553L59.3182 88.9339L52.8684 50.2707L50.1272 47.8542Z" fill="#2F2E41"/>
<path d="M58.7434 79.104L63.1999 78.489C63.1999 78.489 63.6301 85.2016 65.7618 86.219C67.8935 87.2363 67.1749 87.4037 67.4263 88.4807C67.6776 89.5576 65.5307 92.5415 67.2193 93.2836C68.9079 94.0256 83.6664 112.615 83.6664 112.615L92.3737 104.56C91.7752 102.94 88.8956 104.258 88.715 102.541C88.4878 99.9446 83.9299 92.8513 82.9599 91.9418C81.9899 91.0324 82.3734 89.429 81.8707 87.2752C81.3679 85.1214 81.7169 87.1185 80.879 83.5288C80.0411 79.9391 68.6862 61.6477 68.2914 58.3333C67.8966 55.0188 63.2739 53.0679 63.2739 53.0679L59.6808 53.905L58.7434 79.104Z" fill="#2F2E41"/>
<path d="M21.1169 198.47L26.362 199.846L34.1705 180.289L26.4294 178.258L21.1169 198.47Z" fill="#A0616A"/>
<path d="M19.4951 203.888L35.6242 208.12L35.6778 207.916C36.115 206.252 35.8729 204.484 35.0048 202.999C34.1367 201.513 32.7137 200.434 31.0487 199.997L31.0484 199.997L28.6892 196.99L22.6052 197.782L21.1973 197.412L19.4951 203.888Z" fill="#2F2E41"/>
<path d="M48.005 202.39L53.4273 202.39L56.0073 181.492L48.0037 181.493L48.005 202.39Z" fill="#A0616A"/>
<path d="M47.8138 208.042L64.4897 208.042V207.831C64.4896 206.111 63.8057 204.462 62.5885 203.246C61.3712 202.03 59.7204 201.346 57.999 201.346H57.9986L54.9525 199.038L49.2692 201.347L47.8135 201.347L47.8138 208.042Z" fill="#2F2E41"/>
<path d="M34.4413 102.388C33.1314 104.024 33.7864 109.586 33.7864 109.586C33.7864 109.586 31.4939 127.581 32.4764 129.217C33.4589 130.853 31.8214 132.162 30.8389 134.452C29.8565 136.742 28.874 142.305 28.874 142.305C23.3066 146.885 23.6341 167.825 23.6341 167.825L21.6692 186.475C22.3242 188.438 31.4939 188.765 32.8039 188.438C34.1139 188.111 46.886 141.977 46.886 141.977C46.886 141.977 46.231 186.475 46.231 188.438C46.231 190.401 55.0733 189.42 57.0383 189.42C59.0032 189.42 71.4479 109.259 71.4479 109.259V104.678L69.8104 102.388C69.8104 102.388 35.7513 100.752 34.4413 102.388Z" fill="#2F2E41"/>
<path d="M37.5501 48.8208L29.5078 53.94L25.6179 57.1978L30.7778 90.0615C30.7778 90.0615 22.9384 119.934 35.2927 118.092C47.647 116.251 46.9544 89.4047 46.9544 89.4047L37.5501 48.8208Z" fill="#2F2E41"/>
<path d="M48.3113 95.5055C47.8472 95.7801 47.3285 95.9497 46.7917 96.0023C46.2549 96.0549 45.7131 95.9894 45.2044 95.8102C44.6957 95.631 44.2326 95.3425 43.8475 94.9652C43.4625 94.5878 43.165 94.1307 42.9759 93.626L29.8687 93.9423L33.481 88.1709L45.3741 88.7554C46.2438 88.4942 47.1791 88.5609 48.0029 88.9427C48.8267 89.3245 49.4817 89.9949 49.8437 90.827C50.2058 91.659 50.2497 92.5949 49.9673 93.4571C49.6849 94.3194 49.0957 95.0482 48.3113 95.5055V95.5055Z" fill="#A0616A"/>
<path d="M41.7721 44.3768C47.4927 44.3768 52.1302 39.7437 52.1302 34.0284C52.1302 28.3131 47.4927 23.6799 41.7721 23.6799C36.0515 23.6799 31.4141 28.3131 31.4141 34.0284C31.4141 39.7437 36.0515 44.3768 41.7721 44.3768Z" fill="#A0616A"/>
<path d="M30.023 27.2288C31.1861 25.4311 33.3687 24.233 35.4846 24.5696C35.6816 23.2205 36.2452 21.9513 37.1142 20.9001C37.9831 19.8489 39.1241 19.056 40.4129 18.6078C41.7016 18.1596 43.0888 18.0732 44.4233 18.3581C45.7578 18.643 46.9884 19.2882 47.9813 20.2234C48.3078 19.9938 48.6882 19.8522 49.0855 19.8125C49.4829 19.7727 49.8838 19.8362 50.2494 19.9967C50.9776 20.3275 51.6112 20.8355 52.092 21.4743C53.3061 22.987 54.087 24.8003 54.3514 26.7212C54.6159 28.6421 54.354 30.5987 53.5938 32.3827C53.8524 31.4435 52.9103 30.5599 51.9584 30.3492C51.0065 30.1384 50.0081 30.3378 49.0428 30.2006C47.8056 30.0247 46.6935 29.3077 45.4544 29.1463C44.413 29.0107 43.3657 29.2774 42.3502 29.5448C41.3347 29.8122 40.2901 30.0848 39.2473 29.9611C38.2043 29.8374 36.861 33.7861 36.879 36.5672C36.8824 37.0943 36.7737 37.771 36.2582 37.8828C35.6233 38.0205 35.2554 37.145 34.6511 36.9065C34.3726 36.8267 34.074 36.8581 33.8182 36.994C33.5624 37.1299 33.3693 37.3597 33.2798 37.635C33.2036 37.9149 33.1955 38.2089 33.256 38.4925C33.3165 38.7761 33.444 39.0412 33.6278 39.2657C33.9993 39.7108 34.4402 40.0929 34.9337 40.3975L34.6848 40.6043C34.2708 41.1507 33.412 41.1744 32.8153 40.8363C32.2447 40.4502 31.7826 39.9246 31.4731 39.3094C30.3691 37.475 29.4007 35.5204 29.0112 33.4155C28.6216 31.3107 28.86 29.0265 30.023 27.2288Z" fill="#2F2E41"/>
<path d="M33.6801 58.1646L29.0256 54.1794C29.0256 54.1794 23.5909 55.8737 22.6694 59.4356C15.4161 68.7014 11.5098 79.523 10.4607 91.6726C19.9303 95.2458 31.5256 96.5134 43.9999 96.8277L41.4199 87.1619L23.6829 83.94L33.6801 58.1646Z" fill="#2F2E41"/>
<path d="M17.1884 203.486L14.702 199.494L14.2054 201.775C14.1183 202.175 14.0312 202.581 13.9506 202.984C13.2444 202.381 12.4929 201.824 11.7577 201.289C9.50026 199.652 7.24387 198.013 4.98853 196.372L5.69476 200.464C6.13016 202.984 6.58492 205.555 7.662 207.858C7.78136 208.119 7.91031 208.377 8.04905 208.629H18.5429C18.6274 208.395 18.6858 208.153 18.7171 207.907C18.7197 207.891 18.7208 207.875 18.7202 207.858C18.8848 206.296 18.0205 204.823 17.1884 203.486Z" fill="#F2F2F2"/>
<path d="M109.927 198.9L114.631 191.348L115.571 195.664C115.736 196.419 115.9 197.188 116.053 197.949C117.389 196.81 118.811 195.755 120.202 194.743C124.472 191.647 128.741 188.546 133.008 185.442L131.672 193.183C130.848 197.949 129.988 202.814 127.95 207.172C127.724 207.665 127.48 208.153 127.218 208.629H107.365C107.205 208.187 107.095 207.729 107.035 207.263C107.03 207.233 107.028 207.202 107.029 207.172C106.718 204.215 108.353 201.43 109.927 198.9Z" fill="#F2F2F2"/>
<path d="M106.237 208.79H84.6377C83.6535 208.789 82.7098 208.398 82.0139 207.702C81.3179 207.007 80.9264 206.064 80.9253 205.081V129.373C80.9264 128.39 81.3179 127.447 82.0139 126.752C82.7098 126.056 83.6535 125.665 84.6377 125.664H106.237C107.221 125.665 108.165 126.056 108.861 126.752C109.557 127.447 109.948 128.39 109.95 129.373V205.081C109.948 206.064 109.557 207.007 108.861 207.702C108.165 208.398 107.221 208.789 106.237 208.79V208.79Z" fill="#F2F2F2"/>
<path d="M101.137 127.597H90.0604C89.6904 127.597 89.3357 127.45 89.0742 127.188C88.8126 126.927 88.6655 126.573 88.665 126.203V122.225C88.6655 121.856 88.8126 121.501 89.0742 121.24C89.3357 120.979 89.6904 120.832 90.0604 120.831H101.137C101.507 120.832 101.861 120.979 102.123 121.24C102.385 121.501 102.532 121.856 102.532 122.225V126.203C102.532 126.573 102.385 126.927 102.123 127.188C101.861 127.45 101.507 127.597 101.137 127.597Z" fill="#3F3D56"/>
<path d="M132.815 208.901L-0.615903 209C-0.71755 209 -0.814931 208.959 -0.886702 208.887C-0.958473 208.815 -0.998779 208.718 -0.998779 208.616C-0.998779 208.515 -0.958473 208.417 -0.886702 208.346C-0.814931 208.274 -0.71755 208.233 -0.615903 208.233L132.815 208.134C132.917 208.134 133.014 208.175 133.086 208.247C133.158 208.318 133.198 208.416 133.198 208.517C133.198 208.619 133.158 208.716 133.086 208.788C133.014 208.86 132.917 208.901 132.815 208.901V208.901Z" fill="#CACACA"/>
</g>
<defs>
<clipPath id="clip0_1110_1517">
<rect width="277" height="209" fill="white"/>
</clipPath>
</defs>
</svg>
