<svg width="277" height="150" viewBox="0 0 277 150" fill="none" xmlns="http://www.w3.org/2000/svg">
<g clip-path="url(#clip0_1110_1466)">
<path d="M26.208 119.925H259.522V1.92285H26.208V119.925Z" fill="white"/>
<path d="M261.447 121.848H24.2832V0H261.447V121.848ZM28.1325 118.003H257.597V3.84563H28.1325V118.003Z" fill="#E5E5E5"/>
<path d="M135.101 26.887V66.9384H76.8246L66.0584 79.8439L67.2877 66.9384H62.0492V26.887H135.101Z" fill="#479FDE"/>
<path d="M170.368 29.2632V54.9425H207.732L214.635 63.2167L213.847 54.9425H217.206V29.2632H170.368Z" fill="#F0F0F0"/>
<path d="M16.1644 146.212H19.5354L21.1393 133.222H16.1641L16.1644 146.212Z" fill="#FFB7B7"/>
<path d="M15.3047 145.113L21.9434 145.113H21.9437C23.0657 145.113 24.1418 145.558 24.9352 146.351C25.7286 147.143 26.1743 148.218 26.1744 149.339V149.477L15.3049 149.477L15.3047 145.113Z" fill="#2F2E41"/>
<path d="M56.6645 146.102L59.938 145.297L58.3882 132.3L53.5571 133.488L56.6645 146.102Z" fill="#FFB7B7"/>
<path d="M55.5668 145.239L62.0131 143.654L62.0134 143.654C63.1029 143.387 64.2543 143.562 65.2143 144.142C66.1743 144.723 66.8643 145.66 67.1325 146.749L67.1653 146.882L56.6107 149.477L55.5668 145.239Z" fill="#2F2E41"/>
<path d="M14.0914 143.115L14.7917 139.536C14.7917 139.536 16.0807 125.715 25.3317 111.921L28.3428 96.9376C28.3428 96.9376 27.4485 85.5959 36.0798 79.4566L38.7408 77.6252L48.0704 78.1595L50.2252 89.9452L54.5668 117.832C54.5668 117.832 55.6872 117.937 56.1074 121.161C56.9614 122.516 57.4666 124.06 57.578 125.656C57.578 125.656 59.7999 131.78 60.3951 136.289L60.3251 140.701L55.6333 143.198L45.8545 115.569L38.8602 100.123C38.8602 100.123 35.4938 111.006 30.3376 120.329C30.3376 120.329 23.2753 135.601 21.8644 138.703L20.3238 143.781L14.0914 143.115Z" fill="#2F2E41"/>
<path d="M45.2854 53.9098C48.9683 53.9098 51.9539 50.927 51.9539 47.2476C51.9539 43.5682 48.9683 40.5854 45.2854 40.5854C41.6025 40.5854 38.6169 43.5682 38.6169 47.2476C38.6169 50.927 41.6025 53.9098 45.2854 53.9098Z" fill="#FFB7B7"/>
<path d="M45.2854 53.9098C48.9683 53.9098 51.9539 50.927 51.9539 47.2476C51.9539 43.5682 48.9683 40.5854 45.2854 40.5854C41.6025 40.5854 38.6169 43.5682 38.6169 47.2476C38.6169 50.927 41.6025 53.9098 45.2854 53.9098Z" fill="#FFB8B8"/>
<path d="M36.0994 79.5278L38.3007 74.0343C36.7454 69.0013 36.8407 63.6034 38.5728 58.6284V58.6284L38.994 58.2818C42.6631 55.2631 45.8835 55.8127 48.8719 59.5054C49.3531 60.1057 49.9159 60.6359 50.5441 61.0806C51.8621 62.0044 53.9531 67.0236 51.1922 69.9658L48.9835 82.8377C49.2161 89.9445 44.0542 87.2685 36.0994 79.5278Z" fill="#3F3D56"/>
<path d="M67.6637 72.0559C67.379 71.8409 67.0505 71.6907 66.7015 71.6162C66.3525 71.5416 65.9913 71.5444 65.6435 71.6244C65.2956 71.7043 64.9696 71.8595 64.6883 72.079C64.407 72.2985 64.1773 72.5769 64.0153 72.8947L58.453 72.462L57.3654 75.7749L65.2291 76.2757C65.7814 76.5121 66.4014 76.5379 66.9715 76.3482C67.5417 76.1584 68.0223 75.7663 68.3224 75.2462C68.6225 74.726 68.7212 74.114 68.5998 73.526C68.4783 72.938 68.1453 72.415 67.6636 72.0559H67.6637Z" fill="#FFB7B7"/>
<path d="M62.3383 77.4302L46.4885 74.4736L41.3333 65.8388C41.0021 64.9212 41.0493 63.9098 41.4645 63.027C41.8796 62.1442 42.6288 61.4624 43.5472 61.1315C44.4656 60.8005 45.478 60.8477 46.3616 61.2625C47.2453 61.6773 47.9278 62.4258 48.259 63.3433L50.6769 70.0233L63.2119 72.0962L62.3383 77.4302Z" fill="#CCCCCC"/>
<path d="M33.3988 45.7884C36.9321 45.7884 39.7964 42.9269 39.7964 39.3969C39.7964 35.867 36.9321 33.0054 33.3988 33.0054C29.8655 33.0054 27.0012 35.867 27.0012 39.3969C27.0012 42.9269 29.8655 45.7884 33.3988 45.7884Z" fill="#2F2E41"/>
<path d="M27.8806 44.6896C28.7086 45.2875 29.668 45.6786 30.6783 45.8302C31.6887 45.9818 32.7207 45.8894 33.688 45.5608C34.6553 45.2322 35.5298 44.677 36.2382 43.9415C36.9467 43.2061 37.4686 42.3118 37.7602 41.3335C37.6498 42.2102 37.3587 43.0545 36.9053 43.8131C36.4519 44.5717 35.8459 45.2282 35.1257 45.741C34.4055 46.2539 33.5867 46.612 32.721 46.7927C31.8553 46.9735 30.9615 46.973 30.096 46.7912C29.2305 46.6094 28.4121 46.2503 27.6925 45.7366C26.9729 45.2229 26.3678 44.5658 25.9152 43.8066C25.4627 43.0474 25.1726 42.2028 25.0633 41.326C24.954 40.4492 25.0279 39.5593 25.2802 38.7124C25.1369 39.8502 25.3027 41.0055 25.7602 42.0571C26.2178 43.1088 26.9502 44.0181 27.8806 44.6896V44.6896Z" fill="#2F2E41"/>
<path d="M53.1282 44.6968C52.0114 42.6992 51.584 41.8648 50.144 40.6501C48.8706 39.5758 47.3042 39.2603 46.0408 40.2782C44.5462 39.6331 42.8831 39.4868 41.2987 39.8611C39.7143 40.2354 38.293 41.1103 37.2459 42.3559C36.1988 43.6015 35.5818 45.1513 35.4866 46.7751C35.3914 48.3989 35.823 50.0101 36.7173 51.3693C37.6116 52.7286 38.9209 53.7633 40.4508 54.3199C41.9806 54.8765 43.6494 54.9253 45.2091 54.4589C46.7689 53.9925 48.1365 53.036 49.1088 51.7312C50.0811 50.4265 50.6061 48.8433 50.606 47.2167C50.6049 46.931 50.5877 46.6457 50.5545 46.362C51.6527 46.2079 52.03 44.8509 53.1282 44.6968Z" fill="#2F2E41"/>
<path d="M249.8 92.5134C249.82 92.0725 249.938 91.6416 250.144 91.251C250.349 90.8603 250.638 90.5195 250.99 90.2525C251.342 89.9855 251.748 89.7987 252.179 89.7054C252.611 89.6122 253.058 89.6146 253.489 89.7126L257.485 84.0862L261.5 85.6784L255.745 93.5448C255.532 94.2569 255.065 94.8662 254.433 95.2574C253.8 95.6486 253.046 95.7944 252.314 95.6673C251.581 95.5401 250.92 95.1489 250.457 94.5676C249.993 93.9863 249.76 93.2554 249.8 92.5134V92.5134Z" fill="#A0616A"/>
<path d="M254.183 87.6749L261.288 75.7364L258.393 68.0243L262.336 57.5205L262.481 57.5828C262.577 57.6236 264.817 58.6223 265.149 62.1989L269.68 76.4247L257.588 92.0966L254.183 87.6749Z" fill="#3F3D56"/>
<path d="M215.595 43.7851C216.033 43.84 216.454 43.9903 216.828 44.2253C217.202 44.4604 217.52 44.7744 217.759 45.1455C217.998 45.5165 218.153 45.9354 218.213 46.3727C218.273 46.81 218.236 47.2551 218.105 47.6766L223.411 52.092L221.511 55.9678L214.106 49.6272C213.412 49.3602 212.84 48.8482 212.498 48.188C212.157 47.5279 212.07 46.7655 212.253 46.0454C212.437 45.3253 212.878 44.6975 213.494 44.2809C214.11 43.8643 214.858 43.6879 215.595 43.7851V43.7851Z" fill="#A0616A"/>
<path d="M220.085 48.5259L231.45 56.5261L239.37 54.239L249.547 58.9781L249.474 59.1181C249.426 59.2099 248.256 61.3641 244.661 61.4182L230.114 64.8312L215.409 51.5753L220.085 48.5259Z" fill="#3F3D56"/>
<path d="M240.88 145.812H236.929L235.05 130.587L240.881 130.587L240.88 145.812Z" fill="#A0616A"/>
<path d="M234.107 144.684H241.727V149.477H229.31C229.31 148.847 229.434 148.224 229.675 147.643C229.916 147.061 230.269 146.533 230.715 146.088C231.16 145.643 231.689 145.29 232.271 145.049C232.853 144.808 233.477 144.684 234.107 144.684V144.684Z" fill="#2F2E41"/>
<path d="M256.671 145.812H252.72L250.841 130.587L256.672 130.587L256.671 145.812Z" fill="#A0616A"/>
<path d="M249.898 144.684H257.518V149.477H245.101C245.101 148.847 245.225 148.224 245.466 147.643C245.707 147.061 246.06 146.533 246.506 146.088C246.951 145.643 247.48 145.29 248.062 145.049C248.644 144.808 249.268 144.684 249.898 144.684V144.684Z" fill="#2F2E41"/>
<path d="M258.076 90.2395L257.754 112.777L257.431 142.397L250.342 141.753L246.797 100.864L242.285 141.753H234.966L234.228 100.542L236.807 91.5271L258.076 90.2395Z" fill="#2F2E41"/>
<path d="M236.1 91.6649L235.02 91.6182L240.037 64.0071L237.982 55.6616C237.876 55.2274 237.932 54.7691 238.141 54.3737C238.35 53.9782 238.697 53.673 239.116 53.516L242.811 52.1314L244.117 48.5439L254.419 49.653L254.673 52.4567C255.789 52.8144 264.982 55.8731 264.348 59.3583C263.722 62.7983 260.025 73.6211 259.837 74.1696L259.19 89.6908L259.11 89.7306C259.015 89.7785 251.914 93.2666 244.2 93.266C241.416 93.3126 238.655 92.7668 236.1 91.6649V91.6649Z" fill="#3F3D56"/>
<path d="M248.865 46.7685C252.961 46.7685 256.282 43.4507 256.282 39.358C256.282 35.2653 252.961 31.9475 248.865 31.9475C244.768 31.9475 241.447 35.2653 241.447 39.358C241.447 43.4507 244.768 46.7685 248.865 46.7685Z" fill="#A0616A"/>
<path d="M254.873 46.5317C253.459 48.036 250.834 47.2284 250.65 45.1733C250.635 45.0137 250.636 44.8531 250.653 44.6938C250.748 43.7834 251.274 42.9569 251.148 41.9957C251.12 41.7565 251.03 41.5285 250.889 41.3334C249.763 39.8264 247.118 42.0074 246.055 40.6432C245.403 39.8067 246.17 38.4896 245.669 37.5546C245.009 36.3207 243.053 36.9294 241.827 36.2536C240.463 35.5017 240.544 33.4102 241.442 32.138C242.538 30.5865 244.458 29.7587 246.355 29.6394C248.252 29.5201 250.135 30.0323 251.906 30.7217C253.918 31.505 255.913 32.5875 257.151 34.3548C258.656 36.5041 258.801 39.3936 258.048 41.9068C257.59 43.4356 256.027 45.3032 254.873 46.5317Z" fill="#2F2E41"/>
<path d="M174.508 143.765L175.61 140.933L165.201 135.339L163.575 139.518L174.508 143.765Z" fill="#FFB8B8"/>
<path d="M180.412 136.377C179.945 136.196 179.446 136.108 178.945 136.119C178.444 136.129 177.95 136.239 177.491 136.441C177.032 136.642 176.618 136.932 176.271 137.294C175.925 137.656 175.653 138.083 175.472 138.55L174.728 140.459L173.582 143.405L173.302 144.128L176.975 145.555L180.527 136.423L180.412 136.377Z" fill="#2F2E41"/>
<path d="M173.583 138.315L173.103 139.584L171.907 142.754L171.879 142.833C168.831 143.224 165.491 142.457 162.401 141.266C161.164 140.789 159.954 140.25 158.773 139.649C157.026 138.766 155.461 137.836 154.213 137.039C152.334 135.834 151.172 134.93 151.172 134.93C151.172 134.93 150.865 135.207 150.309 135.682C149.565 136.318 148.375 137.312 146.868 138.482C146.293 138.932 145.676 139.402 145.016 139.892C140.154 143.495 133.914 133.881 133.914 133.881C133.914 133.881 135.669 132.765 136.128 132.548C137.604 131.85 141.072 130.204 144.064 128.741C145.606 127.986 147.019 127.278 147.968 126.775C151.328 124.988 155.505 128.37 155.505 128.37L173.583 138.315Z" fill="#2F2E41"/>
<path opacity="0.14" d="M173.583 138.315L173.103 139.584L171.907 142.754L171.879 142.833C168.831 143.224 165.491 142.457 162.401 141.266C161.164 140.789 159.954 140.25 158.773 139.649C157.026 138.766 155.461 137.836 154.213 137.039C152.334 135.834 151.172 134.93 151.172 134.93C151.172 134.93 150.865 135.207 150.309 135.682C149.565 136.318 148.375 137.312 146.868 138.482C146.293 138.932 145.676 139.402 145.016 139.892C140.154 143.495 133.914 133.881 133.914 133.881C133.914 133.881 135.669 132.765 136.128 132.548C137.604 131.85 141.072 130.204 144.064 128.741C145.606 127.986 147.019 127.278 147.968 126.775C151.328 124.988 155.505 128.37 155.505 128.37L173.583 138.315Z" fill="black"/>
<path d="M124.949 111.661H110.562C110.266 111.661 109.982 111.543 109.773 111.334C109.563 111.125 109.446 110.842 109.445 110.546V104.35C109.445 102.149 110.321 100.037 111.879 98.48C113.438 96.923 115.551 96.0483 117.755 96.0483C119.959 96.0483 122.073 96.923 123.631 98.48C125.19 100.037 126.065 102.149 126.065 104.35V110.546C126.065 110.842 125.947 111.125 125.738 111.334C125.529 111.543 125.245 111.661 124.949 111.661V111.661Z" fill="#2F2E41"/>
<path d="M138.631 119.443C138.296 119.502 137.978 119.633 137.699 119.828C137.421 120.023 137.188 120.276 137.018 120.571C136.849 120.865 136.745 121.193 136.716 121.531C136.687 121.87 136.732 122.21 136.848 122.53L132.936 126.124L134.543 129.032L139.997 123.878C140.52 123.647 140.94 123.232 141.178 122.711C141.416 122.191 141.454 121.601 141.285 121.055C141.117 120.508 140.754 120.042 140.265 119.745C139.775 119.448 139.194 119.341 138.631 119.443V119.443Z" fill="#FFB8B8"/>
<path d="M126.859 135.787C126.683 135.787 126.506 135.78 126.328 135.764C125.273 135.676 124.257 135.322 123.377 134.734C122.496 134.147 121.779 133.345 121.293 132.405L115.026 120.353C114.615 119.563 114.525 118.646 114.774 117.791C115.023 116.937 115.593 116.211 116.364 115.766C117.135 115.32 118.048 115.188 118.914 115.398C119.779 115.608 120.531 116.143 121.011 116.892L126.794 129.854L134.662 123.467L139.218 125.239L131.524 133.725C130.932 134.374 130.212 134.892 129.409 135.247C128.606 135.602 127.738 135.786 126.859 135.787V135.787Z" fill="#479FDE"/>
<path d="M173.628 147.747L174.945 145.009L164.997 138.632L163.054 142.674L173.628 147.747Z" fill="#FFB8B8"/>
<path d="M180.083 140.835C179.631 140.618 179.141 140.492 178.641 140.465C178.14 140.437 177.639 140.508 177.166 140.674C176.693 140.84 176.258 141.097 175.884 141.432C175.511 141.766 175.207 142.17 174.991 142.622L174.103 144.468L172.733 147.318L172.398 148.017L175.951 149.722L180.195 140.89L180.083 140.835Z" fill="#2F2E41"/>
<path d="M173.125 142.243L172.55 143.472L171.113 146.54L171.079 146.617C168.01 146.773 164.739 145.752 161.749 144.327C160.553 143.757 159.388 143.126 158.257 142.436C156.582 141.422 155.094 140.374 153.911 139.484C152.13 138.139 151.041 137.148 151.041 137.148C151.041 137.148 150.713 137.4 150.123 137.832C149.332 138.409 148.069 139.309 146.477 140.359C145.869 140.763 145.217 141.185 144.522 141.623C139.397 144.842 132.109 148.763 125.91 149.591C115.023 151.045 117.585 136.53 117.585 136.53L126.25 132.035L129.929 132.781L134.024 133.609L135.475 133.904C135.475 133.904 135.751 133.799 136.224 133.619C137.75 133.036 141.334 131.661 144.43 130.432C146.025 129.797 147.489 129.2 148.473 128.771C151.961 127.247 155.866 130.94 155.866 130.94L173.125 142.243Z" fill="#2F2E41"/>
<path d="M101.73 149.937C102.062 149.861 102.373 149.713 102.641 149.504C102.909 149.296 103.128 149.03 103.282 148.728C103.437 148.425 103.523 148.092 103.535 147.753C103.547 147.413 103.484 147.075 103.351 146.763L107.072 142.971L105.316 140.149L100.137 145.578C99.6262 145.837 99.2279 146.273 99.0175 146.805C98.8072 147.337 98.7995 147.927 98.9959 148.465C99.1923 149.002 99.5792 149.449 100.083 149.72C100.587 149.991 101.173 150.069 101.73 149.937H101.73Z" fill="#FFB8B8"/>
<path d="M119.792 111.938C122.996 111.938 125.593 109.343 125.593 106.142C125.593 102.941 122.996 100.346 119.792 100.346C116.588 100.346 113.991 102.941 113.991 106.142C113.991 109.343 116.588 111.938 119.792 111.938Z" fill="#FFB8B8"/>
<path d="M112.245 122.23L117.298 136.543L117.268 136.593C116.565 137.754 116.336 138.69 116.604 139.301C116.675 139.456 116.778 139.594 116.907 139.706C117.037 139.817 117.189 139.899 117.353 139.946L129.311 131.596L128.892 128.249L128.916 128.211C130.072 126.364 130.446 124.69 130.028 123.238C129.65 122.063 128.833 121.079 127.747 120.49L127.706 120.457L121.741 113.204L113.768 114.62L112.245 122.23Z" fill="#479FDE"/>
<path d="M104.56 147.353L101.175 143.191L109.336 129.731L113.141 117.982L113.259 118.02L113.141 117.982C113.349 117.34 113.692 116.75 114.147 116.252C114.603 115.753 115.16 115.359 115.781 115.094C116.402 114.829 117.072 114.7 117.747 114.716C118.422 114.732 119.086 114.892 119.694 115.186C120.302 115.48 120.84 115.9 121.271 116.419C121.702 116.938 122.017 117.544 122.195 118.195C122.372 118.846 122.408 119.527 122.299 120.193C122.191 120.859 121.941 121.494 121.566 122.055L114.58 132.51L104.56 147.353Z" fill="#479FDE"/>
<path d="M128.031 104.97H119.234L119.143 103.708L118.692 104.97H117.338L117.159 102.469L116.265 104.97H113.644V104.846C113.646 103.105 114.339 101.436 115.571 100.204C116.804 98.9733 118.474 98.2808 120.217 98.2788H121.458C123.2 98.2808 124.871 98.9733 126.104 100.204C127.336 101.436 128.029 103.105 128.031 104.846V104.97Z" fill="#2F2E41"/>
<path d="M119.161 112.818C119.095 112.818 119.029 112.812 118.964 112.8L112.522 111.665V101.028H119.613L119.438 101.233C116.995 104.079 118.835 108.694 120.15 111.191C120.247 111.374 120.29 111.581 120.274 111.787C120.259 111.994 120.185 112.191 120.062 112.358C119.959 112.5 119.824 112.616 119.667 112.696C119.511 112.776 119.337 112.818 119.161 112.818Z" fill="#2F2E41"/>
<path d="M215.406 93.762V108.746H148.961L139.366 120.247L140.462 108.746H135.794V93.762H215.406Z" fill="#F0F0F0"/>
<path d="M163.418 103.946C164.919 103.946 166.136 102.73 166.136 101.23C166.136 99.7303 164.919 98.5144 163.418 98.5144C161.917 98.5144 160.7 99.7303 160.7 101.23C160.7 102.73 161.917 103.946 163.418 103.946Z" fill="white"/>
<path d="M154.244 103.946C155.745 103.946 156.962 102.73 156.962 101.23C156.962 99.7303 155.745 98.5144 154.244 98.5144C152.742 98.5144 151.525 99.7303 151.525 101.23C151.525 102.73 152.742 103.946 154.244 103.946Z" fill="white"/>
<path d="M145.069 103.946C146.571 103.946 147.788 102.73 147.788 101.23C147.788 99.7303 146.571 98.5144 145.069 98.5144C143.568 98.5144 142.351 99.7303 142.351 101.23C142.351 102.73 143.568 103.946 145.069 103.946Z" fill="white"/>
<path d="M293.887 149.774H-15.6602C-15.7503 149.774 -15.8368 149.738 -15.9005 149.674C-15.9642 149.611 -16 149.524 -16 149.434C-16 149.344 -15.9642 149.258 -15.9005 149.194C-15.8368 149.131 -15.7503 149.095 -15.6602 149.095H293.887C293.978 149.095 294.064 149.131 294.128 149.194C294.191 149.258 294.227 149.344 294.227 149.434C294.227 149.524 294.191 149.611 294.128 149.674C294.064 149.738 293.978 149.774 293.887 149.774Z" fill="#CACACA"/>
</g>
<defs>
<clipPath id="clip0_1110_1466">
<rect width="277" height="150" fill="white"/>
</clipPath>
</defs>
</svg>
