<svg width="224" height="236" viewBox="0 0 224 236" fill="none" xmlns="http://www.w3.org/2000/svg">
<g clip-path="url(#clip0_1110_1422)">
<path d="M85.4527 37.5529C91.297 37.5529 96.0347 32.8258 96.0347 26.9946C96.0347 21.1634 91.297 16.4363 85.4527 16.4363C79.6083 16.4363 74.8706 21.1634 74.8706 26.9946C74.8706 32.8258 79.6083 37.5529 85.4527 37.5529Z" fill="#FD6584"/>
<path d="M109.136 21.9951C108.837 21.0187 108.259 20.1508 107.473 19.4981C106.686 18.8454 105.725 18.4364 104.709 18.3215C104.685 18.3196 104.661 18.3196 104.638 18.3215C104.609 18.3127 104.58 18.306 104.55 18.3018C101.007 17.8431 97.0679 18.9582 94.4165 21.3861C93.4322 22.2732 92.6451 23.3563 92.1059 24.5654C91.6144 23.8956 90.9667 23.3554 90.2188 22.9916C89.4709 22.6278 88.6454 22.4513 87.8138 22.4775C86.7413 22.5483 85.7167 22.9473 84.8798 23.6203C84.0429 24.2933 83.4344 25.2074 83.1372 26.2381C83.1046 26.364 83.1135 26.4971 83.1628 26.6175C83.2121 26.7379 83.299 26.8392 83.4107 26.9063C83.7294 27.1784 84.1084 27.3708 84.5164 27.4679C85.3923 27.6537 86.2761 27.8238 87.1599 27.978C88.8878 28.2785 90.625 28.5223 92.3715 28.7095C93.5248 28.8321 94.6807 28.9296 95.8393 29.0021C98.2331 29.1524 100.639 29.188 103.036 29.1129C104.225 29.0733 105.367 29.0338 106.453 28.5118C107.244 28.1235 107.92 27.5361 108.415 26.8075C108.88 26.1067 109.186 25.3126 109.31 24.4811C109.435 23.6497 109.375 22.8011 109.136 21.9951V21.9951Z" fill="#E6E6E6"/>
<path d="M87.3661 37.3774C87.3461 36.935 87.2715 36.4967 87.1442 36.0724C86.8443 35.0962 86.2653 34.2285 85.4782 33.5759C84.6911 32.9234 83.7301 32.5143 82.7133 32.3989C82.6909 32.3969 82.6684 32.3969 82.646 32.3989C82.616 32.3904 82.5856 32.3838 82.5548 32.3791C80.5938 32.1395 78.604 32.3435 76.7329 32.9762C73.8556 33.9371 71.331 35.8747 70.1143 38.6427C69.6223 37.9725 68.9739 37.432 68.2253 37.0682C67.4767 36.7044 66.6505 36.5282 65.8182 36.5548C64.7457 36.6256 63.7211 37.0246 62.8842 37.6976C62.0473 38.3706 61.4388 39.2847 61.1416 40.3154C61.1108 40.4413 61.1206 40.5738 61.1698 40.6938C61.2189 40.8138 61.3047 40.9153 61.4151 40.9837C61.7343 41.2549 62.1131 41.4473 62.5208 41.5452C63.4006 41.731 64.2805 41.9011 65.1682 42.0553C66.8962 42.3558 68.6321 42.5997 70.3759 42.7868C73.9186 43.1663 77.4834 43.3011 81.0448 43.1902C82.2298 43.1506 83.3752 43.1111 84.4611 42.5891C85.2512 42.2007 85.9261 41.6132 86.4189 40.8848C87.1137 39.8519 87.4467 38.6187 87.3661 37.3774Z" fill="#E6E6E6"/>
<path d="M165.713 170.62H156.067V20.3686C155.417 19.8902 154.763 19.4157 154.101 18.953C153.97 18.8621 153.84 18.7711 153.709 18.6802C146.079 13.3556 137.826 8.9813 129.133 5.65466L127.262 31.3972L127.262 31.3988H115.226V1.34051C114.441 1.14675 113.657 0.964849 112.864 0.794814V31.3988H67.4141V0C66.6254 0.146309 65.8367 0.296575 65.052 0.458701V31.3988H52.6195L52.6194 31.3972L50.6576 4.40115C42.1976 7.32708 34.1124 11.2372 26.5693 16.0505C26.3077 16.2166 26.0462 16.3827 25.7846 16.5567C25.2575 16.8968 24.7304 17.2447 24.2112 17.5967V170.62H10.6293C8.89161 170.619 7.1802 171.044 5.64511 171.856C4.11001 172.669 2.7981 173.844 1.82439 175.28C0.850684 176.716 0.24491 178.369 0.0601916 180.093C-0.124527 181.817 0.117446 183.559 0.764891 185.168C0.959149 185.655 1.19104 186.126 1.45845 186.576C1.80384 187.164 2.20462 187.717 2.65535 188.229C3.65098 189.361 4.87734 190.268 6.25247 190.889C7.62759 191.511 9.11979 191.832 10.6293 191.831H165.713C168.532 191.831 171.236 190.714 173.229 188.725C175.223 186.736 176.343 184.039 176.343 181.226C176.343 178.413 175.223 175.716 173.229 173.727C171.236 171.738 168.532 170.62 165.713 170.62L165.713 170.62ZM124.67 67.1371L117.168 170.62H62.7137L55.2114 67.1371H124.67ZM127.092 33.7551L125.241 59.2825H115.226V33.7551H127.092ZM112.864 33.7551V59.2825H94.7791C94.4169 58.5735 93.8654 57.9782 93.1853 57.5624C92.5053 57.1465 91.7233 56.9264 90.9258 56.9262H88.5641C87.7665 56.9264 86.9846 57.1465 86.3046 57.5624C85.6245 57.9782 85.073 58.5735 84.7108 59.2825H67.4141V33.7551H112.864ZM65.052 59.2825H54.6407L52.7899 33.7551H65.052V59.2825Z" fill="#F2F2F2"/>
<path d="M0.938477 187.722C4.38141 191.792 8.10533 195.617 12.083 199.169L162.518 199.565C166.496 196.013 170.22 192.187 173.663 188.117L0.938477 187.722Z" fill="#3F3D56"/>
<path d="M76.9089 149.44V189.995H105.385V149.44C105.385 149.148 105.292 148.864 105.118 148.629C104.945 148.394 104.701 148.221 104.421 148.135C104.29 148.092 104.152 148.07 104.013 148.072H78.2842C78.1038 148.071 77.9251 148.106 77.7584 148.175C77.5916 148.244 77.4401 148.344 77.3124 148.471C77.1846 148.598 77.0833 148.749 77.014 148.916C76.9448 149.082 76.9091 149.26 76.9089 149.44V149.44ZM88.0218 163.375C88.0293 162.575 88.3529 161.811 88.9221 161.249C89.4914 160.686 90.2603 160.37 91.0615 160.37C91.8628 160.37 92.6317 160.686 93.2009 161.249C93.7702 161.811 94.0938 162.575 94.1013 163.375V168.08C94.0972 168.882 93.7752 169.65 93.2055 170.215C92.6359 170.78 91.8651 171.098 91.0615 171.098C90.258 171.098 89.4872 170.78 88.9176 170.215C88.3479 169.65 88.0259 168.882 88.0218 168.08V163.375Z" fill="#2F2E41"/>
<path d="M76.822 188.698V192.609C76.8227 192.812 76.9033 193.006 77.0465 193.15C77.1897 193.293 77.3839 193.375 77.5869 193.376H104.707C104.91 193.375 105.105 193.294 105.248 193.15C105.392 193.007 105.472 192.812 105.472 192.609V188.698H76.822Z" fill="#3F3D56"/>
<path d="M32.113 88.3381V162.387C32.1138 163.33 32.4898 164.235 33.1586 164.902C33.8273 165.569 34.7342 165.945 35.6799 165.945H145.659C146.605 165.945 147.511 165.569 148.18 164.902C148.849 164.235 149.225 163.33 149.226 162.387V88.3381C149.223 87.3953 148.847 86.4918 148.178 85.8255C147.51 85.1592 146.604 84.7844 145.659 84.7832H35.6799C34.735 84.7844 33.829 85.1592 33.1605 85.8255C32.4919 86.4918 32.1153 87.3953 32.113 88.3381V88.3381Z" fill="#3F3D56"/>
<path d="M34.6931 89.2595V161.473C34.694 161.977 34.8951 162.461 35.2524 162.817C35.6097 163.174 36.0941 163.374 36.5994 163.375H144.743C145.249 163.374 145.733 163.174 146.09 162.817C146.448 162.461 146.649 161.977 146.65 161.473V89.2595C146.65 88.7547 146.449 88.2705 146.091 87.9132C145.734 87.5559 145.249 87.3546 144.743 87.3535H36.5994C36.0935 87.3546 35.6087 87.5559 35.2513 87.9132C34.8939 88.2705 34.6932 88.7547 34.6931 89.2595V89.2595Z" fill="#479FDE"/>
<path d="M56.7445 194.298C56.8545 194.435 56.9945 194.546 57.1537 194.622C57.3129 194.698 57.4874 194.737 57.6639 194.737H122.003C122.179 194.736 122.352 194.697 122.511 194.621C122.67 194.546 122.81 194.436 122.921 194.299C123.031 194.163 123.11 194.004 123.152 193.833C123.193 193.663 123.196 193.485 123.16 193.313L122.161 188.58C122.12 188.387 122.031 188.207 121.902 188.057C121.773 187.907 121.609 187.792 121.424 187.722C121.29 187.669 121.148 187.642 121.004 187.643H58.6587C58.5149 187.642 58.3724 187.669 58.2386 187.722C58.0537 187.792 57.8895 187.907 57.7607 188.057C57.632 188.207 57.5428 188.387 57.5014 188.58L56.5027 193.313C56.4672 193.485 56.4704 193.662 56.5122 193.833C56.5541 194.003 56.6334 194.162 56.7445 194.298Z" fill="#2F2E41"/>
<path d="M58.6584 188.631C58.6388 188.631 58.6194 188.634 58.6011 188.641C58.5696 188.652 58.5412 188.67 58.5186 188.695C58.4959 188.719 58.4797 188.748 58.4712 188.781L57.4719 193.516C57.4666 193.544 57.4675 193.572 57.4745 193.599C57.4814 193.626 57.4943 193.651 57.5122 193.673L57.5166 193.678C57.5338 193.701 57.5562 193.719 57.5817 193.731C57.6073 193.743 57.6354 193.749 57.6637 193.748H122.002C122.03 193.748 122.058 193.742 122.084 193.73C122.109 193.718 122.131 193.701 122.149 193.679C122.168 193.658 122.181 193.632 122.189 193.605C122.196 193.578 122.197 193.549 122.191 193.521L121.191 188.783C121.184 188.752 121.169 188.723 121.148 188.699C121.127 188.675 121.101 188.657 121.071 188.645C121.05 188.636 121.027 188.631 121.004 188.631H58.6584Z" fill="white"/>
<path d="M40.0764 97.3013H141.266C141.371 97.299 141.472 97.2556 141.545 97.1806C141.619 97.1056 141.66 97.0048 141.66 96.8998C141.66 96.7948 141.619 96.694 141.545 96.619C141.472 96.5439 141.371 96.5006 141.266 96.4983H40.0764C39.9713 96.5006 39.8712 96.5439 39.7976 96.619C39.7241 96.694 39.6829 96.7948 39.6829 96.8998C39.6829 97.0048 39.7241 97.1056 39.7976 97.1806C39.8712 97.2556 39.9713 97.299 40.0764 97.3013Z" fill="#3F3D56"/>
<path d="M134.378 94.448C135.68 94.448 136.736 93.3711 136.736 92.0426C136.736 90.7142 135.68 89.6372 134.378 89.6372C133.076 89.6372 132.02 90.7142 132.02 92.0426C132.02 93.3711 133.076 94.448 134.378 94.448Z" fill="#3F3D56"/>
<path d="M126.231 94.448C127.534 94.448 128.59 93.3711 128.59 92.0426C128.59 90.7142 127.534 89.6372 126.231 89.6372C124.929 89.6372 123.873 90.7142 123.873 92.0426C123.873 93.3711 124.929 94.448 126.231 94.448Z" fill="#3F3D56"/>
<path d="M118.085 94.448C119.387 94.448 120.443 93.3711 120.443 92.0426C120.443 90.7142 119.387 89.6372 118.085 89.6372C116.782 89.6372 115.726 90.7142 115.726 92.0426C115.726 93.3711 116.782 94.448 118.085 94.448Z" fill="#3F3D56"/>
<path d="M44.5503 90.6711C44.55 90.728 44.561 90.7843 44.5826 90.837C44.6041 90.8896 44.6359 90.9375 44.676 90.9779C44.7161 91.0183 44.7638 91.0504 44.8164 91.0724C44.8689 91.0944 44.9253 91.1058 44.9823 91.1061H50.7686C50.8829 91.1034 50.9917 91.0562 51.0717 90.9746C51.1517 90.8929 51.1964 90.7833 51.1964 90.6691C51.1964 90.555 51.1517 90.4454 51.0717 90.3637C50.9917 90.282 50.8829 90.2348 50.7686 90.2322H44.9823C44.8668 90.2336 44.7565 90.2805 44.6756 90.3628C44.5946 90.445 44.5496 90.5559 44.5503 90.6711V90.6711Z" fill="#3F3D56"/>
<path d="M44.5503 92.312C44.55 92.3688 44.561 92.4252 44.5825 92.4779C44.6041 92.5305 44.6359 92.5784 44.676 92.6188C44.7161 92.6592 44.7638 92.6913 44.8163 92.7133C44.8689 92.7353 44.9253 92.7467 44.9823 92.747H50.7686C50.883 92.7444 50.992 92.6973 51.072 92.6156C51.1521 92.5339 51.1969 92.4242 51.1969 92.31C51.1969 92.1958 51.1521 92.0861 51.072 92.0044C50.992 91.9227 50.883 91.8756 50.7686 91.873H44.9823C44.8668 91.8744 44.7565 91.9214 44.6756 92.0036C44.5946 92.0859 44.5496 92.1967 44.5503 92.312V92.312Z" fill="#3F3D56"/>
<path d="M44.5503 93.9491C44.5496 94.0644 44.5946 94.1752 44.6756 94.2575C44.7565 94.3397 44.8668 94.3867 44.9823 94.3881H50.7686C50.8829 94.3854 50.9917 94.3382 51.0717 94.2565C51.1517 94.1749 51.1964 94.0653 51.1964 93.9511C51.1964 93.837 51.1517 93.7273 51.0717 93.6457C50.9917 93.564 50.8829 93.5168 50.7686 93.5142H44.9823C44.9253 93.5144 44.8689 93.5259 44.8163 93.5479C44.7638 93.5698 44.7161 93.602 44.676 93.6424C44.6359 93.6827 44.6041 93.7306 44.5825 93.7833C44.561 93.8359 44.55 93.8923 44.5503 93.9491Z" fill="#3F3D56"/>
<path d="M126.189 109.557H55.1536C54.2205 109.558 53.3258 109.928 52.6659 110.587C52.0061 111.245 51.6349 112.138 51.6338 113.069V147.565C51.6348 148.496 52.006 149.389 52.6659 150.047C53.3257 150.706 54.2204 151.076 55.1536 151.077H126.189C127.122 151.076 128.017 150.706 128.677 150.047C129.337 149.389 129.708 148.496 129.709 147.565V113.069C129.708 112.138 129.337 111.245 128.677 110.587C128.017 109.928 127.122 109.558 126.189 109.557ZM128.916 113.069V123.133H103.948V110.348H126.189C126.912 110.349 127.605 110.636 128.117 111.146C128.628 111.656 128.915 112.347 128.916 113.069H128.916ZM78.1872 136.71V123.924H103.155V136.71H78.1872ZM103.155 137.501V150.286H78.1872V137.501H103.155ZM77.3946 136.71H52.4264V123.924H77.3946V136.71ZM78.1872 123.133V110.348H103.155V123.133H78.1872ZM103.948 123.924H128.916V136.71H103.948V123.924ZM55.1536 110.348H77.3946V123.133H52.4264V113.069C52.4273 112.347 52.7148 111.656 53.2261 111.146C53.7374 110.636 54.4306 110.349 55.1536 110.348V110.348ZM52.4264 147.565V137.501H77.3946V150.286H55.1536C54.4306 150.285 53.7373 149.998 53.2261 149.488C52.7148 148.978 52.4272 148.286 52.4264 147.565V147.565ZM126.189 150.286H103.948V137.501H128.916V147.565C128.915 148.286 128.628 148.978 128.117 149.488C127.605 149.998 126.912 150.285 126.189 150.286H126.189Z" fill="#3F3D56"/>
<path d="M87.0609 118.315C86.4305 117.275 85.6835 116.164 84.5137 115.824C83.159 115.431 81.7673 116.213 80.5869 116.984C77.0567 119.29 73.6571 121.789 70.4036 124.47L70.4071 124.51L78.0061 123.987C79.8362 123.861 81.7291 123.718 83.3464 122.854C83.9601 122.526 84.5584 122.089 85.2538 122.058C86.1178 122.02 86.8712 122.622 87.4632 123.251C90.9653 126.972 91.9787 132.662 95.9077 135.931C93.4302 129.835 90.472 123.945 87.0609 118.315V118.315Z" fill="white"/>
<path d="M108.588 149.875C108.201 149.387 108.042 149.273 107.66 148.78C104.55 144.766 101.626 140.617 98.8896 136.332C97.0308 133.422 95.264 130.455 93.5895 127.433C92.7923 125.997 92.017 124.549 91.2634 123.089C90.6787 121.958 90.1071 120.82 89.5485 119.675C89.3887 119.348 89.2335 119.019 89.0791 118.69C88.7151 117.915 88.3579 117.137 87.9744 116.374C87.5781 115.457 86.9712 114.645 86.2029 114.005C85.8377 113.728 85.401 113.561 84.9438 113.522C84.2998 113.526 83.6693 113.706 83.1211 114.043C78.9711 116.22 75.0976 118.885 71.5835 121.981C68.0639 125.065 64.918 128.55 62.2099 132.363C62.127 132.481 61.9311 132.368 62.0147 132.25C62.344 131.785 62.6798 131.325 63.0222 130.871C67.2789 125.222 72.4983 120.364 78.4418 116.52C79.4418 115.874 80.4605 115.257 81.4981 114.671C82.021 114.376 82.5462 114.084 83.0804 113.811C83.5923 113.511 84.1666 113.334 84.7585 113.292C86.7944 113.26 87.8486 115.561 88.5727 117.109C88.8003 117.596 89.0306 118.082 89.2637 118.566C90.1445 120.404 91.0592 122.225 92.0079 124.03C92.5934 125.144 93.1917 126.252 93.8028 127.353C95.7046 130.782 97.726 134.142 99.867 137.432C102.703 141.79 105.517 145.64 108.748 149.716C108.837 149.828 108.678 149.989 108.588 149.875Z" fill="white"/>
<path d="M71.3819 120.845C71.2636 120.714 71.1461 120.582 71.027 120.451C70.0881 119.415 69.0807 118.391 67.7915 117.797C67.1767 117.505 66.5057 117.349 65.8248 117.342C65.1223 117.361 64.4296 117.512 63.7829 117.786C63.4754 117.909 63.1748 118.048 62.8787 118.196C62.5403 118.366 62.208 118.547 61.8772 118.73C61.2563 119.073 60.6435 119.43 60.0387 119.803C58.8354 120.545 57.6697 121.344 56.5417 122.199C55.957 122.643 55.3843 123.101 54.8237 123.574C54.3023 124.013 53.7914 124.464 53.2911 124.926C53.1841 125.025 53.0244 124.865 53.1313 124.767C53.2632 124.644 53.3966 124.522 53.5299 124.402C53.9067 124.062 54.2895 123.729 54.6783 123.402C55.3873 122.805 56.1147 122.231 56.8604 121.681C58.0201 120.824 59.2196 120.025 60.4591 119.284C61.0785 118.914 61.7065 118.56 62.3429 118.221C62.5351 118.119 62.7295 118.019 62.9261 117.924C63.3724 117.699 63.836 117.511 64.3126 117.361C64.9876 117.143 65.7019 117.073 66.4066 117.155C67.0869 117.254 67.7424 117.48 68.3385 117.822C69.6044 118.528 70.5862 119.62 71.5417 120.685C71.6381 120.793 71.4791 120.954 71.3819 120.845Z" fill="white"/>
<path d="M97.3194 131.581L100.353 130.474L101.859 129.924C102.345 129.729 102.842 129.558 103.346 129.413C103.786 129.288 104.254 129.294 104.691 129.43C105.081 129.575 105.438 129.795 105.741 130.08C106.05 130.364 106.338 130.671 106.602 130.997C106.93 131.39 107.253 131.788 107.578 132.184C108.917 133.818 110.247 135.459 111.569 137.108C112.891 138.756 114.204 140.411 115.508 142.074C116.815 143.74 118.114 145.414 119.403 147.094C119.561 147.3 119.719 147.506 119.876 147.712C119.963 147.826 120.16 147.714 120.071 147.598C118.773 145.901 117.465 144.21 116.148 142.527C114.828 140.84 113.498 139.159 112.16 137.486C110.822 135.813 109.474 134.147 108.118 132.489C107.78 132.076 107.441 131.663 107.102 131.251C106.816 130.903 106.534 130.551 106.22 130.228C105.953 129.906 105.625 129.641 105.255 129.446C104.885 129.252 104.48 129.132 104.064 129.094C103.559 129.112 103.062 129.221 102.597 129.416C102.09 129.599 101.584 129.785 101.077 129.97L98.0229 131.085L97.2592 131.363C97.1237 131.413 97.1823 131.631 97.3194 131.581V131.581Z" fill="white"/>
<path d="M67.3925 119.1C66.6131 118.717 65.7454 118.548 64.8787 118.61C64.012 118.671 63.1773 118.962 62.4604 119.452C65.1623 119.917 67.8347 120.54 70.4638 121.316C69.372 120.678 68.518 119.677 67.3925 119.1Z" fill="white"/>
<path d="M62.4452 119.449L62.1484 119.69C62.2488 119.606 62.3532 119.527 62.4604 119.452L62.4452 119.449Z" fill="white"/>
<path d="M105.627 131.592C105.361 131.201 104.991 130.893 104.559 130.702L104.142 130.719C107.316 136.315 111.603 141.205 116.74 145.088L105.627 131.592Z" fill="white"/>
<path d="M103.676 125.465C105.002 125.465 106.077 124.392 106.077 123.069C106.077 121.746 105.002 120.673 103.676 120.673C102.35 120.673 101.275 121.746 101.275 123.069C101.275 124.392 102.35 125.465 103.676 125.465Z" fill="white"/>
<path d="M138.523 149.693C138.995 149.692 139.449 149.505 139.783 149.171C140.117 148.838 140.305 148.385 140.306 147.914V111.139C140.306 110.667 140.118 110.214 139.784 109.88C139.449 109.547 138.996 109.359 138.523 109.359C138.05 109.359 137.596 109.547 137.262 109.88C136.927 110.214 136.739 110.667 136.739 111.139V147.914C136.74 148.385 136.928 148.838 137.262 149.171C137.597 149.505 138.05 149.692 138.523 149.693V149.693Z" fill="#3F3D56"/>
<path d="M138.523 149.693C138.995 149.693 139.449 149.505 139.783 149.171C140.117 148.838 140.305 148.386 140.306 147.914V140.116C140.101 139.836 139.832 139.609 139.522 139.453C139.213 139.296 138.87 139.214 138.523 139.214C138.175 139.214 137.833 139.296 137.523 139.453C137.213 139.609 136.945 139.836 136.739 140.116V147.914C136.74 148.386 136.928 148.838 137.262 149.171C137.597 149.505 138.05 149.693 138.523 149.693V149.693Z" fill="#2F2E41"/>
<path d="M138.523 142.18C139.031 142.179 139.518 141.977 139.878 141.619C140.237 141.26 140.44 140.774 140.441 140.266V131.88C140.22 131.579 139.931 131.335 139.598 131.166C139.264 130.998 138.896 130.91 138.523 130.91C138.149 130.91 137.781 130.998 137.447 131.166C137.114 131.335 136.825 131.579 136.604 131.88V140.266C136.605 140.774 136.808 141.26 137.167 141.619C137.527 141.977 138.014 142.179 138.523 142.18V142.18Z" fill="#479FDE"/>
<path d="M138.523 140.655C138.894 140.655 139.249 140.507 139.511 140.246C139.774 139.984 139.921 139.629 139.922 139.259V133.143C139.761 132.923 139.55 132.745 139.307 132.622C139.064 132.499 138.795 132.435 138.523 132.435C138.25 132.435 137.982 132.499 137.739 132.622C137.496 132.745 137.285 132.923 137.124 133.143V139.259C137.124 139.629 137.272 139.984 137.534 140.246C137.796 140.507 138.152 140.655 138.523 140.655V140.655Z" fill="#3F3D56"/>
<path d="M83.5043 191.007C83.1912 190.727 83.0021 190.335 82.9786 189.916C82.955 189.498 83.0989 189.087 83.3786 188.774L98.9603 171.378C99.099 171.223 99.267 171.097 99.4545 171.007C99.6421 170.917 99.8456 170.864 100.053 170.853C100.261 170.841 100.469 170.871 100.666 170.939C100.862 171.008 101.043 171.114 101.199 171.253C101.354 171.391 101.48 171.559 101.571 171.746C101.661 171.933 101.713 172.136 101.725 172.343C101.737 172.551 101.707 172.758 101.639 172.955C101.57 173.151 101.463 173.331 101.324 173.486L85.7427 190.882C85.4623 191.194 85.0691 191.383 84.6495 191.406C84.2298 191.43 83.818 191.286 83.5043 191.007Z" fill="#479FDE"/>
<path d="M212.764 219.649C212.764 222.531 212.083 224.738 212.166 226.501C207.491 228.537 202.685 230.257 197.78 231.65C197.225 231.808 196.67 231.958 196.111 232.109C193.087 222.871 190.059 214.413 188.866 213.516C186.136 211.471 184.768 219.929 184.768 217.885C184.768 215.841 186.136 215.841 182.723 213.116C179.307 210.392 181.356 198.129 181.356 198.129L176.576 185.867L181.923 166.309L188.866 140.903H195.695C195.695 140.903 195.897 141.049 196.234 141.322C197.942 142.714 203.094 147.364 202.523 152.485C202.353 154.011 202.734 158.448 203.395 164.356C205.409 182.193 210.034 201.585 210.034 206.702C210.034 213.516 212.764 215.56 212.764 219.649Z" fill="#E6E6E6"/>
<path d="M207.038 164.288C207.03 164.269 207.026 164.253 207.019 164.237C206.865 163.826 206.687 163.424 206.484 163.035C205.33 160.872 206.551 157.55 205.251 153.881C203.15 147.933 200.59 144.426 196.837 141.282C196.726 141.187 196.615 141.096 196.5 141.002L196.496 140.998C193.991 138.945 190.972 137.028 187.222 134.639C186.442 134.141 185.625 133.623 184.777 133.077C183.683 132.377 183.743 130.044 183.806 127.577C183.877 124.836 183.953 121.997 182.605 120.226L182.518 120.111L182.379 120.075C177.759 119.164 173.047 118.801 168.342 118.996H168.338C166.34 119.07 164.356 119.36 162.421 119.862C162.278 119.901 162.135 119.941 161.997 119.988C161.89 120.016 161.783 120.052 161.676 120.087L161.588 120.119L161.521 120.182C160.217 121.483 159.916 123.816 159.773 126.248V126.252C159.745 126.695 159.722 127.138 159.702 127.581C159.591 129.945 159.488 132.18 158.616 133.148C156.671 135.347 154.32 137.151 151.692 138.463C147.598 140.48 144.36 140.416 144.313 140.416L143.936 140.404L143.901 140.776C141.182 145.944 141.285 159.278 141.202 173.557C141.198 174.352 141.192 175.151 141.186 175.954C141.138 182.605 141.011 189.371 140.512 195.535C140.294 198.185 140.013 200.72 139.636 203.088C137.805 214.623 129.51 205.046 125.543 212.721C125.673 213.476 125.893 214.212 126.197 214.916C126.653 215.184 127.12 215.445 127.584 215.706C129.641 216.849 131.736 217.916 133.87 218.905C133.989 218.961 134.107 219.016 134.226 219.068C138.14 220.874 142.173 222.409 146.298 223.662C147.103 223.908 147.907 224.141 148.72 224.362C155.907 226.342 163.307 227.448 170.759 227.656C170.789 227.653 170.82 227.652 170.85 227.652C179.664 227.409 188.42 226.15 196.944 223.9C197.063 223.868 197.182 223.836 197.301 223.805C197.86 223.655 198.414 223.504 198.969 223.346C203.875 221.953 208.681 220.233 213.356 218.198C213.361 218.371 213.378 218.544 213.407 218.716C213.411 218.771 213.419 218.827 213.431 218.882C213.439 218.818 213.447 218.755 213.451 218.692C213.475 218.506 213.494 218.316 213.514 218.126C215.94 194.527 210.902 174.491 207.038 164.288Z" fill="#3F3D56"/>
<path d="M152.571 106.45C154.99 110.863 158.843 114.323 163.496 116.259C168.149 118.196 173.324 118.494 178.169 117.103C183.014 115.713 187.24 112.718 190.151 108.612C193.062 104.505 194.485 99.5315 194.185 94.5103C193.885 89.4891 191.88 84.7196 188.5 80.9873C185.12 77.255 180.567 74.7824 175.591 73.9767C170.614 73.1711 165.511 74.0804 161.122 76.555C156.733 79.0295 153.319 82.9217 151.443 87.5906C151.342 87.844 151.25 88.0973 151.159 88.3608C150.098 91.304 149.676 94.4383 149.919 97.5566C150.163 100.675 151.066 103.706 152.571 106.45V106.45Z" fill="#FFB6B6"/>
<path d="M149.381 88.3609C150.336 85.6956 149.92 87.084 150.885 84.4289C150.255 86.78 151.25 88.0974 151.159 88.3609H177.577V73.0383C169.837 69.9778 162.27 67.3733 157.7 73.0383C153.627 73.0384 149.721 74.6528 146.841 77.5263C143.961 80.3998 142.343 84.2971 142.343 88.3609H149.381Z" fill="#2F2E41"/>
<path d="M158.746 130.954C158.766 130.67 158.797 130.376 158.837 130.092C159.122 128.005 159.833 125.998 160.554 124.012C161.316 121.874 162.088 119.725 162.859 117.587C161.865 121.469 162.169 125.568 163.723 129.261C168.182 125.796 165.368 117.871 171.198 117.871C185.215 117.871 199.637 106.531 199.637 92.5358C199.637 78.5508 193.625 68.0925 179.608 68.0925C165.581 68.0925 154.206 74.4972 153.932 88.4822C171.198 92.5358 155.486 129.535 158.746 130.954Z" fill="#2F2E41"/>
<path d="M197.886 90.3923C206.861 90.3923 214.137 83.1328 214.137 74.1778C214.137 65.2228 206.861 57.9634 197.886 57.9634C188.911 57.9634 181.635 65.2228 181.635 74.1778C181.635 83.1328 188.911 90.3923 197.886 90.3923Z" fill="#2F2E41"/>
<path d="M223.22 167.167C223.165 168.002 223.116 168.89 223.074 169.833C222.233 187.584 222.959 211.479 217.295 224.446C216.027 225.138 214.746 225.799 213.451 226.431C213.399 226.454 213.352 226.478 213.308 226.502C212.959 226.672 212.611 226.838 212.262 226.996C212.249 227.007 212.234 227.015 212.218 227.02C208.389 228.825 204.442 230.372 200.404 231.65C199.909 231.809 199.409 231.959 198.91 232.109C198.803 232.141 198.696 232.172 198.589 232.204C190.982 234.448 183.119 235.71 175.19 235.957C174.778 235.968 174.374 235.976 173.981 235.984C173.843 235.988 173.708 235.992 173.573 235.992C173.129 235.996 172.689 236 172.246 236C171.35 236 170.458 235.987 169.57 235.961C162.118 235.752 154.718 234.646 147.531 232.667C146.719 232.445 145.914 232.212 145.109 231.967C140.984 230.714 136.951 229.178 133.038 227.372C132.919 227.32 132.8 227.265 132.681 227.21C130.549 226.221 128.453 225.155 126.395 224.011C125.932 223.75 125.464 223.489 125.008 223.22C124.704 222.517 124.485 221.78 124.354 221.025C123.455 216.711 122.733 219.621 122.218 210.645C121.746 202.416 121.445 194.164 121.334 189.446C121.299 188.189 121.287 187.18 121.283 186.492C121.703 183.495 128.456 180.094 138.305 176.863C139.236 176.559 140.199 176.254 141.186 175.954C143.849 175.135 146.695 174.333 149.667 173.558C157.237 171.58 165.643 169.765 173.985 168.267C178.103 167.531 182.205 166.871 186.188 166.309C193.175 165.321 199.786 164.637 205.441 164.356C205.984 164.328 206.515 164.305 207.038 164.289C207.601 164.265 208.152 164.249 208.691 164.237C216.839 164.059 222.404 164.906 223.22 167.167Z" fill="#2F2E41"/>
<path opacity="0.2" d="M223.22 167.167C223.165 168.002 223.116 168.89 223.074 169.832C216.899 163.197 150.381 192.839 122.218 210.645C121.746 202.416 121.445 194.163 121.334 189.446C121.299 188.188 121.287 187.18 121.283 186.492C121.703 183.495 128.456 180.094 138.305 176.863C139.236 176.559 140.199 176.254 141.186 175.954C143.849 175.135 146.695 174.332 149.667 173.557C157.237 171.58 165.643 169.765 173.985 168.266C178.103 167.531 182.205 166.871 186.188 166.309C193.175 165.321 199.786 164.636 205.441 164.356C205.984 164.328 206.515 164.304 207.038 164.288C207.601 164.265 208.152 164.249 208.691 164.237C216.839 164.059 222.404 164.905 223.22 167.167Z" fill="black"/>
<path d="M87.9438 187.735C88.5675 188.519 89.3561 189.158 90.254 189.606C91.1519 190.053 92.1373 190.299 93.1407 190.326C94.1441 190.352 95.1411 190.159 96.0615 189.76C96.982 189.36 97.8035 188.764 98.4681 188.014L121.038 197.262L118.602 184.847L97.5431 177.968C96.2055 176.937 94.5355 176.432 92.8496 176.548C91.1636 176.664 89.5789 177.393 88.3956 178.597C87.2124 179.801 86.5128 181.396 86.4295 183.08C86.3463 184.764 86.885 186.42 87.9438 187.735V187.735Z" fill="#FFB6B6"/>
<path d="M163.02 136.036L162.897 136.023L149.735 136.976C148.064 137.097 146.438 137.572 144.965 138.367C143.492 139.163 142.205 140.263 141.19 141.593C140.719 142.209 140.31 142.871 139.972 143.569L139.968 143.571C138.834 145.888 138.492 148.511 138.995 151.04L145.191 182.162L130.282 180.81L124.84 181.738L118.418 179.153L105.239 179.377L104.934 180.384L102.169 189.528L101.952 190.247L122.076 202.899L127.91 201.128L130.658 203.235L130.79 203.238L136.24 203.346L159.484 203.8L165.837 192.57L166.83 190.809C174.209 174.316 176.03 162.802 175.452 154.87C175.149 150.679 174.178 147.493 173.002 145.092C169.367 137.673 163.276 136.099 163.02 136.036Z" fill="#3F3D56"/>
<path d="M199.941 88.5737C196.859 87.8824 194.002 86.4261 191.635 84.3398C189.267 82.2534 187.466 79.6044 186.398 76.6384C185.444 73.8792 185.084 70.8493 183.484 68.3936C185.922 65.053 187.877 61.3869 189.292 57.503C189.839 55.9994 191.122 53.2699 188.948 52.4427C187.216 51.7837 185.248 53.3742 184.221 54.6292C183.441 55.5802 182.882 56.6917 182.583 57.8839C182.229 56.3239 181.875 54.7639 181.521 53.2039C181.476 53.0542 181.375 52.9276 181.239 52.8504C181.102 52.7733 180.942 52.7515 180.79 52.7896C177.888 53.2832 175.783 55.9641 175.418 58.7877C175.218 60.2415 175.55 61.7183 176.352 62.9483C177.284 64.3633 178.649 65.3777 179.948 66.4321C181.329 67.5534 182.5 68.7477 183.243 70.3875C184.015 72.0918 184.362 73.9569 184.874 75.7465C185.846 79.1837 187.73 82.2957 190.326 84.7545C192.922 87.2133 196.134 88.9279 199.625 89.7176C200.371 89.8802 200.69 88.7369 199.941 88.5737ZM183.555 60.2152C183.461 58.725 183.856 57.2449 184.679 55.998C185.091 55.3658 185.607 54.8078 186.206 54.3476C186.774 53.9148 187.611 53.3418 188.362 53.5007C189.336 53.7069 188.945 54.7917 188.738 55.4459C188.465 56.3091 188.165 57.163 187.837 58.0078C187.2 59.6483 186.46 61.2473 185.622 62.7954C185.187 63.6012 184.722 64.39 184.236 65.1658C183.902 63.6911 183.567 62.2164 183.232 60.7417C183.337 60.7032 183.427 60.6301 183.485 60.5345C183.544 60.4389 183.568 60.3264 183.555 60.2152V60.2152ZM176.611 60.4512C176.417 59.1037 176.699 57.7307 177.409 56.5681C178.119 55.4055 179.213 54.5259 180.502 54.0806C181.446 58.238 182.389 62.3954 183.333 66.5528C183.138 66.8394 182.937 67.1217 182.736 67.4037C182.683 67.3432 182.635 67.2806 182.58 67.221C180.601 65.0717 177.149 63.6066 176.611 60.4512V60.4512Z" fill="#479FDE"/>
</g>
<defs>
<clipPath id="clip0_1110_1422">
<rect width="223.22" height="236" fill="white"/>
</clipPath>
</defs>
</svg>
