<svg width="247" height="236" viewBox="0 0 247 236" fill="none" xmlns="http://www.w3.org/2000/svg">
<g clip-path="url(#clip0_1110_1384)">
<path d="M109.065 121.657L118.347 137.666L127.629 153.674H90.5022L99.7838 137.666L109.065 121.657Z" fill="#479FDE"/>
<path d="M56.3221 90.2151H17.3961V128.977H56.3221V90.2151Z" fill="#E6E6E6"/>
<path d="M84.2248 65.5174C98.0179 65.5174 109.199 54.3831 109.199 40.6482C109.199 26.9134 98.0179 15.7791 84.2248 15.7791C70.4316 15.7791 59.2501 26.9134 59.2501 40.6482C59.2501 54.3831 70.4316 65.5174 84.2248 65.5174Z" fill="#479FDE"/>
<path d="M106.702 82.1732C106.702 81.359 106.944 80.5632 107.399 79.8863C107.853 79.2094 108.498 78.6818 109.254 78.3702C110.009 78.0587 110.84 77.9772 111.642 78.136C112.444 78.2948 113.181 78.6868 113.759 79.2625C114.337 79.8382 114.731 80.5716 114.89 81.3701C115.05 82.1686 114.968 82.9962 114.655 83.7484C114.342 84.5006 113.812 85.1434 113.132 85.5957C112.453 86.048 111.653 86.2894 110.836 86.2894C109.739 86.2894 108.688 85.8558 107.913 85.0838C107.138 84.3119 106.702 83.2649 106.702 82.1732ZM107.391 82.1732C107.391 82.8516 107.593 83.5148 107.972 84.0789C108.35 84.643 108.888 85.0827 109.517 85.3423C110.147 85.6019 110.84 85.6698 111.508 85.5375C112.176 85.4051 112.79 85.0784 113.272 84.5987C113.753 84.119 114.081 83.5078 114.214 82.8424C114.347 82.177 114.279 81.4873 114.018 80.8605C113.758 80.2337 113.316 79.698 112.75 79.321C112.183 78.9441 111.517 78.7429 110.836 78.7429C109.922 78.7429 109.046 79.1043 108.4 79.7476C107.754 80.3909 107.391 81.2634 107.391 82.1732V82.1732Z" fill="#CCCCCC"/>
<path d="M71.1126 153.775L65.0277 147.279L71.5514 141.22L77.6363 147.716L71.1126 153.775ZM65.9978 147.312L71.1463 152.809L76.6662 147.682L71.5177 142.186L65.9978 147.312Z" fill="#CCCCCC"/>
<path d="M20.8581 61.3624L15.9059 56.0754L21.2167 51.1448L26.1689 56.4318L20.8581 61.3624ZM16.6951 56.1028L20.887 60.5779L25.3797 56.405L21.1891 51.9313L16.6951 56.1028Z" fill="#CCCCCC"/>
<path d="M90.4254 68.6047C83.6123 68.6047 76.9522 66.5929 71.2873 62.8237C65.6224 59.0545 61.2071 53.6972 58.5999 47.4293C55.9926 41.1613 55.3104 34.2643 56.6396 27.6103C57.9688 20.9563 61.2496 14.8442 66.0672 10.0469C70.8848 5.24967 77.0228 1.98269 83.705 0.659125C90.3872 -0.664438 97.3135 0.0148626 103.608 2.61112C109.903 5.20739 115.283 9.604 119.068 15.245C122.853 20.886 124.873 27.518 124.873 34.3023C124.873 43.3999 121.244 52.1248 114.784 58.5577C108.323 64.9907 99.5616 68.6047 90.4254 68.6047V68.6047ZM90.4254 0.686062C83.7486 0.686062 77.2217 2.65762 71.67 6.35143C66.1184 10.0452 61.7915 15.2954 59.2364 21.4379C56.6812 27.5805 56.0127 34.3396 57.3153 40.8605C58.6179 47.3815 61.8331 53.3713 66.5544 58.0726C71.2756 62.774 77.2909 65.9756 83.8394 67.2727C90.388 68.5698 97.1758 67.9041 103.344 65.3597C109.513 62.8154 114.785 58.5067 118.495 52.9785C122.204 47.4504 124.184 40.951 124.184 34.3023C124.184 25.3867 120.628 16.8363 114.297 10.532C107.966 4.22777 99.3788 0.686062 90.4254 0.686062V0.686062Z" fill="#3F3D56"/>
<path d="M69.2196 60.991L60.3208 79.4329L60.9418 79.73L69.8406 61.2881L69.2196 60.991Z" fill="#3F3D56"/>
<path d="M67.1652 103.976L66.8373 104.58L106.035 125.704L106.363 125.1L67.1652 103.976Z" fill="#3F3D56"/>
<path d="M67.3454 129.32H17.0516V79.2383H67.3454V129.32ZM17.7406 128.634H66.6564V79.9243H17.7406V128.634Z" fill="#3F3D56"/>
<path d="M141.928 154.017H89.9056L115.917 109.155L141.928 154.017ZM91.0989 153.331H140.735L115.917 110.527L91.0989 153.331Z" fill="#3F3D56"/>
<path d="M246.302 235.314H0V236H246.302V235.314Z" fill="#E6E6E6"/>
<path d="M71.0664 213.92C72.8192 214.533 74.7012 214.687 76.5309 214.366C78.3607 214.045 80.0766 213.26 81.5134 212.087C85.1724 209.029 86.3199 203.992 87.2531 199.327L90.0141 185.528L84.2337 189.491C80.0766 192.341 75.8261 195.283 72.948 199.411C70.0698 203.54 68.8142 209.176 71.126 213.643" fill="#E6E6E6"/>
<path d="M71.959 231.587C71.2315 226.309 70.483 220.962 70.9945 215.628C71.4478 210.89 72.8995 206.263 75.8547 202.468C77.4234 200.458 79.3322 198.735 81.4952 197.378C82.0591 197.024 82.5783 197.914 82.0168 198.267C78.274 200.622 75.379 204.1 73.7493 208.199C71.9494 212.758 71.6604 217.727 71.9704 222.57C72.1578 225.498 72.556 228.407 72.956 231.313C72.9875 231.444 72.9678 231.583 72.9008 231.7C72.8338 231.818 72.7245 231.905 72.5949 231.946C72.4628 231.981 72.322 231.963 72.203 231.896C72.084 231.829 71.9965 231.717 71.9594 231.586L71.959 231.587Z" fill="#F2F2F2"/>
<path d="M120.117 224.317C120.968 225.318 122.064 226.084 123.298 226.541C124.533 226.998 125.865 227.13 127.166 226.926C130.505 226.362 133.022 223.691 135.271 221.171L141.928 213.718L136.968 214.078C133.399 214.337 129.741 214.618 126.496 216.115C123.251 217.613 120.451 220.609 120.258 224.168" fill="#E6E6E6"/>
<path d="M114.404 234.711C115.576 231.906 116.754 229.063 118.55 226.587C120.144 224.387 122.197 222.529 124.75 221.51C126.103 220.972 127.541 220.673 128.997 220.627C129.376 220.614 129.376 221.201 128.997 221.213C126.475 221.297 124.045 222.176 122.057 223.724C119.852 225.449 118.272 227.809 117.022 230.279C116.267 231.772 115.62 233.317 114.976 234.86C114.954 234.934 114.904 234.996 114.837 235.035C114.77 235.073 114.691 235.085 114.616 235.068C114.54 235.047 114.476 234.998 114.437 234.931C114.398 234.864 114.387 234.784 114.407 234.709L114.404 234.711Z" fill="#F2F2F2"/>
<path d="M77.1957 223.118C77.9473 224.256 78.9806 225.182 80.196 225.807C81.4114 226.432 82.7679 226.734 84.1348 226.685C87.6485 226.519 90.5766 224.078 93.2122 221.76L101.009 214.905L95.8491 214.659C92.1381 214.482 88.3313 214.316 84.7966 215.457C81.2619 216.598 78.0021 219.339 77.3559 222.982" fill="#E6E6E6"/>
<path d="M69.9024 234.621C73.4051 228.45 77.4675 221.591 84.727 219.399C86.7454 218.791 88.8617 218.574 90.9621 218.758C91.6242 218.815 91.4588 219.831 90.7981 219.774C87.2773 219.483 83.7632 220.409 80.8475 222.395C78.0418 224.297 75.8571 226.941 74.0083 229.745C72.8756 231.462 71.8611 233.252 70.8467 235.04C70.5225 235.612 69.5745 235.199 69.9024 234.621Z" fill="#F2F2F2"/>
<path d="M8.08935 223.69C9.35781 224.134 10.7197 224.246 12.0439 224.013C13.3681 223.781 14.6098 223.213 15.6496 222.364C18.2976 220.151 19.1288 216.505 19.8033 213.129L21.8013 203.143L17.6183 206.011C14.61 208.074 11.5341 210.202 9.45107 213.19C7.36801 216.178 6.45893 220.256 8.13241 223.489" fill="#E6E6E6"/>
<path d="M8.44691 235.781C8.02355 232.709 7.58814 229.599 7.88508 226.495C8.14895 223.739 8.99325 221.046 10.7129 218.839C11.6256 217.669 12.7362 216.667 13.9947 215.877C14.323 215.671 14.6248 216.189 14.2982 216.394C12.1207 217.765 10.4364 219.788 9.48827 222.173C8.44106 224.825 8.27295 227.717 8.45484 230.534C8.56404 232.238 8.79519 233.93 9.0284 235.621C9.04718 235.698 9.03587 235.778 8.99681 235.847C8.95774 235.915 8.89387 235.966 8.81826 235.989C8.74135 236.01 8.65935 236 8.59008 235.961C8.52081 235.921 8.46985 235.857 8.44829 235.78L8.44691 235.781Z" fill="#F2F2F2"/>
<path d="M39.6067 235.811C39.5157 235.663 37.3727 232.1 36.63 224.701C35.9486 217.913 36.3868 206.472 42.3456 190.512C53.6348 160.276 39.7441 135.88 39.6022 135.638L40.2873 135.242C40.3218 135.303 43.9078 141.523 46.025 151.428C48.8227 164.559 47.8039 178.212 43.088 190.787C31.818 220.971 40.1967 235.259 40.2825 235.4L39.6067 235.811Z" fill="#3F3D56"/>
<path d="M51.4295 152.791C54.2728 152.791 56.5777 150.496 56.5777 147.665C56.5777 144.833 54.2728 142.538 51.4295 142.538C48.5862 142.538 46.2812 144.833 46.2812 147.665C46.2812 150.496 48.5862 152.791 51.4295 152.791Z" fill="#479FDE"/>
<path d="M36.3803 192.621C39.2236 192.621 41.5285 190.326 41.5285 187.494C41.5285 184.663 39.2236 182.368 36.3803 182.368C33.537 182.368 31.2321 184.663 31.2321 187.494C31.2321 190.326 33.537 192.621 36.3803 192.621Z" fill="#479FDE"/>
<path d="M42.2375 235.658C42.2375 235.658 37.8443 224.89 51.0234 216.814L42.2375 235.658Z" fill="#E6E6E6"/>
<path d="M36.8347 235.462C36.8347 235.462 35.4947 227.787 25.1224 227.853L36.8347 235.462Z" fill="#E6E6E6"/>
<path d="M48.8297 173.009C48.8297 172.195 49.0722 171.399 49.5264 170.722C49.9806 170.045 50.6262 169.517 51.3815 169.206C52.1369 168.894 52.968 168.813 53.7699 168.971C54.5718 169.13 55.3083 169.522 55.8864 170.098C56.4646 170.674 56.8582 171.407 57.0177 172.206C57.1772 173.004 57.0954 173.832 56.7825 174.584C56.4696 175.336 55.9398 175.979 55.26 176.431C54.5802 176.883 53.781 177.125 52.9634 177.125C51.8671 177.125 50.8157 176.691 50.0405 175.919C49.2652 175.147 48.8297 174.1 48.8297 173.009V173.009ZM49.5187 173.009C49.5187 173.687 49.7207 174.35 50.0992 174.914C50.4777 175.478 51.0157 175.918 51.6452 176.178C52.2746 176.437 52.9673 176.505 53.6355 176.373C54.3037 176.241 54.9175 175.914 55.3993 175.434C55.881 174.954 56.2091 174.343 56.342 173.678C56.475 173.012 56.4067 172.323 56.146 171.696C55.8853 171.069 55.4437 170.533 54.8773 170.156C54.3108 169.78 53.6448 169.578 52.9634 169.578C52.0498 169.578 51.1736 169.94 50.5276 170.583C49.8816 171.226 49.5187 172.099 49.5187 173.009Z" fill="#CCCCCC"/>
<path d="M36.3802 160.303C36.3802 159.489 36.6227 158.693 37.0769 158.016C37.5311 157.339 38.1767 156.812 38.9321 156.5C39.6874 156.189 40.5186 156.107 41.3204 156.266C42.1223 156.425 42.8589 156.817 43.437 157.392C44.0151 157.968 44.4088 158.702 44.5683 159.5C44.7278 160.298 44.6459 161.126 44.3331 161.878C44.0202 162.63 43.4903 163.273 42.8106 163.726C42.1308 164.178 41.3316 164.419 40.514 164.419C39.4176 164.419 38.3662 163.986 37.591 163.214C36.8158 162.442 36.3802 161.395 36.3802 160.303V160.303ZM37.0692 160.303C37.0692 160.981 37.2712 161.645 37.6498 162.209C38.0283 162.773 38.5663 163.213 39.1957 163.472C39.8252 163.732 40.5178 163.8 41.186 163.667C41.8542 163.535 42.4681 163.208 42.9498 162.729C43.4316 162.249 43.7597 161.638 43.8926 160.972C44.0255 160.307 43.9573 159.617 43.6965 158.99C43.4358 158.364 42.9943 157.828 42.4278 157.451C41.8613 157.074 41.1953 156.873 40.514 156.873C39.6004 156.873 38.7242 157.234 38.0782 157.878C37.4321 158.521 37.0692 159.393 37.0692 160.303Z" fill="#CCCCCC"/>
<path d="M219.747 150.456C219.233 150.823 218.643 151.073 218.021 151.187C217.398 151.301 216.758 151.277 216.146 151.115V151.115C215.048 150.824 214.111 150.111 213.541 149.132C212.971 148.153 212.815 146.989 213.107 145.895C213.121 145.84 213.137 145.785 213.155 145.73C213.218 145.529 213.297 145.335 213.39 145.146L204.967 107.489C204.838 107.059 204.795 106.608 204.841 106.162C204.888 105.715 205.021 105.283 205.235 104.888C205.45 104.493 205.74 104.144 206.089 103.861C206.438 103.578 206.84 103.366 207.272 103.238C207.704 103.11 208.156 103.067 208.605 103.113C209.053 103.159 209.487 103.292 209.884 103.505C210.28 103.719 210.63 104.007 210.915 104.355C211.199 104.703 211.412 105.104 211.541 105.533C211.548 105.557 211.554 105.58 211.561 105.604L219.512 143.375C220.11 143.745 220.606 144.256 220.958 144.863C221.31 145.469 221.506 146.153 221.529 146.853C221.553 147.553 221.402 148.248 221.091 148.877C220.781 149.505 220.319 150.048 219.747 150.456L219.747 150.456Z" fill="#9F616A"/>
<path d="M230.933 231.247H226.365L224.191 213.7H230.934L230.933 231.247Z" fill="#A0616A"/>
<path d="M232.098 235.657H217.367V235.471C217.367 233.957 217.971 232.505 219.046 231.435C220.122 230.364 221.58 229.762 223.1 229.762H232.098V235.657Z" fill="#2F2E41"/>
<path d="M185.131 231.104L180.784 229.703L184.14 212.342L190.555 214.408L185.131 231.104Z" fill="#A0616A"/>
<path d="M184.877 235.657L170.862 231.142L170.919 230.966C171.387 229.525 172.411 228.329 173.765 227.639C175.119 226.95 176.692 226.825 178.139 227.291V227.291L186.699 230.048L184.877 235.657Z" fill="#2F2E41"/>
<path d="M205.627 97.3266C209.883 97.3266 213.334 93.8903 213.334 89.6515C213.334 85.4126 209.883 81.9763 205.627 81.9763C201.37 81.9763 197.919 85.4126 197.919 89.6515C197.919 93.8903 201.37 97.3266 205.627 97.3266Z" fill="#9F616A"/>
<path d="M215.988 119.487C217.06 115.523 212.151 103.091 211.751 101.513C209.837 101.073 205.403 101.916 202.678 101.357C198.802 104.582 195.719 109.188 193.589 111.374C191.374 113.646 189.946 115.187 192.235 120.506C195.01 126.953 194.393 133.707 194.393 133.707L196.243 149.978C196.243 149.978 188.535 171.468 189.152 185.897L182.06 221.201C182.06 221.201 184.218 224.885 188.535 223.043C188.535 223.043 198.709 204.932 197.784 191.729L208.883 167.168C208.883 167.168 216.591 190.501 218.749 192.65L224.298 225.806C224.298 225.806 229.54 227.341 232.006 225.806C232.006 225.806 232.931 193.878 227.69 188.659C227.69 188.659 222.449 166.554 223.682 160.721C224.915 154.888 225.223 145.985 215.974 138.003C215.974 138.003 216.067 138.045 213.199 132.784L215.988 119.487Z" fill="#2F2E41"/>
<path d="M209.648 77.7884C209.215 77.7893 208.784 77.832 208.36 77.916C207.594 77.5457 206.754 77.3529 205.902 77.3521H205.679C201.378 77.3521 197.892 81.2282 197.892 86.0082H199.333L199.566 84.2441L199.907 86.0082H201.107C200.734 87.4238 200.546 88.8815 200.55 90.3451V99.156H202.728L203.99 95.8914L203.674 99.156H217.68L218.827 96.1881L218.54 99.156H220.117V92.2376C220.117 84.2575 215.43 77.7884 209.648 77.7884Z" fill="#2F2E41"/>
<path d="M193.577 154.817C192.951 154.91 192.312 154.865 191.706 154.683C191.1 154.502 190.541 154.189 190.071 153.767C189.653 153.392 189.314 152.938 189.072 152.432C188.83 151.926 188.69 151.378 188.661 150.818C188.632 150.259 188.714 149.699 188.903 149.171C189.091 148.643 189.382 148.157 189.758 147.741C189.798 147.698 189.838 147.656 189.878 147.614C190.027 147.465 190.186 147.327 190.356 147.202L200.122 109.869C200.204 109.428 200.373 109.007 200.618 108.631C200.863 108.255 201.18 107.93 201.552 107.676C201.923 107.422 202.341 107.243 202.781 107.15C203.222 107.057 203.677 107.051 204.12 107.132C204.563 107.214 204.985 107.382 205.363 107.626C205.741 107.87 206.067 108.186 206.322 108.556C206.577 108.925 206.757 109.342 206.85 109.78C206.944 110.219 206.95 110.672 206.868 111.113C206.863 111.139 206.858 111.164 206.853 111.19L196.613 148.41C196.974 149.01 197.182 149.691 197.217 150.39C197.252 151.09 197.113 151.787 196.813 152.421C196.513 153.054 196.061 153.604 195.496 154.022C194.932 154.44 194.273 154.713 193.577 154.817V154.817Z" fill="#9F616A"/>
</g>
<defs>
<clipPath id="clip0_1110_1384">
<rect width="246.302" height="236" fill="white"/>
</clipPath>
</defs>
</svg>
