<svg width="235" height="236" viewBox="0 0 235 236" fill="none" xmlns="http://www.w3.org/2000/svg">
<g clip-path="url(#clip0_1110_1338)">
<path d="M21.76 156.032L26.0871 158.121L36.2034 142.424L29.8165 139.341L21.76 156.032Z" fill="#FFB6B6"/>
<path d="M19.4282 160.473L32.7352 166.896L32.8164 166.728C33.4794 165.355 33.5697 163.774 33.0672 162.334C32.5648 160.893 31.511 159.712 30.1374 159.049L30.1371 159.048L28.5966 156.031L23.1713 155.686L22.0097 155.125L19.4282 160.473Z" fill="#2F2E41"/>
<path d="M53.9708 161.884L58.7754 161.883L61.0615 143.349L53.9697 143.35L53.9708 161.884Z" fill="#FFB6B6"/>
<path d="M53.8013 166.896L68.5774 166.896V166.709C68.5773 165.184 67.9713 163.721 66.8928 162.642C65.8142 161.564 64.3514 160.958 62.8261 160.958H62.8258L60.1267 158.91L55.0909 160.958L53.801 160.958L53.8013 166.896Z" fill="#2F2E41"/>
<path d="M58.7328 75.9259L64.239 113.896L64.7068 122.431L61.8192 149.064L62.9913 151.644L59.7164 153.664H53.0524L52.6987 125.531L47.7015 101.969L46.9286 128.675L45.8587 130.738C41.8736 139.78 36.5053 142.74 32.7102 149.499L26.0459 145.889L26.1856 143.197C24.8468 142.519 28.1957 140.538 28.5175 139.072L29.1003 136.448L32.9878 128.395L33.1362 125.559L32.0722 106.271L32.5729 80.2976L41.3144 73.613L58.7328 75.9259Z" fill="#2F2E41"/>
<path d="M50.3588 22.0955C55.1405 22.0955 59.0169 18.2191 59.0169 13.4374C59.0169 8.65566 55.1405 4.7793 50.3588 4.7793C45.577 4.7793 41.7007 8.65566 41.7007 13.4374C41.7007 18.2191 45.577 22.0955 50.3588 22.0955Z" fill="#FFB6B6"/>
<path d="M51.5499 82.9333C40.1358 82.9335 31.5735 78.6345 31.4564 78.5745L31.355 78.5224L31.3861 78.4128C31.6926 77.3397 31.9829 75.5394 31.4576 75.2769C31.4011 75.2552 31.3509 75.2197 31.3118 75.1735C31.2727 75.1273 31.2458 75.072 31.2338 75.0126C31.2037 74.7969 31.4196 74.5998 31.7186 74.3267C32.2989 73.7967 33.0937 73.0709 32.6276 71.9058C31.8058 69.8516 34.1164 59.3247 34.2659 58.6499L33.2789 41.8701C33.0991 38.6685 34.0271 35.5027 35.9068 32.9048C37.7865 30.307 40.5033 28.4355 43.6005 27.6051L43.6225 27.5992L43.6451 27.6007C43.966 27.6188 44.3058 26.5289 44.5636 25.7314C44.9443 24.5526 45.1957 23.8283 45.6245 23.8591C48.9446 24.0732 51.157 24.2132 52.6312 24.3048C55.4264 24.4785 55.9162 27.8783 55.9764 28.421C58.9851 30.2544 61.338 32.9911 62.6993 36.2408C64.0607 39.4905 64.361 43.0871 63.5574 46.5175L62.1642 52.5081L60.9331 55.3864L61.3388 61.065C63.2484 62.6529 62.7012 65.9013 62.5924 66.4501C64.412 68.3324 63.2946 70.5478 63.0236 71.0169C63.4893 71.586 63.8063 72.262 63.9459 72.984C64.0856 73.706 64.0436 74.4514 63.8237 75.1531L65.4995 80.5994L65.3731 80.6435C60.9269 82.1785 56.2536 82.9526 51.5499 82.9333V82.9333Z" fill="#3F3D56"/>
<path d="M105.19 26.1022C104.888 25.7125 104.505 25.3936 104.067 25.168C103.629 24.9425 103.147 24.8157 102.654 24.7967C102.162 24.7777 101.671 24.8669 101.217 25.058C100.763 25.2491 100.356 25.5374 100.025 25.9027L72.6481 26.0517L64.8698 29.8095L63.8608 34.1164L76.4294 33.5909L100.42 30.8508C101.07 31.3657 101.887 31.624 102.715 31.5769C103.544 31.5299 104.326 31.1805 104.914 30.5952C105.502 30.0099 105.855 29.2292 105.906 28.4011C105.957 27.573 105.702 26.7551 105.19 26.1022H105.19Z" fill="#FFB6B6"/>
<path d="M74.4275 35.1063L63.7709 40.1475L53.8912 36.0117L53.8813 35.9319C53.6951 34.4705 53.9517 32.987 54.6177 31.673C55.2838 30.3591 56.3287 29.2751 57.6174 28.5614C59.6792 27.4122 61.9268 26.6341 64.2578 26.2625C70.7929 25.2904 72.1184 24.917 72.131 24.9132L72.2748 24.8716L74.4275 35.1063Z" fill="#3F3D56"/>
<path d="M43.0173 18.8795C42.9104 18.88 42.8042 18.8628 42.7029 18.8288C42.305 18.6545 41.9725 18.3589 41.7527 17.9843C40.2181 15.7772 39.4771 12.8346 39.5506 9.23804C39.5817 7.7165 39.7539 5.77111 40.8195 4.22042C41.7155 2.91649 43.5282 1.8817 45.2174 2.40113C45.1982 2.06333 45.2732 1.72683 45.4341 1.42917C45.5949 1.13151 45.8353 0.884393 46.1284 0.715395C46.7757 0.382849 47.4904 0.202324 48.218 0.187557C49.9337 0.0267518 51.7073 -0.139475 53.4445 0.189721C55.3925 0.559193 56.9852 1.56321 57.8143 2.94428L57.8313 2.98766L57.9998 3.80606C58.0224 3.91608 58.0687 4.01988 58.1353 4.11032C58.2019 4.20076 58.2873 4.27569 58.3856 4.32995C58.484 4.3842 58.5929 4.41649 58.705 4.42459C58.817 4.43269 58.9295 4.41642 59.0346 4.37688C59.1493 4.33368 59.2734 4.32115 59.3944 4.34053C59.5155 4.35991 59.6295 4.41052 59.725 4.48737C59.8205 4.56422 59.8944 4.66466 59.9392 4.77877C59.9841 4.89288 59.9985 5.01672 59.9808 5.13806L59.9338 5.46361L60.4238 5.37194C60.5464 5.34907 60.6728 5.35912 60.7903 5.40104C60.9077 5.44295 61.012 5.51525 61.0924 5.61057C61.1728 5.70588 61.2265 5.82081 61.248 5.94364C61.2695 6.06646 61.2581 6.1928 61.2149 6.30978L61.0765 6.68414C61.1779 6.68478 61.2781 6.70619 61.3709 6.74705C61.4636 6.7879 61.5471 6.84734 61.616 6.92169C61.7151 7.02825 61.7776 7.16372 61.7942 7.30831C61.8109 7.4529 61.7808 7.59901 61.7085 7.7253C61.161 8.66168 60.3841 9.44328 59.4511 9.9965C58.9412 10.3032 58.3837 10.5225 57.8014 10.6453C54.0232 11.4606 50.1276 11.5778 46.3072 10.9909C46.5333 11.7444 46.6204 12.5328 46.5641 13.3175C46.5309 13.7626 46.3767 14.19 46.118 14.5536C45.8592 14.9173 45.506 15.2031 45.0964 15.3803C44.9212 15.4373 44.7419 15.4806 44.56 15.5097C44.3861 15.5368 44.2148 15.5784 44.0479 15.6342C43.8005 15.725 43.5814 15.8795 43.4128 16.0821C43.2442 16.2847 43.132 16.5281 43.0875 16.7879C43.043 17.0477 43.0678 17.3146 43.1594 17.5617C43.2509 17.8089 43.4061 18.0275 43.6091 18.1955L43.9885 17.8001L43.8651 18.3028C43.8393 18.4006 43.7933 18.4919 43.73 18.5708C43.6666 18.6497 43.5874 18.7144 43.4974 18.7606C43.3497 18.8394 43.1847 18.8803 43.0173 18.8795Z" fill="#2F2E41"/>
<path d="M100.997 124.401C128.305 124.401 150.443 102.601 150.443 75.7099C150.443 48.8184 128.305 27.0186 100.997 27.0186C73.6882 27.0186 51.5503 48.8184 51.5503 75.7099C51.5503 102.601 73.6882 124.401 100.997 124.401Z" fill="#E6E6E6"/>
<path d="M141.966 75.71C141.973 81.5487 140.691 87.3169 138.212 92.6032C138.135 92.7662 138.057 92.9292 137.978 93.0922C134.187 100.859 128.027 107.22 120.386 111.26C120.226 111.344 120.066 111.428 119.906 111.51C114.054 114.509 107.571 116.067 100.996 116.055C98.7157 116.056 96.4387 115.87 94.1881 115.501C94.0088 115.471 93.8294 115.441 93.6528 115.408C85.2315 113.91 77.4879 109.82 71.5026 103.71C71.3776 103.582 71.2526 103.451 71.1249 103.321C65.3924 97.3368 61.6613 89.7189 60.4478 81.5213C60.4233 81.3419 60.3961 81.1626 60.3744 80.9833C59.267 72.6485 60.8197 64.1767 64.811 56.7764C64.8952 56.6161 64.9849 56.4558 65.0718 56.2982C68.146 50.8084 72.4496 46.105 77.6453 42.5565C77.7947 42.4532 77.9442 42.3527 78.0936 42.2522C83.114 38.9139 88.8071 36.7204 94.7695 35.8269C94.9488 35.8024 95.1281 35.7753 95.3074 35.7508C97.1928 35.4929 99.0935 35.364 100.996 35.365C106.989 35.3552 112.911 36.6484 118.354 39.155C118.52 39.2311 118.683 39.3072 118.846 39.386C123.937 41.8149 128.472 45.2685 132.167 49.5306C132.286 49.6664 132.406 49.805 132.52 49.9435C136.986 55.2145 140.006 61.5553 141.284 68.3446V68.3473C141.32 68.5239 141.349 68.7005 141.379 68.8798C141.771 71.1355 141.967 73.4206 141.966 75.71V75.71Z" fill="white"/>
<path d="M105.042 72.643C105.606 73.3418 105.972 74.1793 106.101 75.0678L125.841 71.3446C125.062 67.1481 123.203 63.2268 120.448 59.9666L105.042 72.643Z" fill="#479FDE"/>
<path d="M126.461 71.6918C126.437 71.5125 126.404 71.3359 126.372 71.1593V71.1566C125.576 66.8697 123.679 62.8635 120.867 59.5313C120.751 59.3927 120.631 59.2542 120.511 59.121C118.245 56.5386 115.487 54.4329 112.399 52.9267H112.396C112.233 52.8479 112.073 52.7691 111.907 52.693C107.378 50.6129 102.348 49.871 97.4102 50.5549C97.2309 50.5766 97.0516 50.6038 96.8723 50.6337C93.2947 51.1998 89.8762 52.5124 86.839 54.4861C86.6869 54.5839 86.5348 54.6844 86.3853 54.7877C83.0503 57.0486 80.2937 60.062 78.3381 63.5848C78.2512 63.7424 78.1642 63.9027 78.0773 64.0657C75.6346 68.7149 74.7164 74.0147 75.4528 79.2147C75.4746 79.3967 75.5017 79.576 75.5343 79.7526C76.3567 84.7619 78.6763 89.4048 82.1878 93.0705C82.3101 93.2009 82.4351 93.3313 82.5655 93.459C86.2619 97.1849 91.0045 99.6979 96.1632 100.664C96.3425 100.699 96.5218 100.729 96.7011 100.759C102.199 101.672 107.844 100.805 112.815 98.2868C112.975 98.2053 113.132 98.1211 113.293 98.0342H113.296C117.995 95.52 121.797 91.6076 124.176 86.8381C124.258 86.6751 124.337 86.5121 124.413 86.3491C126.56 81.7821 127.274 76.6724 126.461 71.6918L126.461 71.6918ZM123.918 86.1236C123.842 86.2893 123.763 86.4523 123.682 86.6126C121.351 91.2733 117.632 95.0966 113.037 97.556C112.877 97.6402 112.717 97.7244 112.557 97.8059C107.694 100.271 102.171 101.117 96.7935 100.221C96.6142 100.194 96.4322 100.164 96.2556 100.129C91.2145 99.1832 86.5795 96.7284 82.9649 93.0895C82.8345 92.9618 82.7095 92.8314 82.5845 92.701C79.1533 89.1176 76.8836 84.5819 76.0723 79.6874C76.0424 79.5108 76.0152 79.3315 75.9908 79.1522C75.2708 74.0645 76.168 68.8792 78.5555 64.3292C78.637 64.1689 78.7239 64.0086 78.8135 63.8483C80.731 60.3965 83.4337 57.4444 86.7032 55.2305C86.8526 55.1273 87.0021 55.0268 87.1542 54.9317C90.1203 53.0076 93.4568 51.7267 96.9484 51.1716C97.125 51.1417 97.3043 51.1145 97.4863 51.0928C102.318 50.4236 107.241 51.1504 111.674 53.1875C111.839 53.2608 112.002 53.3396 112.163 53.4184C115.181 54.8885 117.877 56.9443 120.093 59.4661C120.213 59.6019 120.332 59.7405 120.446 59.879C123.201 63.1393 125.06 67.0606 125.839 71.2571C125.872 71.4337 125.902 71.6103 125.929 71.7923C126.718 76.6629 126.017 81.6582 123.918 86.1236V86.1236Z" fill="#CCCCCC"/>
<path d="M99.1084 71.6564L98.6656 71.9716L86.7034 55.2305L86.3855 54.7876L77.6455 42.5565C77.7949 42.4533 77.9444 42.3527 78.0938 42.2522L86.8393 54.4861L87.1544 54.9316L99.1084 71.6564Z" fill="#CCCCCC"/>
<path d="M96.9701 73.8217L96.7066 74.2998L78.5555 64.3291L78.0773 64.0655L64.811 56.7763C64.8953 56.616 64.9849 56.4557 65.0719 56.2981L78.3381 63.5846L78.8136 63.8482L96.9701 73.8217Z" fill="#CCCCCC"/>
<path d="M96.7393 77.264L76.0723 79.6874L75.5344 79.7526L60.4479 81.5213C60.4234 81.342 60.3963 81.1627 60.3745 80.9833L75.4529 79.2147L75.9909 79.1522L96.6768 76.7261L96.7393 77.264Z" fill="#CCCCCC"/>
<path d="M98.0732 79.0896L82.9649 93.0894L82.5656 93.4589L71.5026 103.709C71.3777 103.582 71.2527 103.451 71.125 103.321L82.1879 93.0704L82.5846 92.7009L97.7037 78.6902L98.0732 79.0896Z" fill="#CCCCCC"/>
<path d="M118.846 39.386L112.399 52.9266H112.396L112.163 53.4184L103.349 71.9308L102.86 71.6972L111.674 53.1874L111.907 52.693L118.354 39.155C118.52 39.2311 118.683 39.3072 118.846 39.386Z" fill="#CCCCCC"/>
<path d="M132.52 49.9435L120.868 59.5312L120.446 59.8789L104.518 72.9849L104.173 72.5665L120.093 59.466L120.512 59.1209L132.167 49.5305C132.286 49.6664 132.406 49.8049 132.52 49.9435Z" fill="#CCCCCC"/>
<path d="M141.379 68.8797L126.461 71.6916L125.929 71.7921L105.515 75.6419L105.414 75.1094L125.839 71.2569L126.372 71.1591V71.1564L141.284 68.3472C141.32 68.5238 141.35 68.7004 141.379 68.8797Z" fill="#CCCCCC"/>
<path d="M138.212 92.6031C138.136 92.7661 138.057 92.9291 137.978 93.0921L124.177 86.838L123.682 86.6125L105.042 78.1658L105.267 77.6714L123.919 86.1235L124.413 86.349L138.212 92.6031Z" fill="#CCCCCC"/>
<path d="M120.387 111.26C120.226 111.344 120.066 111.428 119.906 111.51L112.815 98.2869L112.557 97.806L102.866 79.7337L103.344 79.4783L113.038 97.556L113.293 98.0342H113.296L120.387 111.26Z" fill="#CCCCCC"/>
<path d="M100.209 80.171L96.7935 100.221L96.7011 100.759L94.1881 115.501C94.0088 115.471 93.8294 115.441 93.6528 115.408L96.1632 100.664L96.2556 100.129L99.6706 80.0786L100.209 80.171Z" fill="#CCCCCC"/>
<path d="M100.363 71.3466L99.8255 71.4227L96.9484 51.1715L96.8723 50.6335L94.7695 35.8268C94.9488 35.8023 95.1282 35.7752 95.3075 35.7507L97.4103 50.5547L97.4864 51.0927L100.363 71.3466Z" fill="#CCCCCC"/>
<path d="M100.996 80.793C103.847 80.793 106.158 78.5172 106.158 75.7099C106.158 72.9025 103.847 70.6267 100.996 70.6267C98.1456 70.6267 95.8345 72.9025 95.8345 75.7099C95.8345 78.5172 98.1456 80.793 100.996 80.793Z" fill="#3F3D56"/>
<path d="M207.183 217.811L203.32 221.046L189.002 207.682L194.705 202.907L207.183 217.811Z" fill="#A0616A"/>
<path d="M210.695 221.727L198.813 231.676L198.687 231.526C197.66 230.299 197.163 228.715 197.304 227.122C197.445 225.528 198.213 224.056 199.439 223.029L199.44 223.029L200.231 219.565L205.659 217.821L206.696 216.952L210.695 221.727Z" fill="#2F2E41"/>
<path d="M172.663 230.148L167.624 230.147L165.226 210.709L172.664 210.71L172.663 230.148Z" fill="#A0616A"/>
<path d="M172.84 235.405L157.344 235.404V235.208C157.344 233.608 157.979 232.074 159.11 230.943C160.241 229.812 161.776 229.176 163.375 229.176H163.376L166.206 227.029L171.488 229.177L172.841 229.177L172.84 235.405Z" fill="#2F2E41"/>
<path d="M185.267 137.13C186.484 138.652 185.876 143.825 185.876 143.825L186.174 176.046C191.348 180.307 195.31 197.997 195.31 197.997L200.25 207.085C199.641 208.911 195.693 216.052 194.475 215.748C193.91 215.606 186.88 209.122 182.204 199.506C176.803 188.398 173.702 173.954 173.702 173.954C173.702 173.954 174.311 215.344 174.311 217.17C174.311 218.996 166.094 218.083 164.268 218.083C162.442 218.083 153.043 143.521 153.043 143.521V139.26L154.564 137.13C154.564 137.13 184.05 135.608 185.267 137.13Z" fill="#2F2E41"/>
<path d="M119.846 68.3344L116.155 70.0566L120.268 69.1955C120.268 69.1955 123.29 69.3185 123.29 68.0883L128.211 65.3819C128.211 65.3819 132.394 67.5963 133.624 66.3661C134.854 65.1359 132.64 62.6755 132.64 62.6755C132.64 62.6755 134.122 61.858 133.996 61.5286C133.87 61.1993 131.902 61.6914 131.902 61.6914C131.902 61.6914 127.227 58.9849 127.473 63.6597L122.552 66.9221C122.552 66.9221 120.092 66.8582 119.846 68.3344Z" fill="#3F3D56"/>
<path d="M186.958 147.666C180.499 150.87 172.814 151.84 165.575 150.989C159.334 150.254 158.037 143.281 152.244 140.807C154.075 135.548 154.097 128.567 153.788 126.608C153.258 123.262 153.16 99.9444 155.099 97.5162C157.641 94.3304 161.522 92.6286 161.345 88.5567L161.889 89.115C161.202 87.3073 162.533 85.2381 164.284 84.4204C166.036 83.6027 168.059 83.7065 169.989 83.8269C171.614 83.9286 173.24 84.0303 174.865 84.1319C174.652 84.7953 174.601 85.4998 174.715 86.187C174.829 86.8742 175.105 87.5244 175.52 88.0835C178.401 87.2886 181.439 89.4014 182.726 92.0952C184.013 94.7912 183.982 97.9022 183.924 100.889C183.857 104.344 186.418 128.612 183.32 130.148C184.918 130.55 187.177 139.073 185.813 138.149C186.444 138.591 186.292 142.718 186.958 147.666Z" fill="#479FDE"/>
<path d="M124.178 64.3182C124.875 64.1135 125.607 64.064 126.325 64.1732C127.043 64.2823 127.728 64.5475 128.332 64.95C128.936 65.3525 129.444 65.8825 129.821 66.5028C130.198 67.1231 130.435 67.8185 130.514 68.54L157.917 92.6343L152.969 95.9215L125.77 74.104C124.549 74.1568 123.352 73.7598 122.404 72.9883C121.456 72.2169 120.824 71.1246 120.628 69.9183C120.432 68.7121 120.685 67.4758 121.339 66.4437C121.993 65.4115 123.004 64.6553 124.178 64.3182V64.3182Z" fill="#A0616A"/>
<path d="M153.689 84.8616C153.089 84.8961 138.927 74.5623 138.565 75.0416L137.613 80.2032L134.995 83.665L140.654 89.6639L142.271 90.99L143.31 92.0891C142.947 92.5755 145.36 95.1817 145.491 95.7764C145.554 96.0676 145.679 96.3417 145.858 96.5804C146.036 96.819 146.264 97.0165 146.525 97.1595L155.734 102.156C156.961 103.067 158.5 103.455 160.013 103.233C161.526 103.012 162.89 102.2 163.804 100.974C164.719 99.7492 165.111 98.2113 164.894 96.6978C164.676 95.1843 163.867 93.8187 162.645 92.9006L161.286 91.5268L159.206 89.4182L155.312 85.4751C155.102 85.2615 154.848 85.0959 154.568 84.99C154.288 84.8841 153.988 84.8403 153.689 84.8616V84.8616Z" fill="#479FDE"/>
<path d="M168.966 81.0982C174.483 81.0982 178.956 76.6259 178.956 71.1089C178.956 65.592 174.483 61.1196 168.966 61.1196C163.449 61.1196 158.977 65.592 158.977 71.1089C158.977 76.6259 163.449 81.0982 168.966 81.0982Z" fill="#A0616A"/>
<path d="M180.883 67.9452C180.327 65.7409 178.255 63.8178 175.993 64.0409C176.272 62.3426 175.142 60.6326 173.618 59.8322C172.094 59.0319 170.274 58.9976 168.576 59.2763C167.59 59.4552 166.613 59.6834 165.649 59.96C164.832 60.18 161 58.868 160.188 59.1075C159.493 59.3123 157.822 61.7998 157.295 62.2961C156.768 62.7923 156.489 63.6274 156.841 64.26C157.189 64.8845 157.984 65.0879 158.697 65.1464C159.409 65.2049 160.174 65.1946 160.766 65.5962C161.526 66.1123 161.741 67.1413 161.71 68.0594C161.679 68.9775 161.469 69.9034 161.64 70.8059C161.811 71.7083 162.542 72.6099 163.458 72.5478C164.144 71.8245 165.398 71.8709 166.185 72.483C166.561 72.812 166.862 73.2184 167.067 73.6745C167.271 74.1305 167.375 74.6254 167.37 75.1252C167.354 76.1235 167.199 77.1147 166.909 78.0702C166.744 78.7299 166.62 79.5295 167.108 80.0025C167.396 80.2319 167.743 80.3765 168.108 80.4199C169.55 80.7262 174.963 80.3107 176.405 80.617L176.293 80.3968C177.338 78.3778 178.725 76.5497 179.752 74.5216C180.778 72.4935 181.438 70.1496 180.883 67.9452Z" fill="#2F2E41"/>
<path d="M196.216 150.446C195.51 150.277 194.85 149.956 194.281 149.504C193.713 149.052 193.251 148.481 192.928 147.831C192.604 147.182 192.427 146.469 192.408 145.743C192.39 145.018 192.531 144.297 192.822 143.632L181.044 109.095L186.972 108.706L199.705 141.166C200.79 141.728 201.632 142.669 202.07 143.81C202.508 144.95 202.512 146.212 202.082 147.356C201.652 148.5 200.817 149.447 199.736 150.016C198.655 150.586 197.402 150.739 196.216 150.446V150.446Z" fill="#A0616A"/>
<path d="M178.317 113.61C178.855 113.879 185.996 129.89 186.548 129.655L189.943 125.652L193.936 123.952L192.013 115.932L191.271 113.977L190.916 112.507C191.474 112.266 190.677 108.804 190.86 108.223C190.95 107.939 190.978 107.639 190.942 107.343C190.906 107.048 190.807 106.763 190.651 106.509L185.151 97.5921C184.54 96.1904 183.398 95.0883 181.975 94.5274C180.553 93.9665 178.966 93.9925 177.563 94.5999C176.159 95.2073 175.054 96.3464 174.49 97.7675C173.925 99.1885 173.947 100.775 174.55 102.18L175.045 104.048L175.8 106.912L177.215 112.27C177.291 112.56 177.428 112.83 177.619 113.061C177.809 113.293 178.047 113.48 178.317 113.61V113.61Z" fill="#479FDE"/>
<path d="M223.887 229.689L221.104 225.218L220.549 227.773C220.451 228.22 220.354 228.675 220.263 229.126C219.473 228.451 218.632 227.827 217.809 227.228C215.283 225.394 212.757 223.558 210.233 221.72L211.024 226.304C211.511 229.126 212.02 232.006 213.225 234.587C213.359 234.879 213.503 235.168 213.659 235.45H225.403C225.497 235.188 225.563 234.917 225.598 234.641C225.601 234.623 225.602 234.605 225.601 234.587C225.786 232.837 224.818 231.187 223.887 229.689Z" fill="#F0F0F0"/>
<path d="M233.827 235.889L134.303 236C134.189 236 134.08 235.955 133.999 235.874C133.919 235.793 133.874 235.684 133.874 235.57C133.874 235.456 133.919 235.347 133.999 235.266C134.08 235.186 134.189 235.14 134.303 235.14L233.827 235.03C233.884 235.029 233.94 235.04 233.992 235.062C234.045 235.083 234.092 235.115 234.132 235.155C234.172 235.195 234.204 235.242 234.226 235.295C234.247 235.347 234.258 235.403 234.258 235.459C234.258 235.516 234.247 235.572 234.226 235.624C234.204 235.676 234.172 235.724 234.132 235.764C234.092 235.804 234.045 235.835 233.992 235.857C233.94 235.878 233.884 235.889 233.827 235.889Z" fill="#CACACA"/>
<path d="M90.0135 160.944L87.2308 156.472L86.675 159.027C86.5776 159.475 86.4801 159.93 86.3899 160.381C85.5995 159.706 84.7585 159.081 83.9357 158.482C81.4092 156.649 78.884 154.813 76.3599 152.975L77.1503 157.558C77.6375 160.381 78.1465 163.261 79.3519 165.841C79.4855 166.134 79.6298 166.423 79.7851 166.704H91.5295C91.6239 166.443 91.6893 166.171 91.7244 165.896C91.7273 165.878 91.7285 165.86 91.7279 165.841C91.9121 164.091 90.9447 162.442 90.0135 160.944Z" fill="#F0F0F0"/>
<path d="M99.9539 167.143L0.429716 167.254C0.315957 167.254 0.206977 167.209 0.126653 167.128C0.0463296 167.047 0.0012207 166.938 0.0012207 166.825C0.0012207 166.711 0.0463296 166.602 0.126653 166.521C0.206977 166.441 0.315957 166.395 0.429716 166.395L99.9539 166.284C100.01 166.284 100.066 166.295 100.119 166.316C100.171 166.338 100.219 166.369 100.259 166.409C100.299 166.449 100.33 166.497 100.352 166.549C100.374 166.601 100.385 166.657 100.385 166.714C100.385 166.77 100.374 166.826 100.352 166.878C100.33 166.931 100.299 166.978 100.259 167.018C100.219 167.058 100.171 167.09 100.119 167.111C100.066 167.133 100.01 167.144 99.9539 167.143V167.143Z" fill="#CACACA"/>
<path d="M53.9235 84.1679C53.4549 84.0157 53.0253 83.7625 52.6651 83.4262C52.3049 83.0899 52.0228 82.6788 51.8386 82.2217C51.6545 81.7646 51.5728 81.2727 51.5994 80.7806C51.6259 80.2886 51.76 79.8083 51.9922 79.3737L42.8904 53.5535L43.8017 44.9632L47.5151 42.5596L51.2635 54.5677L56.783 78.0747C57.4873 78.5133 58.0063 79.1949 58.2415 79.9905C58.4768 80.7861 58.4121 81.6404 58.0597 82.3914C57.7072 83.1425 57.0915 83.7382 56.3292 84.0656C55.5669 84.393 54.7109 84.4294 53.9236 84.1679L53.9235 84.1679Z" fill="#FFB6B6"/>
<path d="M37.9858 35.928L46.5942 32.5959L51.5922 49.2565L40.0557 52.9122L37.9858 35.928Z" fill="#3F3D56"/>
</g>
<defs>
<clipPath id="clip0_1110_1338">
<rect width="234.257" height="236" fill="white"/>
</clipPath>
</defs>
</svg>
