<svg width="22" height="18" viewBox="0 0 22 18" fill="none" xmlns="http://www.w3.org/2000/svg">
<path fill-rule="evenodd" clip-rule="evenodd" d="M0.250122 1.5C0.250122 1.08579 0.585909 0.75 1.00012 0.75H21.0001C21.4143 0.75 21.7501 1.08579 21.7501 1.5V16.5C21.7501 16.9142 21.4143 17.25 21.0001 17.25H1.00012C0.585909 17.25 0.250122 16.9142 0.250122 16.5V1.5ZM1.75012 2.25V15.75H20.2501V2.25H1.75012Z" fill="white"/>
<path fill-rule="evenodd" clip-rule="evenodd" d="M0.400166 1.05004C0.648694 0.718673 1.1188 0.651516 1.45017 0.900044L11.0002 8.06254L20.5502 0.900044C20.8815 0.651516 21.3516 0.718673 21.6002 1.05004C21.8487 1.38142 21.7815 1.85152 21.4502 2.10004L11.4502 9.60004C11.1835 9.80004 10.8168 9.80004 10.5502 9.60004L0.550166 2.10004C0.218795 1.85152 0.151638 1.38142 0.400166 1.05004Z" fill="white"/>
<path fill-rule="evenodd" clip-rule="evenodd" d="M0.250122 1.5C0.250122 1.08579 0.585909 0.75 1.00012 0.75H11.0001C11.4143 0.75 11.7501 1.08579 11.7501 1.5C11.7501 1.91421 11.4143 2.25 11.0001 2.25H1.75012V9C1.75012 9.41421 1.41434 9.75 1.00012 9.75C0.585909 9.75 0.250122 9.41421 0.250122 9V1.5Z" fill="white"/>
<path fill-rule="evenodd" clip-rule="evenodd" d="M10.2501 1.5C10.2501 1.08579 10.5859 0.75 11.0001 0.75H21.0001C21.4143 0.75 21.7501 1.08579 21.7501 1.5V9C21.7501 9.41421 21.4143 9.75 21.0001 9.75C20.5859 9.75 20.2501 9.41421 20.2501 9V2.25H11.0001C10.5859 2.25 10.2501 1.91421 10.2501 1.5Z" fill="white"/>
</svg>
