<svg width="18" height="18" viewBox="0 0 18 18" fill="none" xmlns="http://www.w3.org/2000/svg">
<path d="M2.85933 1.7196C2.05304 1.7196 1.55009 2.44209 1.78043 3.12473C2.60631 5.57237 4.14532 9.25443 6.44051 11.5496C8.73566 13.8448 12.4177 15.3838 14.8654 16.2097C15.548 16.44 16.2705 15.9371 16.2705 15.1308V12.6454C16.2705 12.5565 16.2223 12.4746 16.1446 12.4314L13.9797 11.2278C13.909 11.1885 13.8235 11.1866 13.7512 11.2228L11.4425 12.3771C11.2981 12.4493 11.134 12.4719 10.9755 12.4415L11.1139 11.7199C10.9755 12.4415 10.9755 12.4415 10.9755 12.4415L10.9733 12.4411L10.9706 12.4406L10.9632 12.4391L10.941 12.4345C10.923 12.4307 10.8987 12.4253 10.8685 12.4181C10.808 12.4038 10.724 12.3825 10.6203 12.3526C10.4134 12.2929 10.1268 12.1984 9.79359 12.0564C9.13012 11.7737 8.26404 11.2948 7.47967 10.5105C6.69541 9.7262 6.21516 8.85888 5.93111 8.19445C5.78845 7.86076 5.69326 7.57355 5.63301 7.3663C5.60283 7.26252 5.58128 7.17832 5.56684 7.11782C5.55961 7.08755 5.55415 7.06316 5.55027 7.04517L5.5456 7.02302L5.54411 7.01565L5.54356 7.01291L5.54334 7.01178C5.54334 7.01178 5.54315 7.01081 6.26443 6.87052L5.54334 7.01178C5.5124 6.8527 5.53473 6.68687 5.60721 6.54191L6.76172 4.23283C6.79785 4.16059 6.79605 4.07508 6.75681 4.00439L5.55844 1.84571C5.5152 1.76783 5.43317 1.7196 5.34427 1.7196H2.85933ZM7.04382 6.9548L7.04417 6.95603C7.09041 7.11505 7.16638 7.34539 7.28239 7.61675C7.51569 8.16244 7.90284 8.8553 8.51881 9.47127M8.51881 9.47127C9.13472 10.0872 9.82596 10.4728 10.3697 10.7045C10.6402 10.8197 10.8696 10.895 11.0279 10.9407L13.0939 9.90837C13.6003 9.65515 14.199 9.66826 14.6938 9.94334L16.8586 11.1469C17.4028 11.4494 17.7401 12.023 17.7401 12.6454V15.1308C17.7401 16.8558 16.1114 18.1811 14.3956 17.6021C11.9172 16.7659 7.95275 15.1402 5.40136 12.5888C2.84993 10.0374 1.22421 6.07293 0.387961 3.59458C-0.190984 1.87874 1.13433 0.25 2.85933 0.25H5.34427C5.96714 0.25 6.54095 0.587845 6.84326 1.1323L8.0417 3.2911C8.31626 3.7857 8.32924 4.38401 8.07615 4.8901L7.04382 6.9548" fill="white"/>
</svg>
