<svg width="56" height="112" viewBox="0 0 56 112" fill="none" xmlns="http://www.w3.org/2000/svg">
<path d="M17.6939 76.7516L18.1663 76.4916C22.7019 84.7232 29.6593 91.0876 38.2804 94.896C51.6361 100.796 66.8937 99.5065 79.0899 91.4421L79.3901 91.8941C67.041 100.061 51.5922 101.367 38.068 95.3924C29.3308 91.5326 22.2885 85.0855 17.6939 76.7516Z" fill="#5177FF"/>
<path d="M15.9996 38.4059C25.6259 16.615 51.1884 6.71723 72.9793 16.3435C94.7702 25.9698 104.668 51.5323 95.0417 73.3232L94.5479 73.1051C104.054 51.5872 94.279 26.3429 72.7612 16.8373C51.2433 7.33165 25.999 17.1062 16.4934 38.624C13.6217 45.1247 12.4064 52.2842 12.9881 59.321L12.4514 59.3651C11.864 52.239 13.0894 44.9937 15.9996 38.4059Z" fill="#5177FF"/>
<path d="M33.3624 23.7229C44.6252 15.9717 58.8075 14.6411 71.2976 20.1587L70.8613 21.1463C58.7198 15.7827 44.9282 17.0776 33.9763 24.612L33.3624 23.7229Z" fill="#5177FF"/>
<path d="M19.8162 40.0921C21.5459 36.1766 23.8722 32.6079 26.7399 29.4798L27.5382 30.2109C24.7516 33.2498 22.4889 36.7216 20.808 40.5267C12.9063 58.4137 19.7473 79.1787 36.7184 88.8316L36.1859 89.7698C18.7258 79.8488 11.6887 58.4903 19.8162 40.0921Z" fill="#5177FF"/>
<path d="M45.9275 92.5942C54.5531 94.8598 63.7624 93.9812 71.8614 90.1229C80.045 86.2223 86.5703 79.5061 90.2375 71.2045C93.1965 64.5063 94.1595 57.1555 93.0126 49.9523C91.6795 41.5594 87.526 33.7675 81.3158 28.0143L82.0485 27.2201C88.437 33.1354 92.7091 41.1464 94.0778 49.7806C95.2558 57.1885 94.2672 64.7467 91.2193 71.6382C87.4468 80.178 80.736 87.0864 72.3159 91.0979C63.989 95.0637 54.515 95.9678 45.6432 93.6385L45.9275 92.5942Z" fill="#5177FF"/>
<path d="M29.7313 44.4727C36.0137 30.2514 52.6938 23.7929 66.9151 30.0752C72.6722 32.6184 77.2969 36.8763 80.2897 42.392L79.3391 42.9094C76.4573 37.6059 72.0126 33.5143 66.4763 31.0686C52.801 25.0275 36.7616 31.2379 30.7205 44.9132C29.6478 47.3415 28.9407 49.8931 28.6115 52.5006L27.5388 52.3669C27.8784 49.6495 28.615 46.9998 29.7313 44.4727Z" fill="#5177FF"/>
<path d="M28.8083 64.8829L29.8338 64.5339C32.261 71.723 37.6325 77.5987 44.5647 80.6645C49.4504 82.8228 54.7996 83.4917 60.0401 82.5991L60.2218 83.6652C54.7724 84.5906 49.2058 83.895 44.1284 81.6521C36.9148 78.4689 31.3316 72.3574 28.8083 64.8829Z" fill="#5177FF"/>
<path d="M34.1608 46.4321C35.6955 42.9581 38.0697 39.8862 41.0278 37.5513L41.3608 37.9762C38.47 40.2609 36.1491 43.2591 34.6504 46.6518C30.5135 56.0165 33.1564 67.0709 41.0767 73.5344L40.7327 73.9518C32.6315 67.332 29.9264 56.0175 34.1608 46.4321Z" fill="#5177FF"/>
<path d="M47.0856 34.0932C52.9025 31.8409 59.2491 31.9888 64.958 34.5073C76.7336 39.7092 82.083 53.5249 76.8811 65.3005C71.6791 77.076 57.8635 82.4254 46.0879 77.2235L46.306 76.7297C57.8086 81.811 71.306 76.5848 76.3873 65.0823C81.4686 53.5798 76.2424 40.0824 64.7399 35.0011C59.1629 32.5374 52.9673 32.3937 47.2844 34.5941L47.0898 34.0915L47.0856 34.0932Z" fill="#5177FF"/>
<path d="M42.2359 49.9996C45.472 42.674 54.0654 39.3466 61.391 42.5827C68.7166 45.8189 72.044 54.4123 68.8079 61.7379L67.8203 61.3016C70.8152 54.5221 67.7359 46.5694 60.9548 43.5703C54.1752 40.5754 46.2225 43.6547 43.2276 50.4342C40.2327 57.2137 43.312 65.1664 50.0915 68.1613L49.6553 69.1489C42.3255 65.9144 38.9997 57.3252 42.2359 49.9996Z" fill="#5177FF"/>
<path d="M48.9162 52.9507C50.5253 49.3082 54.7969 47.6543 58.4352 49.265L58.217 49.7588C54.8476 48.2703 50.8985 49.7994 49.41 53.1688C47.9215 56.5383 49.4506 60.4874 52.8201 61.9759C56.1895 63.4643 60.1386 61.9352 61.6271 58.5658C62.4534 56.6952 62.3826 54.5845 61.4345 52.7701L61.9143 52.5169C62.9376 54.4755 63.0139 56.7623 62.1209 58.7839C60.5118 62.4264 56.2402 64.0804 52.6019 62.4696C48.9636 60.8589 47.3113 56.5915 48.9162 52.9507Z" fill="#5177FF"/>
</svg>
