<svg width="40" height="40" viewBox="0 0 40 40" fill="none" xmlns="http://www.w3.org/2000/svg">
<path fill-rule="evenodd" clip-rule="evenodd" d="M8.07738 28.2934C8.41583 27.6917 9.17798 27.4783 9.77967 27.8167L20.0002 33.5658L30.2207 27.8167C30.8224 27.4783 31.5845 27.6917 31.923 28.2934C32.2614 28.8951 32.048 29.6572 31.4463 29.9957L20.613 36.0894C20.2325 36.3034 19.7679 36.3034 19.3874 36.0894L8.55402 29.9957C7.95232 29.6572 7.73892 28.8951 8.07738 28.2934Z" fill="#479FDE"/>
<path fill-rule="evenodd" clip-rule="evenodd" d="M21.8274 6.02774C22.1658 5.42604 22.928 5.21264 23.5297 5.55109L33.9463 11.4105C34.3399 11.6319 34.5835 12.0483 34.5835 12.4999V24.9999C34.5835 25.6903 34.0239 26.2499 33.3335 26.2499C32.6432 26.2499 32.0835 25.6903 32.0835 24.9999V13.231L22.304 7.73003C21.7023 7.39158 21.4889 6.62943 21.8274 6.02774Z" fill="#479FDE"/>
<path fill-rule="evenodd" clip-rule="evenodd" d="M18.1728 6.02774C18.5112 6.62943 18.2978 7.39158 17.6961 7.73003L7.91663 13.231V24.9999C7.91663 25.6903 7.35698 26.2499 6.66663 26.2499C5.97627 26.2499 5.41663 25.6903 5.41663 24.9999V12.4999C5.41663 12.0483 5.6602 11.6319 6.0538 11.4105L16.4705 5.55109C17.0722 5.21264 17.8343 5.42604 18.1728 6.02774Z" fill="#479FDE"/>
<path fill-rule="evenodd" clip-rule="evenodd" d="M19.3701 13.0869C19.7593 12.8598 20.2406 12.8598 20.6298 13.0869L25.6298 16.0035C26.0138 16.2275 26.25 16.6387 26.25 17.0833V22.9166C26.25 23.3612 26.0138 23.7723 25.6298 23.9963L20.6298 26.913C20.2406 27.14 19.7593 27.14 19.3701 26.913L14.3701 23.9963C13.9861 23.7723 13.75 23.3612 13.75 22.9166V17.0833C13.75 16.6387 13.9861 16.2275 14.3701 16.0035L19.3701 13.0869ZM20 15.6137L16.25 17.8012V22.1986L20 24.3861L23.75 22.1986V17.8012L20 15.6137Z" fill="#479FDE"/>
<path fill-rule="evenodd" clip-rule="evenodd" d="M20 7.08325C20.6903 7.08325 21.25 7.6429 21.25 8.33325V14.1666C21.25 14.8569 20.6903 15.4166 20 15.4166C19.3096 15.4166 18.75 14.8569 18.75 14.1666V8.33325C18.75 7.6429 19.3096 7.08325 20 7.08325Z" fill="#479FDE"/>
<path fill-rule="evenodd" clip-rule="evenodd" d="M23.9149 21.8798C24.2574 21.2804 25.0209 21.0721 25.6203 21.4146L31.4537 24.748C32.0531 25.0905 32.2613 25.854 31.9188 26.4534C31.5763 27.0528 30.8127 27.2611 30.2133 26.9186L24.38 23.5852C23.7806 23.2427 23.5724 22.4792 23.9149 21.8798Z" fill="#479FDE"/>
<path fill-rule="evenodd" clip-rule="evenodd" d="M16.0855 21.8798C16.428 22.4792 16.2197 23.2427 15.6203 23.5852L9.78701 26.9186C9.18762 27.2611 8.42405 27.0528 8.08154 26.4534C7.73902 25.854 7.94727 25.0905 8.54667 24.748L14.38 21.4146C14.9794 21.0721 15.743 21.2804 16.0855 21.8798Z" fill="#479FDE"/>
<path fill-rule="evenodd" clip-rule="evenodd" d="M20 4.58325C19.3096 4.58325 18.75 5.1429 18.75 5.83325C18.75 6.52361 19.3096 7.08325 20 7.08325C20.6903 7.08325 21.25 6.52361 21.25 5.83325C21.25 5.1429 20.6903 4.58325 20 4.58325ZM16.25 5.83325C16.25 3.76218 17.9289 2.08325 20 2.08325C22.071 2.08325 23.75 3.76218 23.75 5.83325C23.75 7.90432 22.071 9.58325 20 9.58325C17.9289 9.58325 16.25 7.90432 16.25 5.83325Z" fill="#479FDE"/>
<path fill-rule="evenodd" clip-rule="evenodd" d="M6.66663 26.2499C5.97627 26.2499 5.41663 26.8096 5.41663 27.4999C5.41663 28.1903 5.97627 28.7499 6.66663 28.7499C7.35698 28.7499 7.91663 28.1903 7.91663 27.4999C7.91663 26.8096 7.35698 26.2499 6.66663 26.2499ZM2.91663 27.4999C2.91663 25.4289 4.59556 23.7499 6.66663 23.7499C8.73769 23.7499 10.4166 25.4289 10.4166 27.4999C10.4166 29.571 8.73769 31.2499 6.66663 31.2499C4.59556 31.2499 2.91663 29.571 2.91663 27.4999Z" fill="#479FDE"/>
<path fill-rule="evenodd" clip-rule="evenodd" d="M33.3335 26.2499C32.6432 26.2499 32.0833 26.8096 32.0833 27.4999C32.0833 28.1903 32.6429 28.7499 33.3333 28.7499C34.0236 28.7499 34.5833 28.1903 34.5833 27.4999C34.5833 26.8096 34.0239 26.2499 33.3335 26.2499ZM29.5833 27.4999C29.5833 25.4289 31.2622 23.7499 33.3333 23.7499C35.4044 23.7499 37.0833 25.4289 37.0833 27.4999C37.0833 29.571 35.4044 31.2499 33.3333 31.2499C31.2622 31.2499 29.5833 29.571 29.5833 27.4999Z" fill="#479FDE"/>
</svg>
