<svg width="30" height="34" viewBox="0 0 30 34" fill="none" xmlns="http://www.w3.org/2000/svg">
<path fill-rule="evenodd" clip-rule="evenodd" d="M11.2292 16.7646C11.0665 16.9273 11.0665 17.1911 11.2292 17.3538L14.7648 20.8894C14.9275 21.0521 15.1913 21.0521 15.354 20.8894L18.8896 17.3538C19.0523 17.1911 19.0523 16.9273 18.8896 16.7646L15.354 13.229C15.1913 13.0663 14.9275 13.0663 14.7648 13.229L11.2292 16.7646ZM9.46147 19.1216C8.32244 17.9826 8.32244 16.1358 9.46147 14.9968L12.997 11.4613C14.136 10.3222 15.9828 10.3222 17.1218 11.4613L20.6573 14.9968C21.7964 16.1358 21.7964 17.9826 20.6573 19.1216L17.1218 22.6571C15.9828 23.7962 14.136 23.7962 12.997 22.6571L9.46147 19.1216Z" fill="#479FDE"/>
<path fill-rule="evenodd" clip-rule="evenodd" d="M0.547538 9.77705C3.20005 4.43951 8.59987 0.75 14.9929 0.75C21.3751 0.75 26.8955 4.4294 29.5531 9.77705C29.8603 10.3953 29.6082 11.1455 28.99 11.4527C28.3717 11.76 27.6215 11.5078 27.3143 10.8896C25.0628 6.3591 20.3898 3.25 14.9929 3.25C9.60683 3.25 5.04281 6.34899 2.78633 10.8896C2.4791 11.5078 1.72887 11.76 1.11064 11.4527C0.49242 11.1455 0.240309 10.3953 0.547538 9.77705Z" fill="#479FDE"/>
<path fill-rule="evenodd" clip-rule="evenodd" d="M1.66666 2.41667C2.35701 2.41667 2.91666 2.97631 2.91666 3.66667V10.3333C2.91666 11.0237 2.35701 11.5833 1.66666 11.5833C0.976301 11.5833 0.416656 11.0237 0.416656 10.3333V3.66667C0.416656 2.97631 0.976301 2.41667 1.66666 2.41667Z" fill="#479FDE"/>
<path fill-rule="evenodd" clip-rule="evenodd" d="M0.416656 10.3333C0.416656 9.64298 0.976301 9.08333 1.66666 9.08333H7.3168C8.00715 9.08333 8.5668 9.64298 8.5668 10.3333C8.5668 11.0237 8.00715 11.5833 7.3168 11.5833H1.66666C0.976301 11.5833 0.416656 11.0237 0.416656 10.3333Z" fill="#479FDE"/>
<path fill-rule="evenodd" clip-rule="evenodd" d="M1.11064 22.5473C1.72887 22.2401 2.4791 22.4922 2.78633 23.1105C5.03779 27.641 9.7108 30.7501 15.1078 30.7501C20.4938 30.7501 25.0578 27.6511 27.3143 23.1105C27.6215 22.4922 28.3717 22.2401 28.99 22.5473C29.6082 22.8546 29.8603 23.6048 29.5531 24.223C26.9006 29.5606 21.5007 33.2501 15.1078 33.2501C8.72556 33.2501 3.20508 29.5707 0.547538 24.223C0.240309 23.6048 0.49242 22.8546 1.11064 22.5473Z" fill="#479FDE"/>
<path fill-rule="evenodd" clip-rule="evenodd" d="M28.4334 22.4167C29.1238 22.4167 29.6834 22.9763 29.6834 23.6667V30.3333C29.6834 31.0237 29.1238 31.5833 28.4334 31.5833C27.7431 31.5833 27.1834 31.0237 27.1834 30.3333V23.6667C27.1834 22.9763 27.7431 22.4167 28.4334 22.4167Z" fill="#479FDE"/>
<path fill-rule="evenodd" clip-rule="evenodd" d="M21.5332 23.6667C21.5332 22.9763 22.0928 22.4167 22.7832 22.4167H28.4334C29.1238 22.4167 29.6834 22.9763 29.6834 23.6667C29.6834 24.357 29.1237 24.9167 28.4334 24.9167H22.7832C22.0928 24.9167 21.5332 24.357 21.5332 23.6667Z" fill="#479FDE"/>
</svg>
