<svg width="36" height="164" viewBox="0 0 36 164" fill="none" xmlns="http://www.w3.org/2000/svg">
<path d="M7.27298 111.031C7.31232 109.236 6.04199 107.925 4.2306 107.885C2.43523 107.846 1.12437 109.116 1.08503 110.912C1.04568 112.707 2.33169 114.034 4.11138 114.057C5.90675 114.097 7.23399 112.811 7.27298 111.031Z" fill="#BD00FF"/>
<path d="M5.13002 77.0972C3.32073 76.9613 1.89977 78.133 1.7653 79.8782C1.62942 81.6874 2.81715 83.1088 4.56231 83.2432C6.35557 83.3788 7.79291 82.1914 7.92738 80.4462C8.07894 78.6533 6.87554 77.2156 5.13002 77.0972Z" fill="#BD00FF"/>
<path d="M2.43815 49.2286C2.38277 51.0236 3.63602 52.3822 5.39897 52.4369C7.19399 52.4922 8.55258 51.239 8.60761 49.46C8.66298 47.665 7.42541 46.3228 5.6304 46.2674C3.83539 46.212 2.5092 47.4499 2.43815 49.2286Z" fill="#BD00FF"/>
<path d="M22.3426 126.726C22.3495 124.946 21.0628 123.651 19.2671 123.628C17.4874 123.605 16.1762 124.891 16.1686 126.703C16.1616 128.483 17.448 129.794 19.2441 129.802C21.0077 129.824 22.3193 128.522 22.3426 126.726Z" fill="#BD00FF"/>
<path d="M16.8288 95.7803C16.7734 97.5753 18.011 98.9176 19.7896 98.9886C21.5846 99.044 22.9429 97.8068 22.9979 96.0278C23.0533 94.2328 21.8157 92.8906 20.021 92.8192C18.242 92.7641 16.8998 94.0017 16.8288 95.7803Z" fill="#BD00FF"/>
<path d="M17.5038 65.0033C17.4485 66.7983 18.7021 68.1409 20.4974 68.1802C22.2925 68.2356 23.6354 66.966 23.6904 65.187C23.7458 63.392 22.4758 62.0651 20.6968 62.0101C18.8854 61.9704 17.5592 63.2083 17.5038 65.0033Z" fill="#BD00FF"/>
<path d="M18.1788 34.2255C18.1394 36.0208 19.4098 37.3317 21.2051 37.371C23.0005 37.4104 24.3277 36.1244 24.3507 34.3447C24.39 32.5493 23.1197 31.2385 21.3083 31.1988C19.5286 31.1758 18.2181 32.4301 18.1788 34.2255Z" fill="#BD00FF"/>
<path d="M37.4071 142.565C37.4625 140.77 36.2085 139.443 34.4135 139.388C32.6185 139.332 31.276 140.586 31.2209 142.365C31.1656 144.16 32.4352 145.503 34.2142 145.558C35.9935 145.597 37.3525 144.328 37.4071 142.565Z" fill="#BD00FF"/>
<path d="M38.081 111.755C38.1364 109.96 36.8824 108.633 35.0874 108.578C33.2924 108.523 31.9498 109.776 31.8948 111.555C31.8394 113.35 33.1091 114.693 34.8881 114.748C36.6674 114.787 38.0263 113.518 38.081 111.755Z" fill="#BD00FF"/>
<path d="M32.5739 80.6492C32.4865 82.4435 33.707 83.8335 35.4689 83.9362C37.2632 84.0237 38.6531 82.8032 38.7559 81.0413C38.8594 79.2473 37.6229 77.857 35.8606 77.7703C34.0346 77.6661 32.677 78.8713 32.5739 80.6492Z" fill="#BD00FF"/>
<path d="M33.2455 49.9521C33.2062 51.7475 34.4762 53.0744 36.2555 53.1133C38.0509 53.1527 39.3778 51.8827 39.4328 50.1037C39.4721 48.3084 38.2182 46.9818 36.4228 46.9425C34.6114 46.9028 33.2849 48.1567 33.2455 49.9521Z" fill="#BD00FF"/>
<path d="M33.9222 19.1264C33.8668 20.9215 35.1364 22.2644 36.9154 22.3194C38.7104 22.3748 40.0533 21.1051 40.1084 19.3262C40.1637 17.5312 38.8938 16.2043 37.1148 16.1492C35.3037 16.0935 33.9775 17.3314 33.9222 19.1264Z" fill="#BD00FF"/>
</svg>
