<svg width="92" height="140" viewBox="0 0 92 140" fill="none" xmlns="http://www.w3.org/2000/svg">
<path opacity="0.5" d="M76.8905 59.5207C80.2015 46.8746 72.6373 33.9444 59.9914 30.633L-73.6297 -4.35534C-86.2757 -7.66666 -99.2056 -0.102703 -102.517 12.5433C-105.827 25.1894 -98.2633 38.1197 -85.6173 41.431L48.0038 76.4194C60.6468 79.7258 73.5767 72.1618 76.8905 59.5207Z" fill="url(#paint0_linear_301_1100)"/>
<path opacity="0.5" d="M56.6195 10.4413C58.1953 4.42217 54.5952 -1.73185 48.5791 -3.30312L-11.9547 -19.1549C-17.9738 -20.7311 -24.1274 -17.1312 -25.6983 -11.1149C-27.2741 -5.09574 -23.674 1.05826 -17.6578 2.62954L42.8759 18.4813C48.8872 20.0554 55.0408 16.4556 56.6195 10.4413Z" fill="url(#paint1_linear_301_1100)"/>
<path opacity="0.5" d="M30.7522 96.2401C32.3282 90.2211 28.7283 84.0675 22.7123 82.4965L-37.82 66.6472C-43.8389 65.0713 -49.9926 68.6711 -51.5636 74.6872C-53.1395 80.7061 -49.5397 86.8597 -43.5236 88.4307L17.0086 104.28C23.0276 105.856 29.1812 102.256 30.7522 96.2401Z" fill="url(#paint2_linear_301_1100)"/>
<defs>
<linearGradient id="paint0_linear_301_1100" x1="76.8896" y1="59.5181" x2="-102.52" y2="12.5457" gradientUnits="userSpaceOnUse">
<stop stop-color="#15FFF1"/>
<stop offset="1" stop-color="white" stop-opacity="0"/>
</linearGradient>
<linearGradient id="paint1_linear_301_1100" x1="56.6182" y1="10.4389" x2="-25.7056" y2="-11.1133" gradientUnits="userSpaceOnUse">
<stop stop-color="#15FFF1"/>
<stop offset="1" stop-opacity="0"/>
</linearGradient>
<linearGradient id="paint2_linear_301_1100" x1="30.7542" y1="96.2379" x2="-51.5662" y2="74.6838" gradientUnits="userSpaceOnUse">
<stop stop-color="#15FFF1"/>
<stop offset="1" stop-opacity="0"/>
</linearGradient>
</defs>
</svg>
