<svg width="93" height="100" viewBox="0 0 93 100" fill="none" xmlns="http://www.w3.org/2000/svg">
<path d="M-47 38.7752L-46.13 38.6582C-44.0831 53.8204 -37.2623 67.5717 -26.4133 78.4206C-9.60623 95.2277 14.3141 102.239 37.5691 97.165L37.7592 98.0277C14.2117 103.167 -10.0083 96.0684 -27.0274 79.0493C-38.0226 68.0542 -44.9238 54.1275 -47 38.7752Z" fill="#5177FF"/>
<path d="M-27.0339 -20.4334C0.388161 -47.8555 45.0121 -47.8555 72.4342 -20.4334C99.8563 6.98867 99.8563 51.6126 72.4342 79.0347L71.8128 78.4133C98.8913 51.3348 98.8913 7.26648 71.8128 -19.812C44.7343 -46.8905 0.665966 -46.8905 -26.4125 -19.812C-34.5931 -11.6314 -40.6463 -1.47703 -43.8995 9.54737L-44.7402 9.29881C-41.4431 -1.86449 -35.3242 -12.1432 -27.0339 -20.4334Z" fill="#5177FF"/>
<path d="M-13.4507 79.4226C-1.68791 87.9322 12.809 92.0115 27.3718 90.9149C42.088 89.8037 55.9416 83.4435 66.3885 72.9966C74.8176 64.5675 80.6003 53.9744 83.0932 42.3652C86.0029 28.8405 84.2776 14.5702 78.2317 2.18606L79.8108 1.41113C86.0321 14.1462 87.8086 28.8186 84.8112 42.7307C82.2452 54.6689 76.3017 65.5617 67.624 74.2321C56.8774 84.9787 42.629 91.5217 27.4887 92.6621C12.5166 93.788 -2.39703 89.5917 -14.4961 80.8409L-13.4507 79.4226Z" fill="#5177FF"/>
<path d="M-9.75214 -3.15096C8.14424 -21.0473 37.2624 -21.0473 55.1588 -3.15096C62.4036 4.09385 66.9215 13.276 68.2228 23.4085L66.4756 23.6351C65.2182 13.8901 60.8757 5.06618 53.9086 -1.90083C36.6995 -19.11 8.69984 -19.11 -8.50933 -1.90083C-11.5652 1.155 -14.1385 4.61292 -16.1709 8.37788L-17.7207 7.54446C-15.6079 3.61867 -12.9323 0.0291538 -9.75214 -3.15096Z" fill="#5177FF"/>
<path d="M-23.1535 27.29L-21.3916 27.3631C-21.9326 39.7034 -17.2319 51.7806 -8.5103 60.5095C-2.36208 66.6577 5.36523 70.8174 13.8455 72.5427L13.4946 74.268C4.67804 72.4696 -3.36363 68.1417 -9.75311 61.7523C-18.8329 52.6798 -23.7164 40.1202 -23.1535 27.29Z" fill="#5177FF"/>
<path d="M27.7148 73.1572C37.7158 72.0168 46.7736 67.645 53.9088 60.5172C60.1593 54.2666 64.3556 46.3858 66.0298 37.7373L67.7551 38.0736C66.0151 47.0657 61.658 55.2609 55.1516 61.76C47.7313 69.1803 38.3152 73.7201 27.9122 74.9045L27.7148 73.1572Z" fill="#5177FF"/>
<path d="M-4.1824 2.42674C0.189347 -1.945 5.5992 -5.21283 11.4623 -7.01855L11.7182 -6.17784C5.98666 -4.40867 0.70109 -1.22125 -3.56831 3.04815C-15.353 14.8329 -17.8386 33.1679 -9.61418 47.6356L-10.3818 48.0669C-18.789 33.2556 -16.2449 14.4892 -4.1824 2.42674Z" fill="#5177FF"/>
<path d="M22.6927 -8.70703C32.8471 -8.70703 42.3948 -4.75201 49.5811 2.42701C64.3997 17.2456 64.3997 41.3633 49.5811 56.182C34.7625 71.0006 10.6448 71.0006 -4.17383 56.182L-3.55243 55.5605C10.9226 70.0355 34.4847 70.0355 48.9597 55.5605C63.4347 41.0855 63.4347 17.5234 48.9597 3.04842C41.9415 -3.96977 32.6205 -7.82977 22.7 -7.82977V-8.70703H22.6927Z" fill="#5177FF"/>
<path d="M5.9795 12.5888C15.1982 3.37013 30.1996 3.37013 39.4182 12.5888C48.6369 21.8075 48.6369 36.8089 39.4182 46.0276L38.1754 44.7847C46.7069 36.2533 46.7069 22.3704 38.1754 13.8316C29.6439 5.30012 15.7611 5.30012 7.22962 13.8316C-1.30187 22.3631 -1.30187 36.2459 7.22962 44.7774L5.98681 46.0202C-3.23918 36.8016 -3.23918 21.8075 5.9795 12.5888Z" fill="#5177FF"/>
<path d="M14.3874 20.9959C18.9712 16.4122 26.428 16.4122 31.0044 20.9959L30.383 21.6173C26.1429 17.3771 19.249 17.3771 15.0088 21.6173C10.7687 25.8575 10.7687 32.7514 15.0088 36.9915C19.249 41.2317 26.1429 41.2317 30.383 36.9915C32.737 34.6375 33.8702 31.3916 33.4973 28.0799L34.3746 27.9775C34.7767 31.5524 33.5485 35.0688 31.0044 37.6129C26.4207 42.1967 18.9639 42.1967 14.3874 37.6129C9.81097 33.0292 9.81097 25.5797 14.3874 20.9959Z" fill="#5177FF"/>
</svg>
